<svg xmlns="http://www.w3.org/2000/svg" viewBox="0 0 131.72 122.1"><defs><style>.cls-1{fill:#0b0c10;}.cls-2{fill:#66fcf1;}</style></defs><g id="Слой_2" data-name="Слой 2"><g id="OBJECTS"><path class="cls-1" d="M62.7,41.28C28,41.28,11.49,63.86,10.38,92.74s42.15,29.37,64.16,28.18c19.89-1.08,51.78-3.06,47.49-32.64-5.32-36.75-28.25-47-59.33-47"/><path class="cls-2" d="M62.7,40.43c-12.08,0-24.35,2.83-34.06,10.32-8.55,6.6-14.14,16.17-16.88,26.52a63.58,63.58,0,0,0-2.25,17,22.23,22.23,0,0,0,4,12.61c5.44,7.61,15,11.07,23.79,12.94,10,2.11,20.26,2.5,30.41,2.26,9.26-.22,18.67-.68,27.78-2.39,8.89-1.66,18.6-4.89,24-12.68a23.81,23.81,0,0,0,3.87-13.86,62.34,62.34,0,0,0-3.67-19c-3.4-10-9.45-19-18.44-24.72s-19.45-7.94-29.82-8.68c-2.87-.2-5.76-.29-8.64-.29a.85.85,0,0,0,0,1.7c10.51,0,21.38,1.06,31.12,5.29a42.38,42.38,0,0,1,20.85,19.41,62.66,62.66,0,0,1,5.68,16.7c1.14,5.6,1.91,11.44.25,17-2.65,8.87-10.95,13.6-19.34,16-8.9,2.55-18.26,3.09-27.46,3.56a164.67,164.67,0,0,1-28-.64c-9.1-1.09-19.07-3.18-26.46-9a20.71,20.71,0,0,1-7.08-9.77c-1.56-4.8-1.11-10-.46-14.9C13.18,75.4,17,65.08,24.16,57.19,31.63,48.94,42,44.32,52.92,42.78a71.09,71.09,0,0,1,9.78-.65.85.85,0,0,0,0-1.7Z"/><path class="cls-1" d="M43.79,49C34.62,41.28,11.62,7.61,34.46,1.28,50.57-3.19,55.12,28.61,55.12,45.61"/><path class="cls-2" d="M44.39,48.34c-5-4.24-9-10-12.33-15.68C28.51,26.6,24.8,19.08,25.6,11.84A10.52,10.52,0,0,1,30,4.21c2.61-1.81,6.25-3,9.43-2.27,6.69,1.63,9.64,10.19,11.31,16a101.26,101.26,0,0,1,3.54,27.67.85.85,0,0,0,1.7,0,106.9,106.9,0,0,0-3.11-26.3A45.32,45.32,0,0,0,48.42,7.73C46.79,4.92,44.58,2.22,41.54.88,35.28-1.89,27,2.22,24.65,8.46c-2.58,7,.79,15.23,3.94,21.42a78.94,78.94,0,0,0,7.48,11.81,49.21,49.21,0,0,0,7.12,7.86c.83.7,2-.5,1.2-1.21Z"/><path class="cls-1" d="M88,49c9.17-7.67,32.17-41.34,9.33-47.67C81.21-3.19,76.66,28.61,76.66,45.61"/><path class="cls-2" d="M88.59,49.55A45.4,45.4,0,0,0,95,42.64a81.47,81.47,0,0,0,6.78-10.08c3.61-6.39,7.29-14.36,6-21.9a12.08,12.08,0,0,0-5.07-7.92A14.18,14.18,0,0,0,92.3.21c-7.16,1.43-10.61,9.88-12.51,16a100.08,100.08,0,0,0-4,29.36.85.85,0,0,0,1.7,0,106.37,106.37,0,0,1,2.77-24.7,48.59,48.59,0,0,1,4-11.24c1.46-2.78,3.4-5.55,6.25-7s6.31-1,9.22.39a10.63,10.63,0,0,1,6,6.66c2,6.78-1.47,14.56-4.61,20.44a77.72,77.72,0,0,1-7,10.9,46,46,0,0,1-6.7,7.31c-.84.71.37,1.91,1.2,1.21Z"/><path class="cls-2" d="M51.12,81.41c-2.71.53-3.95-2.5-3.94-6,0-4.43,3.49-5.47,5.26-4.73,1.5.63,2.87,2,2.66,5.93-.12,2.39-1.26,4.86-4,4.79"/><path class="cls-2" d="M80.66,81.41c2.72.53,4-2.5,3.94-6,0-4.43-3.49-5.47-5.26-4.73-1.5.63-2.86,2-2.66,5.93.12,2.39,1.26,4.86,4,4.79"/><path class="cls-2" d="M69.69,87.81a12.26,12.26,0,0,0-6.58.14c-.73.2-1,1.53-.44,2.18a12,12,0,0,0,3.51,3.25v-.07a.79.79,0,0,0,.78-.06A9.68,9.68,0,0,0,70.13,90C70.55,89.28,70.5,88,69.69,87.81Z"/><path class="cls-2" d="M69.92,87a12.21,12.21,0,0,0-4.66-.32,13.42,13.42,0,0,0-2.37.46,1.88,1.88,0,0,0-1.19,1.19,2.62,2.62,0,0,0-.07,1.59,4.71,4.71,0,0,0,1.1,1.62,10.88,10.88,0,0,0,3,2.59c.52.27,1.35-.06,1.28-.74v-.07L66,94.13c1,.38,1.91-.43,2.63-1a10.54,10.54,0,0,0,1.83-2,3.54,3.54,0,0,0,.83-2.21A2,2,0,0,0,69.92,87a.86.86,0,0,0-1,.59.88.88,0,0,0,.59,1h0c-.07-.06-.06,0,0,0s-.06-.06,0,0c0-.08,0-.07,0,0s0,.11,0,.17q0-.14,0,0s0,.35,0,.22a3,3,0,0,1-.72,1.3,9.39,9.39,0,0,1-1.26,1.34,8.27,8.27,0,0,1-.66.51,1.35,1.35,0,0,1-.38.26c-.11,0,.15.08-.12,0a.86.86,0,0,0-1.08.82v.07l1.28-.73a8.6,8.6,0,0,1-2.34-2,8.45,8.45,0,0,1-.95-1.14c0-.08-.06-.09,0,0a1,1,0,0,1,0-.16c0-.17,0,.07,0-.12,0,0,0-.27,0-.12a1.38,1.38,0,0,1,.08-.29s0,0,0,0,.05-.1.08-.14l0,0c.07-.06.07-.07,0,0,.25,0-.3,0,.14,0l.5-.13a13.47,13.47,0,0,1,1.78-.29,10.48,10.48,0,0,1,3.7.31A.85.85,0,0,0,69.92,87Z"/><path class="cls-2" d="M65.2,90.4a39.84,39.84,0,0,1-.15,5.68,7.39,7.39,0,0,1-.78,2.56,3.59,3.59,0,0,1-1.72,1.5c-2.38,1.15-5.84,1.18-7.62-1.06-1.25-1.58-1.15-3.76-.72-5.62.25-1.06-1.39-1.52-1.64-.45a8.71,8.71,0,0,0,.59,6.48,6.49,6.49,0,0,0,4.19,2.91,9,9,0,0,0,5.17-.4A6.62,6.62,0,0,0,65,100.53a6.55,6.55,0,0,0,1.45-2.74,27.31,27.31,0,0,0,.47-7.39.85.85,0,0,0-1.7,0Z"/><path class="cls-2" d="M65.88,90.4A34.57,34.57,0,0,0,66.17,97a7.4,7.4,0,0,0,1.12,2.9,5.49,5.49,0,0,0,2.34,1.84c3.13,1.46,7.41,1.21,9.62-1.71,1.53-2,1.5-4.65,1-7-.25-1.06-1.89-.61-1.64.45a6.93,6.93,0,0,1-.48,5.27,4.88,4.88,0,0,1-3.29,2.07,7.34,7.34,0,0,1-4.19-.48,4.38,4.38,0,0,1-1.78-1.18,5.74,5.74,0,0,1-1-2.38,30,30,0,0,1-.27-6.36.85.85,0,0,0-1.7,0Z"/><path class="cls-2" d="M18.12,82.7A55.75,55.75,0,0,0,.82,79.62a.85.85,0,0,0,0,1.7,54.11,54.11,0,0,1,16.85,3c1,.35,1.49-1.3.45-1.64Z"/><path class="cls-2" d="M16.9,87.58A73.62,73.62,0,0,0,1.43,86.33a.85.85,0,0,0,0,1.7,71.33,71.33,0,0,1,15,1.19c1.07.23,1.52-1.41.45-1.64Z"/><path class="cls-2" d="M114.05,84.34a54.06,54.06,0,0,1,16.85-3,.85.85,0,0,0,0-1.7,55.75,55.75,0,0,0-17.3,3.08c-1,.34-.59,2,.45,1.64Z"/><path class="cls-2" d="M115.27,89.22a71.28,71.28,0,0,1,15-1.19.85.85,0,0,0,0-1.7,73.51,73.51,0,0,0-15.47,1.25c-1.07.23-.62,1.87.45,1.64Z"/></g></g></svg>