<?xml version="1.0" standalone="no"?>
<!DOCTYPE svg PUBLIC "-//W3C//DTD SVG 1.1//EN" "http://www.w3.org/Graphics/SVG/1.1/DTD/svg11.dtd" >
<svg xmlns="http://www.w3.org/2000/svg" xmlns:xlink="http://www.w3.org/1999/xlink" version="1.1">
<metadata>
Created by FontForge 20170731 at Sun Apr 30 20:18:01 2017
 By Aleksey,,,
Copyright (c) 2010 by Font Diner, Inc. All rights reserved.
</metadata>
<defs>
<font id="CherryCreamSoda-Regular" horiz-adv-x="922" >
  <font-face 
    font-family="Cherry Cream Soda"
    font-weight="400"
    font-stretch="normal"
    units-per-em="1024"
    panose-1="2 0 0 0 0 0 0 0 0 0"
    ascent="819"
    descent="-205"
    x-height="482"
    cap-height="737"
    bbox="-241 -247 1483 1006"
    underline-thickness="51"
    underline-position="-152"
    unicode-range="U+0020-FB02"
  />
<missing-glyph horiz-adv-x="358" 
 />
    <glyph glyph-name=".notdef" horiz-adv-x="358" 
 />
    <glyph glyph-name=".null" horiz-adv-x="0" 
 />
    <glyph glyph-name="nonmarkingreturn" horiz-adv-x="341" 
 />
    <glyph glyph-name="space" unicode=" " horiz-adv-x="358" 
 />
    <glyph glyph-name="exclam" unicode="!" horiz-adv-x="278" 
d="M206 36q0 -14 -9 -23.5t-21.5 -15.5t-27 -9t-24.5 -3q-11 0 -25.5 3t-27 9t-21.5 15.5t-9 23.5t9 23.5t21.5 15.5t27 9t25.5 3q10 0 24.5 -3t27 -9t21.5 -15.5t9 -23.5zM47 154q5 6 9 38t7.5 76.5t6.5 96.5t5 99t3 82.5t1 48.5v29t-1.5 46.5t-5.5 44.5t-11 23l176 -1
q-5 -1 -7.5 -9.5t-3.5 -11.5q-11 -44 -16.5 -99.5t-7.5 -113t-2.5 -113.5t-0.5 -101v-27t1 -42.5t3 -41.5t6 -24h-162z" />
    <glyph glyph-name="quotedbl" unicode="&#x22;" horiz-adv-x="423" 
d="M234 754h159q-3 -5 -6 -28t-6 -55.5t-6 -69t-5 -69.5t-4 -57t-2 -30h-102l-8 104t-9 105q-1 7 -2 21t-2 29t-3 28.5t-4 21.5zM59 445q-5 52 -8.5 104t-8.5 105q-1 7 -2 21t-2 29t-3 28.5t-4 21.5h159q-3 -5 -6 -28t-6.5 -55.5t-6 -69t-5 -69.5t-4 -57t-1.5 -30h-102z" />
    <glyph glyph-name="numbersign" unicode="#" horiz-adv-x="713" 
d="M543 440l-12 -72t-13 -72q8 0 27 1t39.5 2.5t39 3t24.5 4.5l-27 -139q-4 3 -21.5 4.5t-38.5 3t-39.5 2t-24.5 0.5q-7 -38 -13.5 -77.5t-6.5 -77.5v-12t4 -11h-139q7 6 14.5 31t14.5 55t12 57t7 37q-22 1 -43 1h-43h-62q-7 -38 -13.5 -78.5t-6.5 -79.5v-12t4 -11h-139
q7 6 14.5 31t14 54.5t11.5 56.5t7 37q-8 0 -24 -0.5t-33.5 -1.5t-33.5 -2.5t-23 -3.5l18 126q6 -3 22.5 -4.5t34.5 -2t34.5 -1t24.5 -0.5l26 152q-8 0 -24.5 -0.5t-34 -1.5t-33.5 -2t-23 -3l17 125q6 -3 22.5 -4.5t34.5 -2t34.5 -1t24.5 -0.5q5 34 9.5 68t4.5 69v11.5
t-1.5 15.5t-4.5 14t-9 8h184q-13 0 -25 -25.5t-21.5 -58t-16.5 -62.5t-9 -40q72 0 144 3q5 33 9.5 66.5t4.5 67.5v11.5t-1.5 15.5t-4.5 14t-9 8h184q-13 0 -24.5 -24.5t-21 -55.5t-16 -60t-8.5 -39q7 0 25.5 1t39 2.5t38 3.5t23.5 4l-27 -139q-4 3 -21.5 4.5t-38 3t-38.5 2
t-24 0.5zM262 288q37 1 73.5 1.5t73.5 2.5l26 150q-14 1 -27.5 1h-27.5h-91q-8 -39 -14 -77.5t-13 -77.5z" />
    <glyph glyph-name="dollar" unicode="$" horiz-adv-x="638" 
d="M184 440q0 -14 12 -25t30.5 -19t41.5 -14t45 -10t40.5 -6.5t28.5 -4.5q22 -3 58 -10t71 -19t60.5 -31t25.5 -47q0 -27 -22.5 -47t-54 -33t-64 -20.5t-52.5 -9.5q0 -5 1 -16t2.5 -23.5t4 -23t6.5 -13.5h-179q3 4 5.5 14t4.5 22t4 23t2 16q-85 8 -166 33q-8 2 -22 7.5
t-29 11.5t-28.5 10.5t-19.5 4.5q2 1 14 11t25.5 21.5t25 21.5t12.5 13q53 -34 116 -49.5t125 -15.5q6 0 26.5 1t42.5 5t39.5 10t17.5 17q0 14 -28.5 22.5t-71 16.5t-92.5 17.5t-92.5 25t-71 38.5t-28.5 58q0 43 22 74.5t55 54t72.5 36.5t74.5 21q0 5 -1 18t-2.5 26.5
t-5.5 25t-10 13.5l178 -2q-5 -1 -9 -11t-7 -22t-4.5 -23.5t-1.5 -15.5q34 -2 67 -8.5t58.5 -21.5t41 -40.5t15.5 -65.5q0 -21 -3.5 -42t-8.5 -41h-134q6 15 10 31t4 33q0 41 -24.5 57t-62.5 16q-21 0 -53.5 -4.5t-62.5 -15t-52 -29.5t-22 -47z" />
    <glyph glyph-name="percent" unicode="%" horiz-adv-x="941" 
d="M266 737q32 0 72 -8t75 -26t59 -46.5t24 -68.5q0 -39 -24.5 -66t-60.5 -43.5t-76.5 -23.5t-71.5 -7q-33 0 -73 6.5t-74.5 23t-57.5 44t-23 69.5t23.5 70t58.5 45t75.5 24t73.5 7zM145 592q0 -23 12 -38t29.5 -24t38.5 -12.5t39 -3.5q17 0 38 4t40 13t31.5 23.5t12.5 35.5
q0 22 -12 37t-30 25t-39 14.5t-39 4.5t-39 -4t-39.5 -13.5t-30.5 -24.5t-12 -37zM675 289q33 0 73 -8t75 -26t59 -46.5t24 -68.5q0 -39 -25 -66t-61 -43.5t-76 -23.5t-71 -7q-33 0 -73 6.5t-74.5 23t-57.5 44t-23 69.5t23.5 70t58.5 45t75 24t73 7zM555 144q0 -23 12 -38
t29.5 -24t38.5 -12.5t39 -3.5q17 0 38 4t39.5 13t31 23.5t12.5 35.5q0 22 -12 37t-30 25t-39 14.5t-39 4.5t-39 -4t-39 -13.5t-30 -24.5t-12 -37zM15 0q17 9 45.5 33t62 56.5t70 69.5t69.5 71.5t59 62.5t40 43q33 35 66.5 71t66.5 71q6 7 25 26.5t44 45t52 54.5t49.5 55
t37 46t14.5 27q0 5 -3 5h212q-15 -1 -49 -26.5t-77 -64.5t-90.5 -86t-90 -91t-75.5 -79t-47 -50q-22 -24 -44 -47t-45 -46q-6 -6 -25 -25.5t-45 -45.5t-54 -55t-51.5 -54.5t-38.5 -44t-14 -22.5h-164z" />
    <glyph glyph-name="ampersand" unicode="&#x26;" horiz-adv-x="638" 
d="M607 210q-6 0 -17.5 -4t-24.5 -9t-25 -9.5t-18 -6.5q-54 -19 -115 -30q0 -5 0.5 -17.5t2 -26t4 -25t6.5 -14.5h-178q3 3 5.5 13t4.5 21.5t3.5 22t2.5 15.5q-18 0 -43.5 2.5t-54.5 7.5t-57.5 13.5t-51 21.5t-37 30t-14.5 39q0 19 13.5 34t32 26t39 18t35.5 11
q-10 6 -20.5 14t-19.5 18.5t-14.5 22.5t-5.5 25q0 42 21 73t53 53.5t70 36.5t73 21q0 6 -1 19t-2.5 27t-5.5 25.5t-10 13.5l177 -2q-5 0 -8.5 -10t-6.5 -22.5t-4.5 -24t-1.5 -15.5q34 -1 68 -7t61 -21t43.5 -41t16.5 -67q0 -21 -3.5 -42t-8.5 -41h-133q13 32 13 64
q0 41 -24.5 57t-62.5 16q-21 0 -53.5 -4.5t-62.5 -15t-52 -29.5t-22 -47q0 -27 26 -43t60.5 -24t69 -10.5t52.5 -2.5l-3 -66q-8 0 -28 -0.5t-46.5 -2t-55 -5t-52 -9t-39 -13.5t-15.5 -19t17.5 -17t39 -10t42 -5t26.5 -1q63 0 126 15.5t116 49.5q0 -2 11.5 -12.5t25.5 -22
t26 -21.5t14 -11z" />
    <glyph glyph-name="quotesingle" unicode="'" horiz-adv-x="220" 
d="M50.5 549q-3.5 52 -8.5 105q-1 7 -2 21t-2 29t-3 28.5t-4 21.5h159q-3 -5 -6 -28t-6.5 -55.5t-6 -69t-5 -69.5t-4 -57t-1.5 -30h-102q-5 52 -8.5 104z" />
    <glyph glyph-name="parenleft" unicode="(" horiz-adv-x="431" 
d="M431 -99q-98 12 -174 43t-129 83.5t-80.5 127.5t-27.5 176q0 92 30 176.5t84 152.5t129.5 115.5t167.5 67.5v-86q-63 -25 -113 -69t-85.5 -100.5t-54.5 -121.5t-19 -131q0 -62 17.5 -121.5t52 -108t85.5 -81t117 -41.5v-82z" />
    <glyph glyph-name="parenright" unicode=")" horiz-adv-x="431" 
d="M0 843q97 -11 173.5 -42t129 -83.5t80 -128.5t27.5 -176q0 -92 -29.5 -176t-83.5 -152.5t-129.5 -116.5t-167.5 -67v87q63 24 113 68.5t85.5 100.5t54.5 121.5t19 131.5q0 61 -18 120.5t-52.5 108t-85 81t-116.5 41.5v82z" />
    <glyph glyph-name="asterisk" unicode="*" horiz-adv-x="567" 
d="M543 463q-6 3 -30.5 6t-53 5.5t-54 4t-34.5 1.5q5 -7 19 -24t30.5 -35.5t31.5 -33.5t21 -18l-118 -57q-1 7 -10 26t-20.5 40t-22.5 39.5t-16 26.5q-6 -8 -17.5 -26.5t-24 -39t-22.5 -39.5t-12 -27l-109 48q8 5 23.5 21t31.5 35t30.5 37t20.5 27q-32 0 -63 -2t-63 -5
q-14 -1 -29 -2t-28 -5l-4 100q10 -3 36 -5.5t55 -4t55.5 -2.5t38.5 -1h7q-6 9 -21 28.5t-32 40t-33 37.5t-25 22l109 48q2 -8 12 -27t22.5 -39.5t24 -39t17.5 -26.5q5 7 16 26t22.5 40t20.5 39.5t10 26.5l118 -57q-7 -3 -22.5 -18.5t-32 -35t-31.5 -37t-20 -24.5
q12 0 37.5 1.5t54 4t53.5 5.5t34 6z" />
    <glyph glyph-name="plus" unicode="+" horiz-adv-x="532" 
d="M509 255q-5 3 -31.5 5.5t-58 3.5t-59.5 1.5t-36 0.5q0 -8 0.5 -29t1 -44.5t2.5 -44t5 -26.5l-127 -2q4 6 6 25.5t2.5 42t0.5 44.5v34h-39t-59.5 -1t-58.5 -2.5t-35 -4.5l-3 111q8 -3 33.5 -5t55.5 -2.5t59 0t44 0.5q0 7 -1.5 30t-3.5 48.5t-5 47t-6 26.5l140 -3
q-4 -4 -6 -25t-3.5 -45.5t-2 -47t-0.5 -28.5q9 0 37.5 1t59.5 2.5t58 4t33 5.5z" />
    <glyph glyph-name="comma" unicode="," horiz-adv-x="225" 
d="M24 -56.5q9 39.5 18 80.5q1 7 4 17.5t5 21.5t4 21t2 18l148 -23q-5 -4 -14 -21t-21 -39.5t-24.5 -49t-23.5 -50t-19.5 -41t-10.5 -23.5l-87 9q10 40 19 79.5z" />
    <glyph glyph-name="hyphen" unicode="-" horiz-adv-x="510" 
d="M20 369q7 -3 25.5 -4.5t39.5 -2t39.5 -0.5h27.5q11 0 38.5 0.5t62.5 1t73.5 2t72.5 3t58.5 4t31.5 5.5l-3 -123q-4 3 -22 5t-42.5 3t-53.5 1.5t-54.5 1t-45.5 0.5h-27h-45t-67 -0.5t-65.5 -2.5t-40.5 -5z" />
    <glyph glyph-name="period" unicode="." horiz-adv-x="206" 
d="M103 101q11 0 25.5 -3t27 -9t21.5 -15.5t9 -23.5t-9 -23.5t-21.5 -15.5t-27 -9t-25.5 -3t-25.5 3t-27 9t-21.5 15.5t-9 23.5t9 23.5t21.5 15.5t27 9t25.5 3z" />
    <glyph glyph-name="slash" unicode="/" horiz-adv-x="500" 
d="M18.5 32q16.5 24 35 57t37.5 70.5t35.5 72.5t29 62.5t18.5 41.5q9 19 24.5 52t34 72.5t38 81t35 78t25.5 64t10 39.5q0 5 -1 9t-6 5h197q-14 -1 -35.5 -26.5t-46 -64.5t-49.5 -86.5t-47 -91.5t-38 -79t-23 -49q-8 -18 -22.5 -47t-32 -63.5t-35 -71t-32 -67.5t-24 -54.5
t-9.5 -31.5q0 -4 2 -5h-149q12 8 28.5 32z" />
    <glyph glyph-name="zero" unicode="0" horiz-adv-x="1110" 
d="M558 739q56 0 116.5 -10t119 -31t111.5 -52.5t92.5 -74t63 -96.5t23.5 -120q0 -63 -25 -114t-67 -91.5t-96.5 -70t-113.5 -49t-118.5 -29t-110.5 -9.5q-55 0 -115.5 9t-119 28t-111.5 48.5t-93.5 70.5t-64 94.5t-23.5 119.5t24 120t64.5 95.5t94 72t112.5 50.5t120 29.5
t117 9.5zM192 363q0 -71 34 -121.5t86.5 -83t117 -48t124.5 -15.5q38 0 79.5 7t82 21.5t77 36t64.5 51t44.5 66.5t16.5 81q0 67 -34 119t-86.5 87.5t-116.5 53.5t-123 18q-60 0 -124.5 -16.5t-118.5 -50.5t-88.5 -85t-34.5 -121z" />
    <glyph glyph-name="one" unicode="1" horiz-adv-x="493" 
d="M387 725.5q-2 -5.5 -4 -11.5q-9 -32 -16 -82.5t-12 -104.5t-7.5 -104.5t-2.5 -83.5q0 -10 -0.5 -38t-1.5 -64t-0.5 -76t1.5 -74t4.5 -58.5t9.5 -28.5h-175q6 6 10 38.5t6.5 79t3 100t0.5 102.5t-0.5 87t-0.5 52q0 46 -0.5 92t-4.5 92h-33.5t-37.5 -0.5t-37.5 -2
t-33.5 -5.5l-4 105l340 -3q-2 -6 -4 -11.5z" />
    <glyph glyph-name="two" unicode="2" horiz-adv-x="906" 
d="M412 101q90 0 178.5 1t178.5 3q11 1 22.5 1t23.5 2l3 -103l-757 -5v102q40 11 102 30.5t131.5 47t139.5 62.5t126 76.5t91 90t35 102.5q0 40 -21 68t-53.5 44.5t-70 24t-70.5 7.5q-38 0 -76.5 -9.5t-70.5 -29.5t-52 -51.5t-20 -75.5q0 -15 2.5 -30.5t6.5 -31.5h-183
q-7 25 -7 54q0 75 35.5 127.5t91 85.5t122.5 48t131 15q36 0 80.5 -5.5t89 -17.5t86.5 -31t75 -46t52.5 -63t19.5 -81q0 -47 -22.5 -91t-59 -84t-84 -75.5t-96.5 -66t-96 -54.5t-84 -41z" />
    <glyph glyph-name="three" unicode="3" horiz-adv-x="882" 
d="M654 379q29 -8 63 -22t63 -34.5t48 -48t19 -63.5q0 -45 -28 -80.5t-68.5 -61.5t-86.5 -42.5t-83 -24.5q-42 -9 -83.5 -13t-84.5 -4q-46 0 -97.5 5.5t-100.5 20.5t-92 41t-72 66q-17 23 -26.5 49.5t-9.5 55.5q0 21 6 41.5t19 38.5h174q-13 -19 -20 -40.5t-7 -44.5
q0 -43 24.5 -69t60.5 -39.5t76.5 -17.5t72.5 -4q24 0 67 5t85 18t73 35t31 56q0 25 -19 43t-48.5 30t-65.5 19.5t-71 11.5t-65 5t-46 1v101q20 0 48.5 2t60 8t62.5 15.5t55.5 24.5t40 36t15.5 50q0 31 -18 51.5t-45 33t-57 18t-54 5.5q-37 0 -69 -4t-57.5 -16t-44 -35
t-29.5 -61l-183 -2q20 62 59 104.5t89.5 68t109 36.5t118.5 11q41 0 80.5 -4.5t78.5 -15.5q31 -8 66.5 -23.5t65.5 -38.5t49.5 -53t19.5 -67q0 -33 -16.5 -61t-41 -50t-54.5 -39t-57 -28z" />
    <glyph glyph-name="four" unicode="4" horiz-adv-x="849" 
d="M643 215q0 -15 -0.5 -48t0.5 -68.5t4.5 -64t10.5 -34.5h-175q5 5 8 20.5t5 36.5t3 44.5t1.5 46t1 40.5t0.5 27q-20 0 -61 0.5t-91 0.5h-104.5t-101 -1t-80.5 -2.5t-44 -4.5v103q67 56 132 112t129 114q45 42 89.5 83t82.5 89q2 3 10 13.5t8 12.5q0 4 -4 5t-6 1h10
q59 -1 117.5 -1.5t118.5 1.5q-17 0 -27 -9q-9 -7 -15 -31t-10 -56.5t-6.5 -69.5t-3.5 -71.5t-1 -61.5v-40q0 -23 0.5 -45.5t0.5 -45.5q21 0 47.5 -0.5t54 -0.5t53.5 1t47 5l2 -103q-51 1 -102.5 1t-103.5 1zM202 309h150t150 1v181v47.5t-1 46.5q-76 -68 -150.5 -137
t-148.5 -139z" />
    <glyph glyph-name="five" unicode="5" horiz-adv-x="927" 
d="M457 523q40 0 88 -5t96.5 -17.5t94.5 -32t81.5 -49t57 -69t21.5 -90.5q0 -53 -22.5 -94t-60 -72t-86 -51.5t-99.5 -33.5t-101 -18.5t-91 -5.5q-31 0 -71 5t-81.5 15.5t-81.5 27t-71.5 41t-50.5 56.5t-19 73q0 23 9 44h168q-13 -17 -13 -42q0 -37 23 -60.5t56 -37
t69.5 -18.5t63.5 -5q40 0 91.5 8t98 28.5t78.5 54.5t32 86q0 50 -29.5 83t-73 53t-92.5 28.5t-88 8.5q-22 0 -49 -2.5t-53.5 -8.5t-51 -15t-42.5 -22h-166q1 13 3.5 41.5t4.5 64t4 74.5t2.5 74t-0.5 62t-5 39l15 -2v2q152 -3 303.5 -3t303.5 5q14 1 28 1t28 3l-3 -103
l-510 -4l-5 -145q48 15 97 21.5t99 6.5z" />
    <glyph glyph-name="six" unicode="6" horiz-adv-x="921" 
d="M895 274q0 -54 -21 -95.5t-56 -73.5t-81 -54t-95.5 -36t-99.5 -20.5t-93 -6.5q-42 0 -90 6.5t-95.5 21t-91.5 37.5t-78 55t-54 73.5t-20 94.5q0 61 31 116.5t81 103.5t113.5 89t129.5 73.5t128.5 56t109.5 38.5l116 -68q-53 -15 -109.5 -35t-112 -44t-107.5 -53t-96 -63
q43 14 88 20t90 6q35 0 79.5 -6t90.5 -18t89.5 -31.5t78 -46t55 -61.5t20.5 -79zM467 424q-25 0 -55.5 -4.5t-62.5 -13.5t-62 -23t-53.5 -33.5t-38 -45t-14.5 -57.5q0 -42 27.5 -73t66.5 -51.5t83 -30t77 -9.5q43 0 96 8.5t100 29.5t79 57t32 91q0 42 -30 71.5t-73 48
t-90.5 27t-81.5 8.5z" />
    <glyph glyph-name="seven" unicode="7" horiz-adv-x="781" 
d="M766 641q-15 -12 -37 -37t-45 -53.5t-44 -56t-34 -43.5q-63 -79 -125 -158l-124 -158l-71 -90l-22 -28t-23 -27l-134 58q79 94 157 188t154 191q42 53 84 105.5t80 107.5l-531 -3v102q166 -3 330 -2.5t329 5.5q13 0 26.5 0.5t26.5 2.5z" />
    <glyph glyph-name="eight" unicode="8" horiz-adv-x="895" 
d="M682 422q32 -12 65.5 -30.5t60.5 -43.5t44 -57t17 -70q0 -46 -22 -81.5t-57.5 -60.5t-81.5 -42t-93 -27t-91.5 -14t-78.5 -4t-78.5 4t-92 14t-93 27t-81.5 42t-58 60t-22 82q0 38 17 70t44 57t60.5 43.5t66.5 30.5q-19 10 -36 23t-30.5 29.5t-21.5 36t-8 42.5q0 37 17 65
t44.5 49t63 35.5t72.5 23t72.5 12.5t63.5 4t63.5 -4t72 -12.5t72 -23t63 -35.5t44.5 -49t17 -65q0 -45 -28.5 -78t-66.5 -53zM445 655q-22 0 -54.5 -4.5t-62.5 -16t-51 -31.5t-21 -50t21.5 -48.5t52 -29t62.5 -14t53 -3.5t53 3.5t62 14t51.5 29t21.5 48.5t-21 50t-51 31.5
t-62 16t-54 4.5zM445 83q21 0 49 2.5t57.5 9t58 17.5t51 27t36 38.5t13.5 51.5q0 43 -29.5 71.5t-71 45t-87 23t-77.5 6.5q-33 0 -78.5 -6.5t-87 -23t-71 -45t-29.5 -71.5q0 -29 13.5 -51.5t36 -38.5t51 -27t58 -17.5t57.5 -9t50 -2.5z" />
    <glyph glyph-name="nine" unicode="9" horiz-adv-x="921" 
d="M900 466q0 -62 -30.5 -117t-81 -103t-114 -89t-129.5 -73.5t-128 -56.5t-110 -39l-116 68q53 16 109.5 35.5t112 44t107.5 53.5t96 63q-86 -27 -177 -27q-36 0 -80 6t-90 18.5t-89.5 31.5t-78 46t-55 62t-20.5 79q0 53 21 95t56 74t80.5 54t95 36t99.5 20t93 6
q42 0 90 -6.5t96 -21t91.5 -37t77.5 -54.5t54 -73.5t20 -94.5zM485 659q-42 0 -95.5 -8.5t-100 -29.5t-78.5 -57t-32 -91q0 -42 30 -71.5t73 -48t90.5 -27t81.5 -8.5q39 0 87.5 9t91 29.5t71.5 54t30 83.5q1 44 -24.5 75.5t-63.5 51.5t-81.5 29t-79.5 9z" />
    <glyph glyph-name="colon" unicode=":" horiz-adv-x="206" 
d="M186 315q0 -14 -9 -23.5t-21.5 -15.5t-27 -9t-25.5 -3t-25.5 3t-27 9t-21.5 15.5t-9 23.5t9 23.5t21.5 15.5t27 9t25.5 3t25.5 -3t27 -9t21.5 -15.5t9 -23.5zM103 101q11 0 25.5 -3t27 -9t21.5 -15.5t9 -23.5t-9 -23.5t-21.5 -15.5t-27 -9t-25.5 -3t-25.5 3t-27 9
t-21.5 15.5t-9 23.5t9 23.5t21.5 15.5t27 9t25.5 3z" />
    <glyph glyph-name="semicolon" unicode=";" horiz-adv-x="235" 
d="M215 315q0 -14 -9 -23.5t-21.5 -15.5t-27 -9t-25.5 -3t-25.5 3t-27 9t-21.5 15.5t-9 23.5t9 23.5t21.5 15.5t27 9t25.5 3t25.5 -3t27 -9t21.5 -15.5t9 -23.5zM10 -136q10 40 19 79.5t18 80.5q1 7 4 17.5t5 21.5t4 21t2 18l148 -23q-4 -4 -13.5 -21t-21 -39.5t-24.5 -49
t-24 -50t-19 -41t-11 -23.5z" />
    <glyph glyph-name="less" unicode="&#x3c;" horiz-adv-x="508" 
d="M478 433q-10 -2 -23 -6t-26.5 -9t-26 -10.5t-21.5 -8.5q-49 -19 -97.5 -38t-97.5 -38q72 -30 145 -52.5t147 -45.5v-125q-8 6 -42.5 21.5t-82.5 35.5t-102.5 41.5t-102.5 39.5t-82.5 29.5t-42.5 11.5h-3v95h3q9 0 45 12t85 29.5t103.5 39t102 41.5t80.5 35t39 21v-119z
" />
    <glyph glyph-name="equal" unicode="=" horiz-adv-x="555" 
d="M20 470q8 -3 28.5 -4.5t43 -2.5t43.5 -1h30q12 0 42 0.5t68.5 1t80.5 2t79 3.5t64.5 4.5t35.5 5.5l-3 -123q-5 3 -24.5 5t-47 3t-59 1.5t-59.5 1t-50 0.5h-30h-49t-73.5 -0.5t-71.5 -2.5t-44 -5zM20 274q8 -3 28.5 -4.5t43 -2.5t43.5 -1h30q12 0 42 0.5t68.5 1t80.5 2
t79 3.5t64.5 4.5t35.5 5.5l-3 -123q-5 3 -24.5 5t-47 3t-59 1.5t-59.5 1t-50 0.5h-30h-49t-73.5 -0.5t-71.5 -2.5t-44 -5z" />
    <glyph glyph-name="greater" unicode="&#x3e;" horiz-adv-x="508" 
d="M31 552q5 -6 38 -21t80.5 -35t102.5 -41.5t103.5 -39t84.5 -29.5t46 -12h2v-95h-2q-8 0 -42.5 -11.5t-82.5 -29.5t-102.5 -39.5t-102.5 -41.5t-82.5 -35.5t-42.5 -21.5v125q74 23 146.5 45.5t144.5 52.5q-49 19 -97 38t-97 38q-9 3 -22 8.5t-26.5 10.5t-26.5 9t-22 6v119
z" />
    <glyph glyph-name="question" unicode="?" horiz-adv-x="755" 
d="M341 144h-149q-1 14 -2 28.5t-1 29.5q0 53 20 86t52 54t72 34t81 27q17 6 52 17t69.5 27t60.5 36t26 43q0 19 -21 35.5t-54 30.5t-73 25t-78 18.5t-69 11.5t-46 4q-19 0 -42 -1.5t-42.5 -9t-32.5 -22t-13 -39.5q0 -24 9.5 -51.5t17.5 -49.5h-138q-13 25 -21.5 52t-8.5 55
q0 49 26 78.5t65 45.5t84 21t82 5q34 0 84 -6t105.5 -18t110.5 -30.5t99 -44t71.5 -57.5t27.5 -72q0 -34 -33 -61.5t-82 -51t-106.5 -43.5t-106.5 -39t-82 -38t-33 -41q0 -46 19 -89zM280 87q11 0 25.5 -3t27 -9t21.5 -15.5t9 -23.5t-9 -23.5t-21.5 -15.5t-27 -9t-25.5 -3
t-25 3t-27 9t-21.5 15.5t-8.5 23.5t8.5 23.5t21.5 15.5t27 9t25 3z" />
    <glyph glyph-name="at" unicode="@" horiz-adv-x="996" 
d="M976 429q0 -60 -24 -110.5t-64.5 -86.5t-93.5 -56.5t-111 -20.5q-12 0 -29.5 2t-34 8t-28 16.5t-11.5 27.5q0 2 0.5 4.5t0.5 4.5q-38 -11 -78 -16t-80 -5q-20 0 -51.5 2.5t-62.5 11.5t-53 26t-22 45q0 27 22.5 46t58.5 31.5t79.5 19.5t85 10.5t76.5 4t54 0.5l4 26t2 25
q0 18 -8 30.5t-21 20t-29 10.5t-31 3q-17 0 -39 -4t-43 -12.5t-37.5 -22t-22.5 -32.5l-100 12q19 33 49 56t66 37.5t74 20.5t74 6q30 0 61.5 -5.5t57.5 -19.5t42.5 -37.5t16.5 -59.5q0 -2 -0.5 -3.5t-0.5 -3.5v-4q-5 -37 -9.5 -73t-9.5 -72q-2 -14 -4 -28.5t-2 -28.5
q0 -8 2.5 -19t13.5 -11q10 0 19.5 4.5t17.5 10.5q20 15 37 39t29 52t19 57t7 55q0 59 -27 100.5t-69.5 67t-95 37t-103.5 11.5q-66 0 -136 -24.5t-128 -69t-95 -105.5t-37 -133q0 -44 18.5 -76t48.5 -55t69.5 -38t80.5 -23.5t81.5 -11.5t73.5 -3q53 0 105.5 6t103.5 20
l6 -75q-34 -10 -74 -16.5t-81.5 -10t-82.5 -5t-77 -1.5q-41 0 -87.5 6.5t-92.5 21t-87.5 36.5t-73.5 53t-51 71t-19 91q0 66 26 123.5t70.5 104.5t102.5 83.5t121.5 61.5t128.5 38t123 13q69 0 138 -16t125 -51.5t91 -91t35 -133.5zM592 274q2 14 4.5 28t4.5 28h-26
q-7 0 -27 -0.5t-45.5 -1.5t-53.5 -3.5t-51.5 -7.5t-38.5 -12t-15 -17q0 -12 13 -18.5t30.5 -9.5t34.5 -3.5t25 -0.5q36 0 73 4t72 14z" />
    <glyph glyph-name="A" unicode="A" horiz-adv-x="860" 
d="M687 0q1 1 1 4q0 7 -5.5 23.5t-12 35t-13.5 35t-10 23.5q-106 4 -212.5 3t-212.5 -5q-3 -7 -10 -23.5t-13.5 -34.5t-12 -34t-5.5 -23q0 -3 1 -4h-187q6 7 14.5 22.5t17 33t16.5 34t12 25.5q11 22 35 71t53.5 111.5t61 131t57.5 129.5t42.5 107t16.5 63q0 2 -0.5 4.5
t-2.5 2.5h234q-2 0 -2.5 -2.5t-0.5 -4.5q0 -17 16.5 -63t42.5 -107t57.5 -129.5t61 -131t53 -111.5t34.5 -71q4 -9 12 -25.5t17 -34t17.5 -33t14.5 -22.5h-188zM305 213q149 0 299 6q-41 91 -81.5 180t-87.5 176q-48 -88 -89 -179t-83 -182z" />
    <glyph glyph-name="B" unicode="B" horiz-adv-x="769" 
d="M536 354q31 -11 63 -25t57 -33t41 -42.5t16 -53.5q0 -45 -27 -77.5t-70 -55t-97 -36.5t-108.5 -22t-104 -10.5t-83.5 -3.5q-96 -2 -192 0q10 23 15.5 68t8.5 95q2 52 2 100.5v75.5v40.5t-1 71t-2.5 86.5t-4.5 87.5t-7 74.5t-10 47h103.5t96 -0.5t96 -3t102.5 -8.5
q29 -3 65 -8t72.5 -13.5t71 -22t61.5 -34t43 -48t16 -65.5t-20.5 -67.5t-53 -51.5t-72 -38t-77.5 -27zM422 640q-31 4 -63 6.5t-61 3t-53 0.5h-40q-3 -62 -4.5 -121.5t-2.5 -122.5q21 0 48 0.5t57.5 2t62.5 5t62 9.5t58 15t49.5 23t34.5 33t13 45q0 23 -13.5 40t-36 29
t-51.5 19.5t-60 12.5zM396 289q-56 9 -111 10.5t-87 2.5q0 -55 1 -107t4 -107h36.5t47.5 1.5t54.5 4t55.5 7.5t52.5 12.5t45 19t31.5 27.5t12 38q0 20 -12 35t-32 26t-45.5 18t-52.5 12z" />
    <glyph glyph-name="C" unicode="C" horiz-adv-x="963" 
d="M774.5 461.5q16.5 30.5 16.5 61.5q0 35 -23.5 57.5t-56.5 35.5t-69.5 18t-63.5 5q-65 0 -131.5 -24t-120.5 -67t-88.5 -102t-34.5 -129q0 -42 15.5 -74t42 -55t60.5 -39t71.5 -25t75.5 -13t71 -4q82 0 163 14t161 36l39 -104q-43 -14 -90.5 -24t-96 -16t-97 -9t-93.5 -3
q-44 0 -98.5 6t-109.5 19.5t-107.5 35.5t-93.5 55t-65.5 77t-24.5 101q0 69 26.5 129.5t70.5 110t103 88t124 65t132 40t129 13.5q58 0 118.5 -9t110 -34.5t81 -70t31.5 -116.5q0 -26 -4 -52t-12 -51h-195q17 23 33.5 53.5z" />
    <glyph glyph-name="D" unicode="D" horiz-adv-x="919" 
d="M226 737q59 0 132 -8.5t147 -27t144 -49.5t124 -75.5t87 -104.5t33 -137q0 -84 -37.5 -141.5t-99 -94.5t-139.5 -57.5t-159 -29.5t-157 -10.5t-134 -1.5h-120q3 6 5 30t3.5 57.5t2.5 72.5t1.5 73.5t0.5 61v36.5v44.5t-1 77t-2.5 92.5t-5 90.5t-8.5 70t-12 32.5zM211 89
q13 0 26 -0.5t26 -0.5q38 0 88.5 3t104.5 12t106 25t93 43t66.5 65.5t25.5 91.5q0 58 -22.5 104t-60 81.5t-87 60t-103 40.5t-107.5 23t-101 7q-13 0 -26 -0.5t-26 -1.5q-5 -81 -6 -161t-1 -161q0 -58 0.5 -115.5t3.5 -115.5z" />
    <glyph glyph-name="E" unicode="E" horiz-adv-x="798" 
d="M47 0q6 6 10 38.5t6.5 78.5t3 100t0.5 103t-0.5 86.5t-0.5 52.5v31t-0.5 49t-1.5 57.5t-3.5 56.5t-6.5 45.5t-10 26.5q-3 3 -6.5 6t-6.5 6l726 -2l-11 -111q-5 2 -24.5 3t-47.5 2t-60 1.5t-60.5 0.5h-50.5h-30q-128 0 -257 -3q-5 -50 -6 -99.5t-1 -100.5l460 5l-1 -107
q-4 1 -19.5 2.5t-36.5 2t-45.5 1t-46 0.5h-38.5h-23q-125 0 -251 -3q0 -45 -0.5 -89.5t-0.5 -89.5v-40q71 -3 141.5 -3h141.5h29h51t60.5 0.5t59.5 1t47.5 1.5t24.5 3l11 -111z" />
    <glyph glyph-name="F" unicode="F" horiz-adv-x="705" 
d="M721.5 627q-19.5 1 -47.5 2t-60 1.5t-60.5 0.5h-50.5h-30q-128 0 -257 -3q-5 -50 -6 -99.5t-1 -100.5l454 5l-1 -107q-6 2 -36.5 3.5t-65.5 2t-67 0.5h-41q-121 0 -244 -3q0 -45 -0.5 -89.5t-0.5 -89.5v-31t1 -47.5t4.5 -45.5t9.5 -26h-175q6 6 10 38.5t6.5 78.5t3 100
t0.5 103t-0.5 86.5t-0.5 52.5v31t-0.5 49t-1.5 57.5t-3.5 56.5t-6.5 45.5t-10 26.5q-3 3 -6.5 6t-6.5 6l726 -2l-11 -111q-5 2 -24.5 3z" />
    <glyph glyph-name="G" unicode="G" horiz-adv-x="1047" 
d="M759 125q0 26 -1 50.5t-4 50.5h-49q-12 0 -29.5 0.5t-36 0t-35.5 -1.5t-29 -4l15 104q22 -5 49 -5h50q12 -1 39.5 -1.5t62.5 -1t73.5 -0.5t72 0.5t58 1.5t31.5 4l1 -108q-22 5 -53 5.5t-54 1.5q-6 -38 -8 -78t-2 -79v-18q-43 -14 -90.5 -24.5t-97 -17t-98.5 -9.5t-94 -3
t-99.5 6t-110.5 20t-109 36.5t-94 55.5t-66 77.5t-25 102.5q0 70 26.5 130.5t71.5 110.5t104.5 89t125 65.5t133 40.5t129.5 14q59 0 120 -9.5t111 -35t82 -70.5t32 -117q0 -26 -4 -52.5t-12 -51.5h-197q18 23 34 53.5t16 62.5q0 35 -23.5 58t-57 36t-70 18t-63.5 5
q-66 0 -133.5 -24t-122 -67.5t-89.5 -103t-35 -130.5q0 -42 16 -74.5t42.5 -56t61.5 -39t72.5 -25t75.5 -13.5t72 -4q54 0 107.5 6.5t107.5 17.5z" />
    <glyph glyph-name="H" unicode="H" horiz-adv-x="866" 
d="M814 714q-8 -23 -13 -58t-7.5 -77.5t-3.5 -81.5t-1 -69v-41q0 -60 -0.5 -118.5t-0.5 -118.5v-31t1 -47.5t4.5 -45.5t9.5 -26h-175q6 5 9.5 29.5t5.5 58t3 72.5t1 74v61.5v35.5q-101 4 -201 5t-201 1h-37q0 -47 -0.5 -93t-0.5 -93v-31t1 -48t4.5 -46t9.5 -26h-175
q6 6 10 38.5t6.5 78.5t3 100t0.5 103t-0.5 86.5t-0.5 52.5q0 8 0.5 31.5t0 53.5t-2 63t-5.5 61t-11 47t-17 22h224q-12 0 -20 -20t-13 -51t-8 -68.5t-4 -71.5t-1 -60.5v-35.5q109 -2 218.5 -3t219.5 2v30q0 9 0.5 32t0 53t-2 63t-5.5 61t-11 47t-17 22h223q-13 0 -21 -23z
" />
    <glyph glyph-name="I" unicode="I" horiz-adv-x="285" 
d="M57 38.5q4 32.5 6.5 78.5t3 100t0.5 103t-0.5 86.5t-0.5 52.5q0 9 0.5 32t0 53t-2 63t-5.5 61t-11 47t-17 22h224q-13 0 -21.5 -23t-13.5 -58t-7.5 -77.5t-3.5 -81.5t-1 -69.5v-41.5q0 -59 -0.5 -117.5t-0.5 -118.5v-31t1 -47.5t4.5 -45.5t9.5 -26h-175q6 6 10 38.5z" />
    <glyph glyph-name="J" unicode="J" horiz-adv-x="687" 
d="M648.5 715.5q-2.5 -18.5 -3 -40t-0.5 -41.5v-26q0 -81 1 -162.5t1 -162.5q0 -86 -34.5 -143t-90.5 -90.5t-127 -47.5t-144 -14q-48 0 -100 9t-94.5 31.5t-70 61t-27.5 97.5q0 19 4 39t14 37l146 -24q-17 -29 -17 -62q0 -35 16.5 -58t42.5 -36.5t56.5 -19t59.5 -5.5
q103 0 156 48t53 153v123q0 7 0.5 35t0.5 66.5t-0.5 81.5t-2 80t-5 62.5t-8.5 29.5h181q-5 -3 -7.5 -21.5z" />
    <glyph glyph-name="K" unicode="K" horiz-adv-x="801" 
d="M387 424q9 -9 33 -31.5t57 -53t72 -67t79 -73.5t78 -71.5t69 -61.5t52 -43.5t26 -17.5l-202 -5q-8 11 -19 21.5t-21 21.5q-80 80 -161 157.5t-166 151.5l-76 -54q0 -37 -0.5 -74t-0.5 -74v-31t1 -47t4.5 -45.5t9.5 -26.5h-175q6 6 10 38.5t6.5 79t3 100t0.5 102
t-0.5 86.5t-0.5 53q0 9 0.5 32t0 53t-2 63t-5.5 61t-11 47t-17 22h224q-12 0 -20 -19.5t-13 -49.5t-8 -65.5t-4 -68.5t-1 -58.5v-34.5q14 8 48 31.5t77 54t90 65t86.5 64.5t66.5 52.5t31 29.5l236 -1q-21 -11 -47.5 -30t-46.5 -33q-92 -62 -182 -124t-181 -126z" />
    <glyph glyph-name="L" unicode="L" horiz-adv-x="731" 
d="M47 0q6 6 10 38.5t6.5 78.5t3 99.5t0.5 102.5t-0.5 87t-0.5 53q0 8 0.5 31.5t0 53.5t-2 63t-5.5 61t-11 47t-17 22h224q-13 0 -21.5 -23t-13.5 -58t-7.5 -77.5t-3.5 -81.5t-1 -69.5v-41.5q0 -69 -1.5 -138t0.5 -138q34 -2 63 -2.5t57 -0.5h57.5h63.5h28h48.5t58.5 0.5
t57.5 1t45.5 1.5t24 3l11 -111z" />
    <glyph glyph-name="M" unicode="M" horiz-adv-x="1235" 
d="M1015 17v18q0 62 -6.5 124t-14.5 123q-6 56 -13.5 116t-18.5 114q-51 -72 -95.5 -147t-89.5 -151l-51 -88q-8 -13 -15.5 -26.5t-16.5 -25.5q-21 -1 -42 -1h-42t-42.5 -0.5t-42.5 1.5q-8 12 -15.5 25.5t-15.5 27.5l-52 88q-45 75 -89.5 150t-95.5 147q-11 -54 -18 -114
t-14 -116q-8 -61 -14.5 -123t-6.5 -124v-18t5 -17h-183q6 6 12 30.5t11.5 58.5t10 73t8 74.5t6 62.5t3.5 37q7 78 15.5 158t8.5 158v19.5t-2 27t-6.5 24.5t-12.5 14h244q-5 -3 -5 -10q0 -18 18 -58t46 -91.5t62.5 -108t66.5 -108t58.5 -92.5t39.5 -60q12 19 38.5 60t59 92.5
t66.5 108.5t62 108t46 91t18 58q0 7 -4 10h244q-9 -3 -13.5 -14t-6.5 -24.5t-2 -27v-19.5q0 -78 8.5 -158t16.5 -158q1 -10 3 -37t5.5 -62.5t8 -74.5t10 -73t11.5 -58.5t13 -30.5h-183q4 5 4 17z" />
    <glyph glyph-name="N" unicode="N" horiz-adv-x="848" 
d="M796 714q-8 -23 -13.5 -58t-8 -77.5t-3 -81.5t-0.5 -69.5v-41.5q0 -59 -1 -117.5t-1 -118.5v-30.5t1 -47.5t4.5 -46t9.5 -26h-176q-13 15 -24.5 31.5t-23.5 32.5l-76 102q-64 86 -129 171t-134 168q-4 -33 -5 -66.5t-2 -66.5q-2 -51 -3 -102t-1 -102v-33.5t1 -53.5
t3.5 -52t7.5 -29h-175q6 6 10 38.5t6 78.5t3 99.5t1 102.5t-0.5 87t-0.5 53q0 9 0.5 32t0 53t-2 63t-5.5 61t-11 47t-17 22h242q-3 -1 -3 -8q0 -17 22.5 -59t58 -96.5t78 -115.5t82 -116t71 -97.5t45.5 -60.5q2 69 1.5 137.5t-0.5 137.5q0 9 0.5 32t0 53t-2 63t-5.5 61
t-11 47t-17 22h224q-13 0 -21 -23z" />
    <glyph glyph-name="O" unicode="O" horiz-adv-x="916" 
d="M458 743q82 0 160 -27t138.5 -77.5t97 -122t36.5 -160.5q0 -88 -38.5 -156t-100.5 -114.5t-140 -70.5t-157 -24q-86 0 -163.5 23.5t-136 70t-93.5 116t-35 162.5q0 92 36.5 163t96.5 119t138 73t161 25zM194 364q0 -56 19.5 -106t54.5 -87.5t82.5 -59.5t104.5 -22
q53 0 101.5 22.5t85 60t58.5 86t22 101.5q0 73 -21 126.5t-57 89t-84 53t-102 17.5q-56 0 -104 -23.5t-83.5 -62.5t-56 -89.5t-20.5 -105.5z" />
    <glyph glyph-name="P" unicode="P" horiz-adv-x="778" 
d="M798 518q0 -56 -33 -94.5t-86 -64t-119 -40t-131.5 -21.5t-124 -9t-96.5 -2q0 -35 -0.5 -68.5t-0.5 -68.5v-31t1 -46.5t4.5 -45.5t9.5 -27h-175q6 6 10 39t6.5 79t3 100t0.5 102.5t-0.5 86.5t-0.5 52q0 9 0.5 32t0 53t-2 63t-5.5 61t-11 47t-17 22h144q14 0 37.5 0.5
t37.5 -1.5q53 0 105 -2t105 -7q31 -3 68.5 -8t75 -14.5t72.5 -24.5t62 -37t43.5 -53t16.5 -72zM617 519q0 29 -21 48.5t-53.5 32t-73 19t-80 9t-72.5 2.5h-52h-48q-7 -61 -8 -122t-1 -122q40 0 79.5 1t79.5 4q29 2 72 7t82.5 18t67.5 37.5t28 65.5z" />
    <glyph glyph-name="Q" unicode="Q" horiz-adv-x="918" 
d="M798 150q9 -4 25.5 -12.5t34.5 -17t34.5 -15.5t25.5 -8l-108 -83q-9 7 -21.5 15t-26 15.5t-26.5 14.5t-23 13q-58 -38 -129.5 -59.5t-141.5 -21.5q-85 0 -160.5 24t-132.5 71t-90 116.5t-33 160.5q0 90 34.5 161t92.5 119.5t134.5 74t159.5 25.5q81 0 157 -27.5
t134.5 -78.5t93.5 -122.5t35 -158.5q0 -57 -16.5 -109t-52.5 -97zM444 89q38 0 75.5 14t68.5 36q-9 4 -25.5 12.5t-34.5 16.5t-34.5 15t-25.5 9l117 74q15 -14 38.5 -25.5t41.5 -21.5q20 32 29.5 67.5t9.5 72.5q0 52 -20 103t-54.5 91.5t-81.5 66t-102 25.5t-102 -24
t-81 -63.5t-53.5 -90t-19.5 -103.5q0 -55 18.5 -105t52 -87.5t80.5 -60t103 -22.5z" />
    <glyph glyph-name="R" unicode="R" horiz-adv-x="829" 
d="M521 292q9 -8 36 -33t62.5 -57t75 -67t74 -64.5t59.5 -49.5t32 -21h-207q-6 8 -17 19.5t-23 23t-23.5 22.5t-19.5 18q-49 48 -98.5 93.5t-101.5 90.5q-41 -5 -81 -6.5t-81 -3.5q-1 -27 -1 -53.5v-53.5v-31t1 -47t4.5 -45.5t9.5 -26.5h-175q6 6 10 38.5t6 78.5t3 99.5
t1 102.5t-0.5 87t-0.5 53q0 9 0.5 32t0 53t-2 63t-5.5 61t-11 47t-17 22h19.5h40h50h50t39.5 -0.5t19 -0.5q36 0 91.5 -1.5t118 -8.5t125.5 -20.5t113.5 -38.5t82.5 -62.5t32 -91.5q0 -52 -30 -89.5t-74.5 -63.5t-95 -42.5t-91.5 -25.5zM631 515q0 30 -25 50.5t-64.5 33
t-88 18.5t-94.5 8.5t-84.5 2.5h-58.5q-5 -56 -6.5 -111.5t-1.5 -111.5v-27l78 2t77 4q19 1 46 4t57 8.5t59.5 14.5t53 23t38 34t14.5 47z" />
    <glyph glyph-name="S" unicode="S" horiz-adv-x="908" 
d="M698 444.5q4 21.5 4 44.5q0 45 -16 74.5t-43.5 47t-63 24t-74.5 6.5q-24 0 -55 -3.5t-63.5 -11t-64.5 -19.5t-56.5 -30t-40 -42.5t-15.5 -55.5q0 -27 19.5 -46.5t50 -33.5t68.5 -23t75 -15.5t69 -10t51 -6.5q24 -4 58.5 -9.5t71.5 -14.5t73.5 -22t65.5 -31.5t47 -43
t18 -56.5q0 -34 -18.5 -60t-49 -45.5t-68 -32t-76 -20.5t-73.5 -11t-59 -3q-106 0 -210 17.5t-203 56.5q-10 4 -23 9.5t-27 11.5t-27 10t-23 5q6 6 18.5 17t25 24t23 24.5t12.5 17.5q88 -54 192.5 -80t207.5 -26q17 0 53.5 2.5t73 10.5t64 22.5t27.5 38.5q0 32 -28.5 51
t-75.5 31.5t-107 20t-122.5 16.5t-122.5 21.5t-107 34t-75.5 54.5t-28.5 83q0 53 21.5 94t58 72t83 52t97 34t100.5 19t92 6q70 0 133 -11t109.5 -40t74 -81t27.5 -134q0 -20 -1.5 -39t-3.5 -39h-152q5 22 9 43.5z" />
    <glyph glyph-name="T" unicode="T" horiz-adv-x="614" 
d="M699.5 637q-22.5 1 -54 1.5t-68 1t-69 0.5h-57h-32.5q-8 -75 -8.5 -150t-0.5 -150q0 -48 -1 -95t-1 -95v-30.5t1 -47.5t4.5 -46t9.5 -26h-175q7 6 10.5 38.5t6 78.5t3 100t0.5 103t-0.5 86.5t-0.5 52.5q0 45 -0.5 90t-3.5 90q-65 0 -129 -0.5t-129 -1.5q-10 0 -25.5 -0.5
t-32.5 -0.5t-32.5 -1t-24.5 -3l-3 104l840 5l-1 -107q-4 2 -26.5 3z" />
    <glyph glyph-name="U" unicode="U" horiz-adv-x="883" 
d="M439 97q37 0 79 9t77 29.5t58 52t23 76.5q0 72 2 143.5t2 143.5v39.5t-1 54.5t-3 53t-6 37h182q-9 -9 -13.5 -24.5t-6.5 -33t-2 -34v-28.5q0 -88 3 -173.5t3 -173.5q0 -50 -18 -89.5t-49 -69.5t-71.5 -51.5t-85 -35t-90 -19.5t-86.5 -6q-63 0 -131.5 14.5t-125.5 46.5
t-94.5 83.5t-37.5 126.5q0 88 3 173.5t3 172.5v29t-2 34.5t-6.5 33t-13.5 24.5h188q-4 -12 -6 -37t-3 -53t-1 -54.5v-39.5q0 -72 2 -143.5t2 -143.5q0 -45 21 -76.5t53.5 -51.5t72.5 -29.5t79 -9.5z" />
    <glyph glyph-name="V" unicode="V" horiz-adv-x="731" 
d="M874 737q-11 -6 -29 -30.5t-41 -61.5t-49.5 -82.5t-53.5 -94t-52.5 -97t-47.5 -90t-38.5 -73t-24.5 -47.5l-51 -99q-8 -16 -16 -31.5t-18 -30.5q-13 -2 -25 -1t-25 1h-121q-11 21 -32 62.5t-48.5 95t-60.5 115t-66.5 123.5t-66.5 120.5t-61.5 105t-50.5 77.5t-34 38
q55 0 110 -0.5t111 0.5q-3 -2 -3.5 -5.5t-0.5 -6.5q0 -21 17.5 -67t45.5 -105t62 -124t66 -124.5t58.5 -106.5t40.5 -70q13 23 40 70t59 106.5t66 124.5t61.5 124t45.5 105t18 67q0 3 -0.5 6.5t-3.5 5.5q55 -1 109.5 -0.5t109.5 0.5z" />
    <glyph glyph-name="W" unicode="W" horiz-adv-x="1101" 
d="M1235 738q-12 -7 -32 -38t-45 -77.5t-53.5 -105t-57.5 -120.5t-57 -124t-51.5 -115.5t-41 -95t-26.5 -62.5h-174q-34 103 -69.5 204t-73.5 203q-40 -101 -75.5 -202.5t-68.5 -204.5h-174q-9 21 -27 62.5t-41.5 95t-51 115t-56.5 123.5t-57.5 120.5t-53.5 105t-45 77.5
t-32 38q55 0 109.5 -0.5t109.5 0.5q-3 -2 -3.5 -6.5t-0.5 -7.5q0 -22 13.5 -65.5t35 -98t48 -115t52 -115.5t47 -99.5t33.5 -67.5q45 109 86.5 219t74.5 224q-5 11 -14 31t-19.5 40t-22.5 37.5t-23 24.5h221q-5 -4 -5.5 -9.5t-0.5 -10.5q0 -24 10.5 -67t26.5 -95t36.5 -109
t40.5 -110t37 -97t28 -69q11 23 32.5 66.5t46.5 98t51.5 114t48 113t35.5 96.5t14 64q0 4 -0.5 8.5t-4.5 6.5q110 -2 220 0z" />
    <glyph glyph-name="X" unicode="X" horiz-adv-x="828" 
d="M659 0q-23 23 -44 47.5t-43 48.5q-40 45 -79 88.5t-79 88.5q-40 -45 -79 -88.5t-79 -88.5q-22 -24 -43 -48.5t-43 -47.5h-221q6 1 26.5 19t48 44.5t58.5 58t58.5 60t47.5 50t27 28.5q27 29 53.5 58.5t52.5 59.5q-10 11 -38 41t-65 69.5t-78.5 82.5t-78.5 79t-65 60.5
t-38 26.5h234q19 -17 36 -37.5t34 -40.5q38 -44 76 -87t76 -88q38 45 76 88t76 87q17 20 34 40.5t36 37.5h234q-10 -2 -38 -26.5t-65 -60.5t-78.5 -79t-78.5 -82.5t-65 -69.5t-38 -41q26 -30 53 -59.5t54 -58.5q6 -7 26.5 -28.5t48 -50t58.5 -60t58 -58t47.5 -44.5t26.5 -19
h-220z" />
    <glyph glyph-name="Y" unicode="Y" horiz-adv-x="639" 
d="M833 737q-18 -10 -52 -44.5t-76 -82.5t-88 -104t-88 -108.5l-76 -95t-51 -64.5q-1 -21 -1 -42v-43v-32t1.5 -47.5t4.5 -46t10 -27.5h-183q5 5 8.5 23t5.5 42.5t2.5 52.5t1 53t0.5 44.5v27.5q-17 21 -51 63.5t-76.5 94t-88.5 107.5t-88 103.5t-76 82t-51 43.5
q60 0 118.5 -0.5t118.5 0.5q-4 -2 -4 -9q0 -15 17 -44t43 -65.5t58 -76.5t62 -76t55 -64t37 -41h5q12 13 36.5 41t55 64t62 76t58 76.5t43 65.5t16.5 44q0 6 -4 9q59 -1 117.5 -0.5t117.5 0.5z" />
    <glyph glyph-name="Z" unicode="Z" horiz-adv-x="808" 
d="M231 98h90q103 -1 203.5 0.5t203.5 3.5q14 0 28.5 0.5t28.5 2.5l3 -103l-756 -5v106q20 14 36.5 30t33.5 32q125 118 244.5 238t242.5 238l-72 1h-104q-94 0 -186.5 -1.5t-186.5 -3.5h-29t-29 -3l-2 103l818 6v-101z" />
    <glyph glyph-name="bracketleft" unicode="[" horiz-adv-x="371" 
d="M31 844q26 -1 52.5 -1.5t52.5 -0.5q18 0 48.5 0.5t64 2.5t64 5t47.5 9l-1 -122q-4 4 -20.5 6.5t-35.5 3.5t-36 1h-23q-13 0 -25 -0.5t-25 -0.5q-11 -88 -11.5 -177.5t-0.5 -178.5q0 -76 -1 -152t-1 -152v-49.5t1 -49.5h15q9 0 33.5 1t51.5 2.5t50 4.5t29 8l-1 -122
q-2 3 -19.5 5t-42.5 3t-54 2t-54.5 1.5t-44 0.5h-22.5h-37.5t-37.5 -1q6 8 10 49.5t6.5 100.5t3 128t0.5 132t-0.5 112.5t-0.5 69.5q0 10 0.5 39.5t0 68.5t-2 81.5t-5.5 79t-11 61.5t-17 29z" />
    <glyph glyph-name="backslash" unicode="\" horiz-adv-x="541" 
d="M541 0h-148q1 1 1 5q0 7 -7 25.5t-18 42.5t-24 51t-25.5 51t-22.5 43.5t-14 28.5l-22 46t-22 47q-7 14 -23 49t-37.5 79t-47 91.5t-49.5 86.5t-46 64.5t-36 26.5h197q-5 -1 -6 -5t-1 -9q0 -11 6.5 -30.5t16.5 -44.5t22.5 -52t24 -52t21.5 -45t15 -31q16 -33 31 -66
l30 -66q6 -14 19 -41.5t29.5 -62.5t35.5 -72.5t37.5 -70.5t34.5 -57t28 -32z" />
    <glyph glyph-name="bracketright" unicode="]" horiz-adv-x="371" 
d="M340 844q-11 -4 -17.5 -29t-10.5 -61.5t-5.5 -79t-2 -81.5t0 -68.5t0.5 -39.5q0 -20 -0.5 -69.5t-0.5 -112.5t0.5 -132t3 -128t6 -100.5t10.5 -49.5q-19 1 -37.5 1h-37.5h-22.5t-44 -0.5t-54.5 -1.5t-54 -2t-42.5 -3t-19.5 -5l-2 122q7 -5 30 -8t50 -4.5t51.5 -2.5
t33.5 -1h14q1 25 1.5 49.5t0.5 49.5q0 76 -1 152t-1 152q0 89 -1 178.5t-11 177.5q-13 0 -25.5 0.5t-24.5 0.5h-23.5t-36.5 -1t-35 -3.5t-20 -6.5l-2 122q17 -6 47.5 -9t64 -5t64 -2.5t48.5 -0.5q27 0 53.5 0.5t52.5 1.5z" />
    <glyph glyph-name="asciicircum" unicode="^" horiz-adv-x="580" 
d="M422 341q-1 7 -10.5 26t-23 44t-29 53t-30 54t-26.5 46.5t-17 29.5q-36 -61 -63.5 -124.5t-56.5 -128.5h-156q7 6 26.5 36t44 71.5t51.5 89t49.5 89t37 71.5t14.5 37q0 2 -1 2h118l-1 -2q0 -9 15 -40t37 -73.5t48.5 -89.5t51 -88t43.5 -70t26 -33h-148z" />
    <glyph glyph-name="underscore" unicode="_" horiz-adv-x="878" 
d="M0 93q12 -4 38 -5.5t55 -2t56 -0.5h42q142 0 281.5 2t280.5 7q13 0 29.5 0.5t34 1t33.5 2t28 4.5l-3 -123q-8 3 -41 5t-79.5 3t-100 2t-103 1h-88.5h-55q-152 0 -303 -3h-51.5t-50.5 -5z" />
    <glyph glyph-name="grave" unicode="`" 
d="M616 655l-40 -61l-271 103l61 94z" />
    <glyph glyph-name="a" unicode="a" horiz-adv-x="639" 
d="M418 -12q17 5 21 22.5t5 31.5q-45 -14 -91 -21t-92 -7q-30 0 -71.5 5t-79 19t-64 39t-26.5 66q0 35 25.5 60t65.5 41.5t90 25.5t98 14t90 6t66 2q0 14 0.5 27t0.5 27q0 25 -9 43.5t-24.5 30.5t-36.5 17.5t-44 5.5q-22 0 -47.5 -6t-48.5 -18t-40 -30.5t-21 -42.5l-126 17
q18 46 50 78t72.5 52t86.5 29.5t92 9.5q44 0 85.5 -11t74 -33.5t52 -57.5t19.5 -83q0 -51 -1.5 -101.5t-1.5 -101.5v-32.5t1.5 -49t4.5 -47t9 -27.5h-185zM156 143q0 -15 16 -23t37.5 -12.5t42.5 -5.5t30 -1q42 0 85 6t83 19q1 18 1.5 36t0.5 35l-26 1q-9 0 -32.5 -0.5
t-53.5 -2t-62.5 -5t-59.5 -9.5t-44.5 -15.5t-17.5 -22.5z" />
    <glyph glyph-name="b" unicode="b" horiz-adv-x="718" 
d="M408 503q54 0 106.5 -14.5t94.5 -43.5t68 -74t26 -105q0 -41 -17 -76.5t-45 -64.5t-62.5 -51t-68.5 -35q-71 -27 -146 -27q-42 0 -82.5 9t-77.5 30q1 -11 2 -25.5t6 -25.5h-176q5 8 9.5 47t8.5 94t7 119t5.5 123t3.5 106t1 68v38.5t-2 57.5t-6 55t-11 30l190 -1
q-7 -3 -12 -23t-9 -49.5t-6.5 -64.5t-4.5 -66.5t-3 -56.5t-1 -35q44 30 96 45.5t106 15.5zM363 112q35 0 69.5 10t62.5 30t45 49.5t17 68.5q0 36 -15.5 62.5t-40.5 44t-56.5 25.5t-63.5 8q-29 0 -60 -9t-57.5 -26t-43.5 -42t-18 -58v-39q0 -32 14.5 -55.5t38 -38.5t52 -22.5
t56.5 -7.5z" />
    <glyph glyph-name="c" unicode="c" horiz-adv-x="646" 
d="M472 316q13 19 13 38q0 18 -13 29.5t-31 17.5t-37.5 8.5t-32.5 2.5q-41 0 -77 -14.5t-63 -40t-42.5 -60.5t-15.5 -77q0 -39 16.5 -62t42 -34.5t57.5 -14.5t64 -3q49 0 102 8t100 22l27 -89q-48 -18 -107 -26.5t-111 -8.5q-31 0 -67.5 3.5t-73.5 12t-71.5 22.5t-61.5 36
t-43 52.5t-16 70.5q0 73 35.5 128.5t91 93t123 56.5t132.5 19q36 0 72 -5.5t65 -20.5t47 -42t18 -70q0 -22 -4 -43t-10 -42h-155q13 14 26 33z" />
    <glyph glyph-name="d" unicode="d" horiz-adv-x="729" 
d="M517 0q5 13 6.5 33.5t1.5 34.5q-42 -31 -94 -45.5t-104 -14.5q-50 0 -104 14.5t-99 43.5t-74.5 72.5t-29.5 101.5q0 62 33.5 108.5t84 77.5t110.5 46.5t113 15.5q42 0 83.5 -10t78.5 -33q-1 10 -1.5 34.5t-2 56t-4 65.5t-6.5 63.5t-9.5 49.5t-12.5 23l190 1
q-7 -5 -11 -28t-5.5 -51t-2 -53.5t-0.5 -35.5q0 -21 1 -69t3.5 -108.5t5.5 -126t6.5 -121.5t8.5 -96t10 -49h-176zM352 99q22 0 52.5 8.5t57.5 24.5t46 38t19 49q0 16 1 33t-1 32q-4 27 -20 47t-38.5 33t-48.5 19.5t-51 6.5q-34 0 -69.5 -9t-64.5 -28t-47.5 -48t-18.5 -69
q0 -37 17 -63t43 -42.5t58.5 -24t64.5 -7.5z" />
    <glyph glyph-name="e" unicode="e" horiz-adv-x="635" 
d="M339 -15q-49 0 -104 13t-101.5 40.5t-77 69.5t-30.5 100q0 71 28 127t75 94.5t109 59t130 20.5q54 0 96 -17.5t70 -49t42.5 -74.5t14.5 -95q0 -50 -15 -96h-417q10 -30 31.5 -49t49 -29.5t58 -14.5t57.5 -4q17 0 45.5 2.5t58.5 8t56.5 13.5t39.5 20l49 -86
q-66 -25 -130 -39t-135 -14zM339 415q-30 0 -59.5 -12t-53.5 -31.5t-42 -46t-26 -54.5h286q3 30 0.5 56.5t-13.5 46t-33 30.5t-59 11z" />
    <glyph glyph-name="f" unicode="f" horiz-adv-x="498" 
d="M477 841q48 0 89.5 -9.5t71.5 -32t47.5 -59t17.5 -89.5q0 -24 -3 -48t-8 -48q-2 -11 -5 -22.5t-3 -22.5v-3l-158 30q6 9 10 22t6.5 27.5t4 28.5t1.5 25q0 54 -25.5 86.5t-82.5 32.5q-44 0 -78 -21t-57.5 -54t-36 -74t-12.5 -80q0 -23 -0.5 -45.5t-0.5 -45.5q32 1 65 1.5
t66 2.5q17 1 37 2t37 6l-3 -101q-8 3 -36 5t-61 3t-63 1h-43v-100v-28.5t0.5 -47t1 -55.5t1.5 -54t3 -42.5t5 -21.5h-161q4 4 6 23.5t3 43t1 45v29.5q0 103 -3 207q-28 0 -57 0.5t-56 -5.5l-3 91q10 -3 25 -4.5t31.5 -2t32 -0.5h26.5q-1 15 -2 29.5t-1 28.5q0 77 29 147
q23 54 58 92t79 62t95.5 34.5t108.5 10.5z" />
    <glyph glyph-name="g" unicode="g" horiz-adv-x="689" 
d="M653 492q-5 -6 -8.5 -41.5t-6 -87t-4 -111t-2.5 -114t-1.5 -96t-0.5 -55.5q0 -90 -80 -142t-227 -57q-42 -2 -84 -1.5t-84 -0.5v112q15 -7 37 -11t46 -6.5t46.5 -3t38.5 -0.5q55 0 87.5 11t49.5 34.5t23 61t8 90.5q-41 -32 -92 -49t-102 -17t-100.5 15t-88.5 44.5
t-63.5 73t-24.5 99.5q0 55 30.5 101t77 78t102.5 50t106 18q41 0 80 -10t73 -33q-1 8 -1.5 24t-5.5 24h171zM321 98q25 0 53 8.5t52 24t40.5 38t19.5 50.5q2 12 2 25.5v26.5q0 29 -14 51t-36 37t-49 22.5t-52 7.5q-34 0 -67.5 -9.5t-60.5 -28.5t-44 -48t-17 -67
q0 -36 15 -62t40 -43t55.5 -25t62.5 -8z" />
    <glyph glyph-name="h" unicode="h" horiz-adv-x="694" 
d="M429 480q44 0 83 -12.5t68.5 -37.5t46.5 -61t17 -83q0 -11 -0.5 -34t-0.5 -51.5v-59.5t1 -58t3 -47t6 -26h-171q15 43 24 93t9 96q0 37 -7.5 70t-25 57.5t-46 38.5t-70.5 14q-44 0 -84.5 -22t-68.5 -55q-1 -32 -1 -64.5v-65.5v-20v-35t1 -42t2 -41t3 -32.5t5 -16.5h-177
q4 5 7.5 34t7 69.5t6.5 88t5 90t3.5 74.5t2.5 43q3 78 3 158v19.5t-0.5 34t-1.5 41t-3 40t-5.5 31.5t-8.5 15l191 -2q-5 0 -8 -8t-4 -11q-8 -26 -10.5 -54.5t-4.5 -55.5q-4 -43 -6 -85.5t-4 -85.5q45 32 102 45.5t111 13.5z" />
    <glyph glyph-name="i" unicode="i" horiz-adv-x="285" 
d="M67 468l176 -1q-5 -1 -7.5 -8.5t-4.5 -11.5q-7 -25 -10.5 -60.5t-5 -74t-2 -74.5t-0.5 -63v-36.5t1.5 -58.5t4.5 -56.5t9 -31.5h-177q5 7 10 33t8.5 62t6.5 77.5t5.5 79t3.5 67t1 40.5v24t-2 37.5t-6 36t-11 19.5zM154 710q13 0 29 -4t29.5 -11.5t22.5 -20t9 -28.5
t-9 -28t-22.5 -19.5t-29.5 -11.5t-29 -4q-14 0 -29.5 4t-29 11.5t-22.5 19.5t-9 28t9 28.5t22.5 20t29 11.5t29.5 4z" />
    <glyph glyph-name="j" unicode="j" horiz-adv-x="305" 
d="M259 646q0 -16 -9 -28t-22.5 -19.5t-29.5 -11.5t-29 -4q-14 0 -29.5 4t-29 11.5t-22.5 19.5t-9 28t9 28.5t22.5 20t29 11.5t29.5 4q13 0 29 -4t29.5 -11.5t22.5 -20t9 -28.5zM-72 -134q49 0 79.5 8t48.5 28t26 53t11 83q2 22 2 43.5t1 44.5q0 15 0.5 46.5t0 69.5t-1 78.5
t-1.5 75t-3 58t-5 27.5h172q-5 -5 -8.5 -40.5t-6.5 -87t-4.5 -111t-2.5 -114t-1.5 -96t-0.5 -56.5q0 -36 -14.5 -64t-39 -50t-56 -37.5t-65.5 -26t-68 -15.5t-63 -6q-42 -1 -84.5 -1t-84.5 -1v112q15 -6 37 -10.5t46 -6.5t47 -3t39 -1z" />
    <glyph glyph-name="k" unicode="k" horiz-adv-x="585" 
d="M342 254q54 -47 108.5 -92.5t109.5 -91.5q24 -20 49 -42t53 -36h-181q-3 5 -19 19.5t-38.5 32.5t-48.5 39t-50 40t-43.5 33.5t-28.5 21.5l-36 -31v-33.5t1 -46.5t3.5 -45t6.5 -28h-177q4 7 8 32t7 62t5.5 82.5t5 93.5t4 95.5t3 88t2 71.5t0.5 46v35.5t-2 53t-6 50.5
t-11 28l191 -1q-8 -5 -14 -35t-10.5 -73.5t-7.5 -95t-4.5 -98.5t-2.5 -84t-1 -51q59 49 119.5 97t116.5 101h175q-26 -14 -48.5 -35t-45.5 -39q-49 -42 -97 -82t-96 -82z" />
    <glyph glyph-name="l" unicode="l" horiz-adv-x="304" 
d="M71 39.5q5 40.5 8.5 97t6.5 122t5.5 124.5t3.5 104t1 61v36.5t-1.5 58.5t-5.5 56.5t-12 30.5l191 -2q-5 -1 -7.5 -12t-3.5 -15q-11 -50 -14 -101.5t-6 -102.5q-5 -85 -7.5 -168t-2.5 -168v-33.5t1 -53.5t3 -52.5t7 -30.5h-177q5 8 10 48.5z" />
    <glyph glyph-name="m" unicode="m" horiz-adv-x="1038" 
d="M802 0q10 18 16.5 51t10 69t5 70.5t1.5 55.5q0 26 -4.5 51.5t-15.5 45t-31 31.5t-51 12q-38 0 -72 -20t-60 -46q3 -23 3 -44q0 -45 -1 -89t-1 -89q0 -25 0.5 -49.5t4.5 -48.5h-175q10 18 16.5 51t10.5 69t5 70.5t1 55.5q0 26 -4.5 51.5t-15.5 45t-31 31.5t-51 12
q-40 0 -75.5 -22t-61.5 -51q-2 -46 -3 -92t-1 -93v-27.5t1 -43.5t3 -42.5t7 -23.5h-177q4 5 8 28.5t7 56t5 70t3.5 71.5t2 60t0.5 36q0 8 -0.5 33.5t-2.5 53t-6.5 50.5t-13.5 26l175 -1q-2 -11 -2 -23.5t-1 -24.5q37 27 82.5 44.5t92.5 17.5q50 0 94.5 -20.5t71.5 -64.5
q39 37 94.5 61t109.5 24q48 0 85 -15.5t62 -44t38 -67.5t13 -86q0 -45 -1.5 -89t-1.5 -89q0 -25 1 -49.5t5 -48.5h-175z" />
    <glyph glyph-name="n" unicode="n" horiz-adv-x="696" 
d="M645 308q0 -69 -6.5 -137t-6.5 -137q0 -23 3 -45h-175q10 16 15 53.5t7.5 80t3 82t0.5 60.5q0 61 -30 95.5t-93 34.5q-21 0 -40.5 -7.5t-37 -19.5t-33 -27t-27.5 -30q-3 -87 -3 -174v-27.5t1 -43.5t3 -42.5t7 -23.5h-177q4 6 8 29.5t7 56t5 69.5t3.5 71t2 60t0.5 36
q0 8 -0.5 33.5t-2.5 53t-6.5 50.5t-13.5 26l175 -1l-3 -48q37 27 82.5 44.5t92.5 17.5q46 0 89.5 -9.5t76.5 -32t53 -58.5t20 -90z" />
    <glyph glyph-name="o" unicode="o" horiz-adv-x="748" 
d="M374 482q55 0 116 -15.5t111 -47t83 -79.5t33 -113q0 -43 -16 -77.5t-42.5 -61t-61.5 -46t-73.5 -32t-78.5 -18.5t-75 -6q-57 0 -117 13t-109.5 42t-81 75.5t-31.5 114.5q0 67 32.5 114.5t82.5 78t110.5 44.5t117.5 14zM181 232q0 -39 17.5 -66t45 -44t61.5 -24.5
t67 -7.5q31 0 65 8t63 25t48 43.5t19 63.5t-18 64.5t-46 46t-62.5 27.5t-66.5 9q-33 0 -67 -8.5t-62 -26t-46 -45t-18 -65.5z" />
    <glyph glyph-name="p" unicode="p" horiz-adv-x="728" 
d="M408 503q54 0 106.5 -14.5t94.5 -44t68 -74.5t26 -105t-33 -107t-83.5 -79.5t-110 -49.5t-112.5 -17q-42 0 -83 9t-78 31q-1 -31 -1 -61.5v-61.5v-36.5t1 -53.5t3 -51.5t6 -29.5h-176q5 8 9.5 47t8.5 94.5t7 120t5.5 123.5t3.5 106.5t1 68.5v39t-2 58.5t-6 55.5t-11 30
l190 -2q-7 -7 -9.5 -20.5t-4.5 -23.5q41 23 86.5 35.5t93.5 12.5zM363 112q35 0 69.5 10t62.5 30t45 49.5t17 68.5q0 36 -15.5 62.5t-40.5 44t-56.5 25.5t-63.5 8q-52 0 -97.5 -22t-68.5 -70q-2 -29 -3.5 -57t-3.5 -57q8 -26 24 -44t36.5 -28.5t45 -15t49.5 -4.5z" />
    <glyph glyph-name="q" unicode="q" horiz-adv-x="729" 
d="M522 -247q4 5 6 29.5t3 54t1 55v33.5v71.5t-1 70.5q-42 -30 -95 -44.5t-104 -14.5q-50 0 -104 14.5t-99 43.5t-74 72.5t-29 101.5q0 45 24.5 89t69.5 79.5t107.5 57.5t138.5 22q36 0 71.5 -7.5t68.5 -23.5q0 3 -1 9t-3 12.5t-4.5 12.5t-5.5 8l191 2q-8 -3 -12 -29.5
t-6 -58t-2 -60v-36.5q0 -40 1 -79.5t3 -80.5q0 -10 1.5 -43t3.5 -76t5 -91t6.5 -89.5t7 -70.5t7.5 -34h-176zM358 99q53 0 99.5 24.5t68.5 75.5q-2 30 -3.5 59.5t-3.5 58.5q-21 40 -61 56t-84 16q-34 0 -69.5 -9t-64.5 -28t-47.5 -48t-18.5 -68q0 -37 17 -63t43.5 -42.5
t59 -24t64.5 -7.5z" />
    <glyph glyph-name="r" unicode="r" horiz-adv-x="442" 
d="M199 380q24 20 55.5 38t66 31.5t70 21.5t66.5 8v-86q-32 0 -71 -14t-76.5 -36t-67.5 -50t-44 -57q0 -7 0.5 -26t1 -44t1.5 -52.5t3 -51.5t4 -41t5 -21h-162q4 2 7 21.5t4.5 47.5t3 60.5t2 62.5t0.5 52v29v38t-1 61t-3 59.5t-6 33.5h148q-2 -6 -3 -17.5t-2 -24.5t-1.5 -25
t-0.5 -18z" />
    <glyph glyph-name="s" unicode="s" horiz-adv-x="640" 
d="M462 330.5q4 18.5 4 37.5q0 42 -22.5 62.5t-64.5 20.5q-24 0 -56.5 -5.5t-61.5 -18.5t-49.5 -34t-20.5 -52q0 -23 22.5 -38.5t52.5 -25t60.5 -14.5t46.5 -8q25 -5 63.5 -12.5t74.5 -22t62 -36t26 -54.5q0 -37 -29 -62t-69.5 -40t-84.5 -21.5t-73 -6.5q-60 0 -119 8.5
t-116 28.5q-7 3 -23 9.5t-33.5 14t-32.5 13.5t-19 6q2 1 14 12t25.5 24.5t24.5 25.5t12 15q51 -38 113.5 -56t125.5 -18q7 0 27 1.5t41.5 5.5t38.5 11t17 18q0 16 -28 26t-70.5 19t-91.5 20t-91.5 28.5t-70.5 43.5t-28 67q0 60 32.5 102.5t81.5 69t106 38.5t107 12
q41 0 79 -6.5t67 -23.5t46.5 -47t17.5 -78q0 -24 -3.5 -48t-8.5 -47h-132q6 17 10 35.5z" />
    <glyph glyph-name="t" unicode="t" horiz-adv-x="471" 
d="M282 258.5q-2 -51.5 -2 -102.5q0 -17 7 -29t18.5 -19.5t26 -10.5t29.5 -3q19 0 37.5 3t36.5 8l-16 -107q-58 0 -109 3.5t-89 21.5t-60 57.5t-22 111.5q0 42 2.5 84.5t6.5 84.5l-148 -1l7 98q36 -3 73 -3.5t74 -0.5q2 29 3 56.5t1 56.5v24t-2 37.5t-6 35.5t-11 19l184 -3
q-4 0 -6 -6t-4 -9q-6 -19 -9.5 -46t-6 -56.5t-4 -57t-2.5 -48.5q34 2 69 3.5t69 9.5v-108l-143 -1q-2 -51 -4 -102.5z" />
    <glyph glyph-name="u" unicode="u" horiz-adv-x="686" 
d="M637.5 457q-3.5 -23 -6.5 -54.5t-5 -68.5t-3.5 -70.5t-2 -60t-0.5 -38.5v-35.5t2.5 -52.5t7 -49t13.5 -26l-176 1l4 48q-38 -27 -83 -44.5t-92 -17.5t-90.5 11.5t-76.5 35.5t-53 61.5t-20 90.5q0 67 6.5 133t6.5 133q0 11 -0.5 22t-2.5 22h169q-10 -17 -15 -54t-7.5 -79
t-3 -81.5t-0.5 -61.5q0 -38 6 -63t20.5 -40t39.5 -21t63 -6q21 0 40.5 7.5t37.5 19.5t33 27t27 30q2 44 3 87t1 87v29.5t-1 42.5t-3.5 40.5t-6.5 24.5h176q-4 -7 -7.5 -30z" />
    <glyph glyph-name="v" unicode="v" horiz-adv-x="572" 
d="M574 443.5q-21 -36.5 -48 -88t-55.5 -110.5t-52.5 -111.5t-39.5 -91t-15.5 -48.5l1 -2h-128v2q-1 11 -16.5 49t-39.5 89.5t-53 110t-55.5 109.5t-47.5 88.5t-29 47.5h169q31 -81 61 -160.5t70 -155.5l102 210q12 26 25 52t20 54h161q-8 -8 -29 -44.5z" />
    <glyph glyph-name="w" unicode="w" horiz-adv-x="811" 
d="M838.5 461q-12.5 -22 -29.5 -55t-36.5 -74.5t-39.5 -84.5t-38.5 -85t-32.5 -76.5t-22.5 -59t-8.5 -31.5v-3h-128q2 3 -2 17.5t-11.5 34t-17 42t-18.5 43t-16.5 36t-10.5 21.5q-5 -11 -18 -39.5t-26.5 -59.5t-24 -57.5t-10.5 -35.5v-2h-128q1 1 1 2q0 9 -15.5 46.5
t-39.5 89.5t-53.5 111t-56 111t-47.5 89.5t-29 46.5h168q32 -81 61.5 -160t69.5 -156q20 41 39.5 81t39.5 81q-6 13 -16.5 35t-22.5 45.5t-23.5 43.5t-19.5 30h168q10 -25 17.5 -50t15.5 -50q18 -55 38.5 -108.5t46.5 -105.5q26 58 51.5 115.5t51.5 116.5l18 40t14 42h160
q-6 -5 -18.5 -27z" />
    <glyph glyph-name="x" unicode="x" horiz-adv-x="623" 
d="M639 474q-22 -16 -49.5 -41t-59 -54.5t-59 -57l-48.5 -48.5l-29 -29q7 -8 28.5 -29t49.5 -48.5t60 -58t60 -56t49 -42.5t28 -18h-208q1 4 -7.5 17.5t-23 31t-32 38t-34 38t-29 31t-16.5 17.5q-4 -4 -16 -17t-28 -30.5t-33.5 -37t-32 -37t-23.5 -31t-9 -17.5v-3h-208
q7 1 28 18t49 42.5t60 56t60 58t49.5 48.5t28.5 29l-29 29l-48.5 48.5t-59 57t-59 54.5t-49.5 41t-30 17h205l-1 -1q1 -6 10.5 -19.5t24.5 -30.5t32 -36t33 -36t28.5 -30t17.5 -18q4 4 16.5 17t29 30.5t34 37t32.5 37t24.5 30.5t9.5 18l-1 1h205q-8 -1 -30 -17z" />
    <glyph glyph-name="y" unicode="y" horiz-adv-x="666" 
d="M614 474q-2 -22 -3 -47.5t-1 -49v-32.5q0 -82 1 -163.5t1 -162.5q0 -62 -27.5 -108.5t-71.5 -77t-99 -45.5t-110 -15q-61 0 -121.5 1t-120.5 2l10 116q15 -6 42.5 -11.5t57.5 -9t58 -5.5t46 -2q47 0 84 8t63 27.5t40 53.5t14 85q0 9 -0.5 18.5t-1.5 18.5q-40 -29 -88 -43
t-97 -14q-72 0 -119.5 22.5t-75.5 62t-39.5 94t-11.5 118.5q0 31 2 62t2 62q0 14 -1.5 30.5t-10.5 27.5l182 -1q-8 -13 -14.5 -38t-10.5 -53t-6 -54.5t-2 -42.5q0 -40 5.5 -74t21.5 -59.5t43.5 -40t71.5 -14.5q18 0 41 3t44 11.5t37 22.5t19 36q3 18 3 36.5v35.5
q0 15 -1.5 50.5t-4.5 73t-8.5 70t-13.5 41.5l177 2q-4 -6 -6 -28z" />
    <glyph glyph-name="z" unicode="z" horiz-adv-x="625" 
d="M607 386q-20 -8 -50.5 -29t-66 -49.5t-73.5 -61.5t-72.5 -64.5t-63 -59t-44.5 -44.5q123 -3 245 -3h29.5t36 0.5t35 2t27.5 4.5l-4 -91q-22 5 -44.5 4.5t-45.5 0.5q-44 1 -87 1h-86h-36h-56t-65 -0.5t-63.5 -1.5t-51 -3t-27.5 -4l-3 101l6 -1l-2 1q11 4 38 24t61.5 49
t74 63.5t75 66.5t63.5 58.5t41 40.5h-90q-44 0 -87 -0.5t-86 -1.5h-46t-45 -5l-3 91q10 -3 27 -4t35.5 -1.5t36 -0.5h28.5q89 0 177 1.5t176 5.5q22 1 45 1t44 5z" />
    <glyph glyph-name="braceleft" unicode="{" horiz-adv-x="456" 
d="M295 -13q10 0 32.5 1t46.5 2.5t45 4.5t27 8l-2 -123q-5 4 -33.5 6.5t-63.5 4t-67 1.5h-43q-44 0 -67 30t-23 71q0 62 2 122.5t2 122.5q-8 5 -28.5 19t-43.5 29t-43 27t-25 12h-1v90q4 -1 24.5 10.5t44.5 26.5t45 29t28 18q-1 54 -1.5 108t-3.5 108v16q0 23 4.5 43
t15.5 35t28.5 23.5t43.5 8.5q21 0 48.5 0.5t56.5 2t56 5t46 9.5l-2 -123q-5 4 -22.5 6.5t-39 4t-41.5 1.5h-29q-20 0 -26 -7.5t-9 -26.5q-4 -21 -4 -42t-1 -41q-2 -43 -3.5 -85.5t-3.5 -84.5q-7 -2 -25.5 -13.5t-40.5 -25.5t-41.5 -27l-28.5 -19q32 -23 66.5 -40t69.5 -35
v-120t1 -120q0 -10 -1 -21.5t1 -20.5t10.5 -20t18.5 -11z" />
    <glyph glyph-name="bar" unicode="|" horiz-adv-x="259" 
d="M55.5 28q3.5 23 6 54.5t3.5 68t1.5 70t0.5 59.5v36q0 36 -0.5 71.5t-0.5 71.5q0 10 0.5 34t0 54t-2.5 62.5t-6 60t-10.5 46t-16.5 21.5h197q-12 0 -20 -20t-13 -51.5t-8 -69t-4 -72t-1 -62v-37.5q0 -73 -1 -145.5t-1 -145.5v-29t1.5 -41.5t4.5 -40t9 -23.5h-148
q5 5 8.5 28z" />
    <glyph glyph-name="braceright" unicode="}" horiz-adv-x="456" 
d="M161 -13q11 0 19 11t10 20v7v13.5t0.5 13.5t0.5 8v161v79q35 18 69.5 35t67.5 40q-7 4 -27.5 17.5t-43.5 28t-42.5 26.5t-23.5 13q-2 42 -3.5 84.5t-3.5 85.5q-1 20 -1.5 41t-2.5 42q-2 15 -6.5 22t-11.5 9.5t-16.5 2t-21.5 -0.5h-23t-35.5 -1t-34.5 -3.5t-19 -6.5
l-2 123q18 -6 46 -9.5t58 -5t58.5 -2t48.5 -0.5q25 0 41.5 -9t27 -24t15 -35t4.5 -42v-16q-3 -54 -3.5 -108t-0.5 -108q27 -17 54 -35t56 -35q1 -1 5.5 -3.5t10 -5.5t10 -4.5t5.5 -0.5v-90h-1q-5 0 -25 -12t-43.5 -27.5t-44.5 -29.5l-27 -18q0 -59 1 -117t3 -118v-7
q1 -42 -21.5 -73t-68.5 -31h-22.5t-38.5 -0.5t-47 -1t-46 -2t-36 -3.5t-17 -5l-2 123q6 -5 27.5 -8t46 -4.5t47 -2.5t30.5 -1z" />
    <glyph glyph-name="asciitilde" unicode="~" horiz-adv-x="492" 
d="M471 396l-5 -113q-30 -14 -68 -22.5t-72 -8.5q-29 0 -52 7.5t-43.5 17t-40.5 17t-43 7.5q-16 0 -33 -6t-34 -15t-32 -20.5t-26 -22.5l-2 113q26 21 63.5 32.5t70.5 11.5q29 0 53.5 -7.5t46 -17t40 -17t36.5 -7.5q16 0 35 4.5t38 12t36.5 16.5t31.5 18z" />
    <glyph glyph-name="uni00A0" unicode="&#xa0;" horiz-adv-x="358" 
 />
    <glyph glyph-name="exclamdown" unicode="&#xa1;" horiz-adv-x="278" 
d="M71 687q0 14 9 23.5t21.5 15.5t27 9t25.5 3t25.5 -3t27 -9t21.5 -15.5t9 -23.5t-9 -23.5t-21.5 -15.5t-27 -8.5t-25.5 -2.5t-25.5 2.5t-27 8.5t-21.5 15.5t-9 23.5zM231 570q-5 -7 -9 -38.5t-7.5 -76.5t-6.5 -96.5t-5 -98.5t-3 -83t-1 -48v-29t1.5 -46.5t5.5 -45
t11 -23.5l-176 1q5 1 7 10t3 12q10 44 16 99.5t8 113t2.5 113.5t0.5 101v27t-1 42.5t-2.5 41.5t-5.5 24h162z" />
    <glyph glyph-name="cent" unicode="&#xa2;" horiz-adv-x="623" 
d="M456.5 444q13.5 17 13.5 34q0 16 -14 26t-32.5 15.5t-38 7.5t-31.5 2q-37 0 -72.5 -11.5t-64 -33t-46 -52.5t-17.5 -71q0 -36 18.5 -56.5t46 -30t59.5 -11.5t59 -2q52 0 103 6t101 20l27 -78q-44 -14 -90 -21t-92 -9q0 -8 0.5 -24.5t2 -34t4.5 -32.5t8 -20h-179
q6 7 9 24.5t5 36t4.5 34.5t5.5 21q-35 4 -76 14.5t-76.5 30t-59.5 49t-24 72.5q0 49 22.5 89.5t58.5 71.5t80 52t86 32q0 7 -0.5 22t-2 30.5t-5.5 28.5t-11 16l178 -2q-6 -1 -10 -11.5t-6.5 -23.5t-4 -25.5t-2.5 -18.5q31 1 67.5 -2.5t68 -16.5t52.5 -37t21 -64
q0 -20 -4 -38.5t-10 -36.5h-157q12 11 25.5 28z" />
    <glyph glyph-name="sterling" unicode="&#xa3;" horiz-adv-x="695" 
d="M521 415q3 11 5 22.5t2 23.5q0 32 -15 55t-39 37.5t-53 21.5t-57 7q-25 0 -53 -5.5t-52 -18t-40 -33t-16 -51.5q0 -32 17 -63.5t33 -57.5q9 0 31 0.5t49.5 1t58 1.5t57.5 2.5t46.5 3.5t26.5 4l-3 -105q-4 2 -21.5 3.5t-42.5 3t-53.5 2t-54.5 1t-45.5 0.5h-26.5
q-7 -11 -18.5 -23t-23.5 -24t-21 -24t-11 -24h58h132.5t132.5 2h26h33t33 0.5t25 2.5l2 -75l-579 -4v36q0 25 11.5 43t28 33t35 28t33.5 28h-29t-41.5 -0.5t-40.5 -2t-27 -3.5l-3 95q7 -2 21.5 -3.5t31 -2.5t31.5 -1h23q-10 13 -21 28t-20 31.5t-14.5 33.5t-5.5 34
q0 35 17.5 62.5t44.5 47.5t59.5 33.5t61.5 20.5q29 8 59 11t60 3q36 0 74 -5.5t72.5 -18.5t64 -35.5t49.5 -55.5q25 -41 25 -87q0 -21 -6 -40h-137z" />
    <glyph glyph-name="currency" unicode="&#xa4;" horiz-adv-x="564" 
d="M483 349q0 -26 -12.5 -45.5t-32.5 -33.5q5 -4 22 -18t36 -29t36 -27t22 -12h-162q1 2 -4.5 9.5t-13 16t-14.5 15.5l-9 9q-17 -4 -35 -5.5t-36 -1.5q-35 0 -68 6l-8.5 -8.5t-13.5 -14.5t-12.5 -15t-5.5 -10v-1h-162q5 0 22 12t35.5 27t35.5 28.5t22 17.5
q-20 15 -31.5 35.5t-11.5 46.5q0 27 12.5 48t33.5 37q-6 4 -22.5 18t-35.5 28.5t-36 26t-24 11.5h159q-2 -2 2 -6.5t5 -6.5q8 -10 17.5 -19t18.5 -18q37 8 70 8q35 0 70 -9q2 2 9.5 9t15 15t13.5 15.5t6 10.5q0 1 -1 1h159q-6 0 -23.5 -11.5t-37 -26.5t-36.5 -29t-23 -19
q22 -15 35.5 -36.5t13.5 -48.5zM165 351q0 -21 12 -35.5t29.5 -22.5t37.5 -11.5t37 -3.5q16 0 36.5 3.5t39 12t31 22.5t12.5 34q0 21 -12.5 35.5t-30.5 23.5t-38.5 13t-36.5 4q-17 0 -37.5 -3.5t-38 -12.5t-29.5 -23.5t-12 -35.5z" />
    <glyph glyph-name="yen" unicode="&#xa5;" horiz-adv-x="726" 
d="M702.5 617q-21.5 -21 -47 -50t-54 -62.5t-54 -65t-46.5 -58t-32 -40.5q28 1 55.5 2t55.5 2q16 1 32 1t31 4l-3 -88q-8 3 -39 4t-68 2t-70.5 1.5t-46.5 0.5l-1 -47q38 1 76.5 1.5t76.5 2.5q18 1 37.5 1t37.5 5l-3 -89q-5 2 -21.5 3.5t-38 2.5t-46.5 1t-48.5 0.5t-42 0.5
h-27.5q1 -11 2 -29t9 -26h-130q6 8 8 26t3 29q-38 0 -75 -0.5t-75 -1.5h-33.5t-33.5 -4l-3 81q12 -3 27 -4.5t31 -2t32 0t28 0.5h104l1 49q-38 0 -76 -0.5t-76 -1.5q-17 -1 -34 -0.5t-34 -3.5l-3 80q12 -3 27 -4.5t31 -1.5h31.5h27.5h57q-12 14 -33.5 41t-47.5 58.5
t-54.5 65.5t-55 63.5t-48 50.5t-33.5 28h163q-3 -1 -3 -7q0 -12 13 -34.5t33.5 -51t45.5 -60t49 -60t43.5 -51t29.5 -33.5q10 11 30 33.5t43.5 51t48.5 59.5t45.5 59.5t33.5 51.5t13 35q0 5 -3 7h162q-13 -7 -34.5 -28z" />
    <glyph glyph-name="brokenbar" unicode="&#xa6;" horiz-adv-x="219" 
d="M50 428q2 27 3 54.5t1 54.5q0 13 -0.5 42t-2.5 60.5t-5.5 59t-9.5 38.5l152 -3q-7 -8 -11.5 -36.5t-6.5 -61.5t-3 -62.5t-1 -41.5q0 -26 1 -51t3 -51zM31 0q7 12 11 37t5.5 53t2 54t0.5 40q0 64 -3 129l122 2q-3 -59 -3 -116q0 -15 0.5 -42.5t2.5 -57t6 -56t10 -40.5z
" />
    <glyph glyph-name="section" unicode="&#xa7;" horiz-adv-x="773" 
d="M590 262q24 -5 51 -13.5t49.5 -22t37.5 -34.5t15 -51q0 -44 -19.5 -78.5t-51.5 -59.5t-73 -42.5t-85 -28.5t-86.5 -15.5t-77.5 -4.5q-50 0 -100 6.5t-90 27t-64.5 58.5t-24.5 100q0 20 2.5 40.5t5.5 40.5h128q-6 -20 -10 -39.5t-4 -39.5q0 -35 14 -56.5t37 -33.5
t51 -16.5t57 -4.5t72.5 6t84 21t69.5 40.5t29 64.5q0 20 -16.5 35t-42.5 25.5t-57.5 18t-62 12.5t-56.5 8t-40 5q-19 3 -46.5 7t-58 11t-60.5 17t-54 24t-39 33.5t-15 44.5q0 22 12.5 40.5t31 33t40.5 24.5t40 16q-24 6 -51 14t-49.5 22t-37 35t-14.5 51q0 44 19.5 78.5
t51 59.5t73 42.5t85 28.5t86 15.5t77.5 4.5q51 0 100.5 -6.5t89.5 -27t64.5 -58.5t24.5 -100q0 -20 -2 -40.5t-5 -40.5h-129q7 19 11 39t4 40q0 35 -14.5 56.5t-37 33.5t-51 16.5t-56.5 4.5q-29 0 -73 -6t-84.5 -21.5t-69.5 -41t-29 -64.5q0 -20 16.5 -34.5t42.5 -25.5
t57.5 -18t62.5 -12t57 -8t40 -5l64 -10t64 -13q20 -5 45 -14t47.5 -23t37.5 -33t15 -44q0 -23 -12.5 -41t-31.5 -32.5t-41 -25t-40 -16.5zM579 368q0 25 -24.5 39t-56.5 21t-65 8.5t-49 1.5q-15 0 -46.5 -2t-63.5 -8t-56 -18t-24 -33q0 -17 11.5 -28.5t29.5 -19.5t40 -12.5
t44 -7t40.5 -3t29.5 -0.5q15 0 46.5 2t63.5 8.5t56 18.5t24 33z" />
    <glyph glyph-name="dieresis" unicode="&#xa8;" 
d="M421 692q0 -14 -9 -23.5t-21.5 -15.5t-27 -9t-25.5 -3t-25.5 3t-27 9t-21.5 15.5t-9 23.5t9 23.5t21.5 15.5t27 9t25.5 3t25.5 -3t27 -9t21.5 -15.5t9 -23.5zM583 743q11 0 25.5 -3t27 -9t21.5 -15.5t9 -23.5t-9 -23.5t-21.5 -15.5t-27 -9t-25.5 -3t-25 3t-26.5 9
t-21.5 15.5t-9 23.5t9 23.5t21.5 15.5t26.5 9t25 3z" />
    <glyph glyph-name="copyright" unicode="&#xa9;" horiz-adv-x="867" 
d="M436 739q44 0 92 -8t94.5 -24.5t88 -41.5t73 -59t50 -76.5t18.5 -94.5q0 -49 -20 -89.5t-53 -72t-76 -55t-89.5 -39t-93.5 -23t-88 -7.5q-65 0 -138.5 16t-135.5 51t-102.5 90.5t-40.5 134.5t41 135.5t103.5 92.5t136.5 53t140 17zM134 442q0 -58 28.5 -99t72.5 -67
t96.5 -38t101.5 -12q46 0 98.5 12.5t97.5 39t74.5 66.5t29.5 94q0 52 -23 93.5t-62.5 70t-94 44t-117.5 15.5q-48 0 -101.5 -13t-98 -40t-73.5 -68t-29 -98zM507 467q8 8 18 19.5t10 24.5q0 11 -9.5 18t-23 11t-27.5 5.5t-22 1.5q-26 0 -52 -8t-46 -23t-32.5 -37.5
t-12.5 -51.5q0 -15 5.5 -28.5t18.5 -22.5q20 -12 51.5 -16t54.5 -4q36 0 73 4.5t72 14.5l19 -55q-36 -12 -77 -17t-79 -5q-29 0 -69.5 4.5t-78.5 17.5t-64.5 37t-26.5 63q0 43 25 77q20 30 48.5 50.5t62 33t69 18.5t69.5 6q22 0 47.5 -3t47 -12t36 -26t14.5 -45
q0 -14 -2.5 -26.5t-7.5 -25.5h-111z" />
    <glyph glyph-name="ordfeminine" unicode="&#xaa;" horiz-adv-x="529" 
d="M499 252h-148l-1 11l-1 -1q2 5 3.5 15t2.5 12q-71 -18 -146 -18q-22 0 -55.5 3.5t-65.5 13.5t-55 28.5t-23 49.5q0 26 22 44.5t56 30.5t75 18.5t80.5 9.5t72 4t48.5 1q0 9 0.5 18t0.5 17q0 19 -8 31.5t-21 20t-28.5 10.5t-31.5 3t-36.5 -3.5t-39 -12t-32.5 -21.5t-17 -31
l-111 12q16 36 43.5 60.5t61 39.5t71 21t74.5 6q31 0 65 -7t62.5 -23t46.5 -42t18 -63q0 -38 -1 -74.5t-1 -74.5v-19.5t0.5 -31t1.5 -30.5t4 -18zM343 401h-22.5t-41.5 -1.5t-50.5 -3.5t-49 -6t-37 -10t-14.5 -14q0 -9 13.5 -14.5t30.5 -8.5t33 -3.5t21 -0.5q34 0 68 4
t66 13q1 11 1 22.5t1 22.5h-19z" />
    <glyph glyph-name="guillemotleft" unicode="&#xab;" horiz-adv-x="451" 
d="M420 287q-5 -2 -24.5 -16.5t-42 -32t-42.5 -33.5t-27 -22q32 -27 66.5 -48.5t69.5 -43.5v-119q-3 5 -19 20t-38.5 33.5t-47.5 39t-47.5 38t-38.5 28.5t-20 11h-2v90q2 -2 8 1.5t8 4.5q7 5 24 17t38 28t43.5 34t42 34.5t33 29.5t16.5 19v-113zM224 287q-6 -2 -25 -16.5
t-41.5 -32t-42.5 -33.5t-27 -22q32 -27 66.5 -48.5t69.5 -43.5v-119q-4 5 -20 20t-38 33.5t-47.5 39t-47.5 38t-38.5 28.5t-19.5 11h-3v90q3 -2 8.5 1.5t7.5 4.5q7 5 24 17t38 28t44 34t42.5 34.5t33 29.5t16.5 19v-113z" />
    <glyph glyph-name="logicalnot" unicode="&#xac;" horiz-adv-x="706" 
d="M662 378q-2 -33 -3.5 -65.5t-1.5 -65.5q0 -15 0.5 -37t2.5 -45t5.5 -44.5t9.5 -35.5l-144 -3q7 12 11 33.5t5.5 45.5t2 46.5t0.5 36.5v17q-60 4 -120 6t-120 2q-72 0 -143.5 -3t-143.5 -10l-3 117q5 -3 21 -4.5t37 -2.5t44.5 -1.5t45 -0.5h38.5h24q12 0 47 0.5t81 1
t96.5 1.5t94.5 2.5t75 3.5t38 5z" />
    <glyph glyph-name="sfthyphen" unicode="&#xad;" horiz-adv-x="510" 
d="M20 369q7 -3 25.5 -4.5t39.5 -2t39.5 -0.5h27.5q11 0 38.5 0.5t62.5 1t73.5 2t72.5 3t58.5 4t31.5 5.5l-3 -123q-4 3 -22 5t-42.5 3t-53.5 1.5t-54.5 1t-45.5 0.5h-27h-45t-67 -0.5t-65.5 -2.5t-40.5 -5z" />
    <glyph glyph-name="registered" unicode="&#xae;" horiz-adv-x="867" 
d="M436 739q44 0 92 -8t94.5 -24.5t88 -41.5t73 -59t50 -76.5t18.5 -94.5q0 -49 -20 -89.5t-53 -72t-76 -55t-89.5 -39t-93.5 -23t-88 -7.5q-65 0 -138.5 16t-135.5 51t-102.5 90.5t-40.5 134.5t41 135.5t103.5 92.5t136.5 53t140 17zM134 442q0 -58 28.5 -99t72.5 -67
t96.5 -38t101.5 -12q46 0 98.5 12.5t97.5 39t74.5 66.5t29.5 94q0 55 -28.5 97t-72.5 70t-96 42t-100 14t-101.5 -13t-98 -39.5t-73.5 -68t-29 -98.5zM671 310h-130q-34 26 -67.5 51t-69.5 48q-12 -1 -24.5 -1.5t-24.5 -1.5l-1 -32q0 -18 3 -32t12 -30h-123l9 22
q4 10 7 27.5t4.5 37t2 38t0.5 30.5t-0.5 30t-2 37t-5 36t-8.5 28q17 0 34.5 0.5t35.5 0.5q11 0 22 -0.5t22 -1.5q15 0 41 -0.5t55 -3t59 -7.5t54 -15t39 -25t15 -38q0 -21 -14 -36t-34.5 -25t-42.5 -16t-38 -9q42 -29 84.5 -57t85.5 -55zM358 541q-2 -18 -2.5 -36.5
t-0.5 -37.5q11 0 39 0.5t57.5 4t52 12t22.5 24.5q0 12 -20 19t-46 10t-50.5 3.5t-33.5 0.5h-18z" />
    <glyph glyph-name="macron" unicode="&#xaf;" 
d="M307 747q4 -3 16 -4.5t25.5 -2.5t26 -1h18.5q7 0 25 0.5t41.5 1.5t49 2t47.5 3t38 4.5t21 5.5l-2 -107q-4 4 -27 6t-50.5 3t-52.5 1.5t-32 0.5q-8 0 -29 -0.5t-44 -1t-43.5 -2.5t-26.5 -5z" />
    <glyph glyph-name="degree" unicode="&#xb0;" horiz-adv-x="333" 
d="M167 787q21 0 46 -5t47.5 -16.5t37.5 -29.5t15 -44q0 -25 -16 -42t-38.5 -27.5t-48.5 -15t-45 -4.5q-21 0 -46.5 4t-47 14.5t-36.5 28t-15 44.5q0 26 15 44t37.5 29t48 15.5t46.5 4.5zM103 694q0 -12 6 -20t15.5 -13t20.5 -7t21 -2q9 0 20 2t21 7t16.5 13t6.5 20t-6.5 20
t-16 13t-20.5 7.5t-20 2.5q-10 0 -21 -2t-20.5 -7.5t-16 -13.5t-6.5 -20z" />
    <glyph glyph-name="plusminus" unicode="&#xb1;" horiz-adv-x="532" 
d="M509 276q-5 3 -31.5 5t-58 3.5t-59.5 2t-36 0.5q0 -8 0.5 -26t1 -38t2.5 -37t5 -23l-127 -2q4 6 6 22t2.5 35t0.5 38v31q-11 0 -39 -0.5t-59.5 -1t-58.5 -2t-35 -4.5l-3 111q8 -4 33.5 -5.5t55.5 -2t59 -0.5h44q0 8 -1.5 27.5t-3.5 41t-5 40t-6 23.5l140 -3
q-4 -4 -6 -21.5t-3.5 -38.5t-2 -40t-0.5 -26q9 0 37.5 1.5t59.5 3t58 4t33 5.5zM31 103q7 -3 25 -4.5t39 -2.5t39.5 -1h27.5q11 0 38.5 0.5t62.5 1.5t73.5 2t72.5 3t58.5 4.5t31.5 5.5l-3 -113q-4 3 -22 5t-42.5 3t-53.5 1.5t-54.5 1t-45.5 0.5h-27h-44t-67.5 -0.5t-66 -2.5
t-39.5 -5z" />
    <glyph glyph-name="twosuperior" unicode="&#xb2;" horiz-adv-x="540" 
d="M36 307v69l4 1q39 10 86.5 25.5t94 36.5t87.5 48t67 60q10 14 17.5 30t7.5 34q0 22 -12 37t-30 24t-39 13t-39 4q-24 0 -46 -5t-38.5 -16t-26 -30t-9.5 -46q0 -16 5 -36h-118q-6 18 -6 38q0 24 8 45t22 41q16 23 39 38.5t49.5 24.5t54.5 13t55 4q32 0 73.5 -7.5t79 -25
t63 -46t25.5 -69.5t-26 -77t-63 -66.5t-78.5 -53.5t-71.5 -38q35 0 69 0.5t69 0.5q14 1 35.5 0.5t35.5 2.5l6 1q1 -18 1.5 -36t0.5 -36q-114 -1 -226 -1.5t-226 -1.5z" />
    <glyph glyph-name="threesuperior" unicode="&#xb3;" horiz-adv-x="542" 
d="M253 297q-33 0 -74.5 6.5t-77.5 23t-61 44.5t-25 70q0 30 17 53h115q-9 -13 -15 -26.5t-6 -28.5q0 -24 14 -38t34.5 -21.5t43 -9.5t40.5 -2q13 0 37 3t47.5 9.5t41 18.5t17.5 30q0 21 -23.5 32.5t-54 17.5t-61 7.5t-44.5 1.5v70q17 0 44.5 2.5t54 10.5t46 22.5t19.5 38.5
q0 16 -10 27t-25 18t-31.5 9.5t-29.5 2.5q-21 0 -39 -2t-32 -8.5t-25 -20t-17 -36.5l-118 -2q12 40 35 66.5t53 43t65.5 23.5t73.5 7q27 0 64 -6.5t71 -21t57.5 -38t23.5 -58.5q0 -18 -8.5 -34t-21 -28.5t-28.5 -22.5t-31 -17q16 -6 34 -14.5t33 -21t25 -28.5t10 -36
q0 -39 -28.5 -65.5t-69 -42t-85 -22.5t-75.5 -7z" />
    <glyph glyph-name="acute" unicode="&#xb4;" 
d="M556 791l60 -94l-270 -103l-41 61z" />
    <glyph glyph-name="paragraph" unicode="&#xb6;" horiz-adv-x="757" 
d="M727 737q-9 -3 -14.5 -22t-8.5 -47.5t-4.5 -61.5t-2 -63t0 -53t0.5 -31q0 -15 -0.5 -53t-0.5 -86.5t0.5 -102t2 -100t5 -79t8.5 -38.5h-145q6 6 8.5 27t3.5 45.5t1 47v30.5q0 35 -0.5 68.5t-0.5 68.5q-31 0 -61.5 1t-60.5 3v-31.5v-54t0.5 -64.5t2.5 -63.5t4.5 -51
t7.5 -26.5h-145q6 5 8.5 24.5t3.5 42.5t1 44v29q0 41 -0.5 81t-0.5 81q-30 4 -67 10.5t-75 17t-73.5 26.5t-63 38.5t-44.5 53t-17 70.5q0 41 16 71.5t43 52.5t62 37t72.5 24.5t74.5 15t68 8.5q53 5 105 7t104 2q10 2 23.5 1.5t23.5 -0.5h135zM464 629q-5 -42 -5.5 -85.5
t-0.5 -86.5v-68q60 -3 122 -3v29q-1 54 -1.5 107.5t-5.5 107.5h-33h-38t-38 -1zM181 519q0 -31 15.5 -51.5t39 -34t51.5 -21t52 -11.5q0 54 -1 108.5t-8 108.5q-20 -3 -46 -9t-49 -17.5t-38.5 -29t-15.5 -43.5z" />
    <glyph glyph-name="periodcentered" unicode="&#xb7;" horiz-adv-x="227" 
d="M113 412q11 0 25.5 -3t27 -9t21.5 -15.5t9 -23.5t-9 -23.5t-21.5 -15.5t-27 -8.5t-25.5 -2.5t-25 2.5t-26.5 8.5t-21.5 15.5t-9 23.5t9 23.5t21.5 15.5t26.5 9t25 3z" />
    <glyph glyph-name="cedilla" unicode="&#xb8;" 
d="M456 -222q-29 0 -54 5t-44.5 17t-31.5 32.5t-14 52.5l76 4q-1 -4 -1 -11q0 -27 20.5 -38t43.5 -11q8 0 21 1.5t25 6t20.5 12t8.5 18.5q0 14 -11.5 21t-27 10t-31.5 3.5t-25 0.5q-4 1 -12 1l-3 113l89 -1l-15 -67q18 -2 39 -5.5t39 -12t30 -23.5t12 -38q0 -27 -16.5 -45
t-40 -28t-50 -14t-47.5 -4z" />
    <glyph glyph-name="onesuperior" unicode="&#xb9;" horiz-adv-x="293" 
d="M235 302h-136l11 10q3 2 4.5 18.5t2.5 39.5t1.5 50.5t0.5 52v43.5v25v58v39t-2 39q-20 0 -41.5 -0.5t-41.5 -5.5l-3 74l211 -2q-2 -5 -3 -10t-3 -10q-5 -18 -9.5 -47.5t-7.5 -61t-4.5 -61t-1.5 -47.5q0 -5 -0.5 -21t-0.5 -37v-44t0.5 -43t2 -33.5t4.5 -15.5q7 -5 16 -10z
" />
    <glyph glyph-name="ordmasculine" unicode="&#xba;" horiz-adv-x="580" 
d="M285 254q-40 0 -88 8t-89.5 28t-69.5 53.5t-28 84.5q0 50 28 84t70 55t90.5 30t88.5 9t88.5 -10t90.5 -31.5t70.5 -56t28.5 -83.5q0 -48 -29.5 -80.5t-72.5 -53t-91.5 -29t-86.5 -8.5zM287 525q-21 0 -48 -5t-50 -16t-39 -29.5t-16 -45.5q0 -28 15.5 -46t39 -28.5
t50 -14.5t47.5 -4q20 0 46.5 4.5t50.5 15.5t41 28t17 43q0 27 -16 45.5t-39.5 30t-50.5 17t-48 5.5z" />
    <glyph glyph-name="guillemotright" unicode="&#xbb;" horiz-adv-x="451" 
d="M31 400q3 -6 16.5 -19t33 -29.5t42 -34.5t43.5 -34t38 -28t24 -17q2 -1 8 -4.5t8 -1.5v-90h-2q-4 0 -20 -11t-38.5 -28.5t-47.5 -38t-47.5 -39t-38.5 -33.5t-19 -20v119q35 22 69.5 43.5t66.5 48.5q-7 6 -27 22t-42.5 33.5t-42 32t-24.5 16.5v113zM227 287v113
q3 -6 17 -19t33.5 -29.5t42 -34.5t43.5 -34t37.5 -28t24.5 -17q2 -1 7.5 -4.5t8.5 -1.5v-90h-3q-4 0 -20 -11t-38 -28.5t-47.5 -38t-47.5 -39t-38.5 -33.5t-19.5 -20v119q35 22 69.5 43.5t66.5 48.5q-7 6 -27 22t-42.5 33.5t-41.5 32t-25 16.5z" />
    <glyph glyph-name="onequarter" unicode="&#xbc;" horiz-adv-x="917" 
d="M485 724q0 10 -8 13h186q-15 -1 -36.5 -26.5t-46 -64.5t-49.5 -85.5t-47 -90.5t-39 -79t-24 -51q-8 -18 -23 -47t-33 -63.5t-36 -71t-33 -67.5t-24.5 -54.5t-9.5 -31.5q0 -3 2 -5h-137q12 8 28 31.5t34.5 55.5t37.5 69t35.5 71.5t30 63.5t21.5 45q9 19 25 52.5t35 72.5
t39 80.5t36 78t26 64.5t10 40zM99 302l11 10q3 3 5 26.5t3 52t1 54v32.5v45v77.5t-2 77.5q-21 0 -42 -0.5t-41 -5.5l-3 74l211 -2q-7 -22 -12.5 -53t-9 -64.5t-5.5 -65.5t-2 -54q0 -8 -0.5 -38.5t-0.5 -64t1.5 -61t5.5 -30.5q3 -3 7.5 -5.5t8.5 -4.5h-136zM809 0
q-34 1 -67.5 0.5t-68.5 -0.5q8 6 11 10q3 3 5 19t2.5 35.5t1 37t0.5 24.5q-12 0 -35.5 0.5t-51.5 0.5h-58.5t-57.5 -0.5t-48 -2t-30 -4.5v7v62q11 9 33.5 28.5t51 44t58.5 51.5t55.5 51.5t43.5 43.5t21 28l-7 8h143v-11l-2 -1v-2q-6 -2 -9.5 -14.5t-6 -30.5t-4 -40t-2 -41.5
t-0.5 -34.5v-21v-55h44h37t37 4q1 -18 1 -36t1 -36h-120l-1 -34v-17.5t1 -26t2 -24.5t4 -13q4 -3 8 -5.5t8 -4.5zM617 191q20 0 38.5 0.5t37.5 0.5v107v36q-80 -71 -156 -144h80z" />
    <glyph glyph-name="onehalf" unicode="&#xbd;" horiz-adv-x="989" 
d="M485 724q0 10 -8 13h186q-15 -1 -36.5 -26.5t-46 -64.5t-49.5 -85.5t-47 -90.5t-39 -79t-24 -51q-8 -18 -23 -47t-33 -63.5t-36 -71t-33 -67.5t-24.5 -54.5t-9.5 -31.5q0 -3 2 -5h-137q12 8 28 31.5t34.5 55.5t37.5 69t35.5 71.5t30 63.5t21.5 45q9 19 25 52.5t35 72.5
t39 80.5t36 78t26 64.5t10 40zM485 65q23 6 58.5 17t76 26.5t81.5 36t74 44.5t53.5 51.5t20.5 58.5q0 22 -12 37t-30 24t-39 13t-39 4q-24 0 -46 -5t-38.5 -16t-26 -29.5t-9.5 -46.5q0 -9 1 -18t4 -17h-118q-6 18 -6 37q0 45 21 76.5t54 51.5t73.5 29t78.5 9q33 0 74.5 -7.5
t78.5 -25t62.5 -46t25.5 -69.5q0 -40 -25.5 -76t-62.5 -66t-78.5 -54t-72.5 -39q13 0 44.5 -0.5t66 0t64.5 2t41 4.5q1 -18 1 -36.5t1 -36.5q-114 -1 -226.5 -1.5t-225.5 -1.5v70zM99 302l11 10q3 3 5 26.5t3 52t1 54v32.5v45v77.5t-2 77.5q-21 0 -42 -0.5t-41 -5.5l-3 74
l211 -2q-7 -22 -12.5 -53t-9 -64.5t-5.5 -65.5t-2 -54q0 -8 -0.5 -38.5t-0.5 -64t1.5 -61t5.5 -30.5q3 -3 7.5 -5.5t8.5 -4.5h-136z" />
    <glyph glyph-name="threequarters" unicode="&#xbe;" horiz-adv-x="1123" 
d="M242 308q-32 0 -71 6t-74 22t-58.5 42t-23.5 67q0 28 16 50h110q-8 -11 -14 -24.5t-6 -27.5q0 -23 13.5 -36t33 -20.5t41 -9.5t38.5 -2q13 0 36 2.5t45.5 9.5t39 18.5t16.5 28.5q0 19 -22.5 30.5t-52 17t-58.5 7t-43 1.5v67q16 0 43 2.5t52 10t43.5 21t18.5 36.5
q0 16 -9.5 26.5t-24 17t-30.5 9t-28 2.5q-20 0 -37 -2t-30.5 -8.5t-23.5 -19.5t-16 -35l-113 -1q12 38 33.5 63.5t50 41t62.5 22t71 6.5q26 0 61 -6t67 -19.5t54.5 -36.5t22.5 -56q0 -18 -8 -33t-20 -27t-27 -21.5t-29 -16.5q16 -5 33 -13t31 -19.5t23.5 -27t9.5 -34.5
q0 -38 -27.5 -63t-66 -40t-80.5 -21.5t-72 -6.5zM332 0q12 8 28.5 31.5t35 55.5t37.5 69t35.5 71.5t30 63.5t21.5 45q9 19 25 52.5t35 72.5t38.5 80.5t35.5 78t26 64.5t10 40q0 4 -1 7.5t-6 5.5h185q-15 -1 -36.5 -26.5t-46 -64.5t-49.5 -85.5t-47 -90.5t-39 -79t-24 -51
q-8 -18 -23 -47t-32.5 -63.5t-35.5 -71t-33 -67.5t-24.5 -54.5t-9.5 -31.5q0 -4 1 -5h-137zM881 439l-20 6q81 -2 163 0l1 -5q-7 0 -15 -5q-7 -6 -11 -31.5t-6 -56.5t-2.5 -60t-0.5 -40v-59h61q14 0 29.5 0.5t30.5 3.5l2 -68l-124 1q0 -10 -0.5 -29t0 -39.5t3.5 -37
t11 -22.5h-119q6 6 9.5 22.5t4.5 36t1 38v27.5v4q-11 0 -34 0.5t-52.5 0.5h-62t-60.5 -0.5t-49.5 -2t-28.5 -3.5v66q13 11 36.5 31t51 44t57.5 50.5t55.5 51t44 44.5t24.5 32zM899 344q-43 -39 -85.5 -78t-84.5 -79h5h64h102v102q0 14 -0.5 27.5t-0.5 27.5z" />
    <glyph glyph-name="questiondown" unicode="&#xbf;" horiz-adv-x="755" 
d="M414 577h149q1 -14 2 -29t1 -29q0 -53 -20 -86t-52 -54t-72 -34.5t-81 -26.5q-17 -6 -52 -17t-69.5 -27t-60.5 -36t-26 -43q0 -19 21 -35.5t54 -30.5t73 -25.5t78 -19t69 -11.5t46 -4q19 0 41.5 2t42 9t32.5 21.5t13 40.5q0 23 -9 51t-17 50h138q13 -25 21.5 -52t8.5 -55
q0 -49 -26 -79t-65 -46t-84 -21t-82 -5q-34 0 -84 6t-105.5 18t-110.5 31t-99 44t-71.5 57.5t-27.5 72.5q0 34 33 61.5t82 51t106.5 43.5t106.5 39t82 38t33 41q0 46 -19 89zM475 634q-11 0 -25.5 3t-27 9t-21.5 15.5t-9 23.5t9 23.5t21.5 15.5t27 8.5t25.5 2.5
q10 0 24.5 -2.5t27 -8.5t21.5 -15.5t9 -23.5t-9 -23.5t-21.5 -15.5t-27 -9t-24.5 -3z" />
    <glyph glyph-name="Agrave" unicode="&#xc0;" horiz-adv-x="860" 
d="M687 0q1 1 1 4q0 7 -5.5 23.5t-12 35t-13.5 35t-10 23.5q-106 4 -212.5 3t-212.5 -5q-3 -7 -10 -23.5t-13.5 -34.5t-12 -34t-5.5 -23q0 -3 1 -4h-187q6 7 14.5 22.5t17 33t16.5 34t12 25.5q11 22 35 71t53.5 111.5t61 131t57.5 129.5t42.5 107t16.5 63q0 2 -0.5 4.5
t-2.5 2.5h234q-2 0 -2.5 -2.5t-0.5 -4.5q0 -17 16.5 -63t42.5 -107t57.5 -129.5t61 -131t53 -111.5t34.5 -71q4 -9 12 -25.5t17 -34t17.5 -33t14.5 -22.5h-188zM305 213q149 0 299 6q-41 91 -81.5 180t-87.5 176q-48 -88 -89 -179t-83 -182zM494 870l-40 -61l-271 103l61 94
z" />
    <glyph glyph-name="Aacute" unicode="&#xc1;" horiz-adv-x="860" 
d="M687 0q1 1 1 4q0 7 -5.5 23.5t-12 35t-13.5 35t-10 23.5q-106 4 -212.5 3t-212.5 -5q-3 -7 -10 -23.5t-13.5 -34.5t-12 -34t-5.5 -23q0 -3 1 -4h-187q6 7 14.5 22.5t17 33t16.5 34t12 25.5q11 22 35 71t53.5 111.5t61 131t57.5 129.5t42.5 107t16.5 63q0 2 -0.5 4.5
t-2.5 2.5h234q-2 0 -2.5 -2.5t-0.5 -4.5q0 -17 16.5 -63t42.5 -107t57.5 -129.5t61 -131t53 -111.5t34.5 -71q4 -9 12 -25.5t17 -34t17.5 -33t14.5 -22.5h-188zM305 213q149 0 299 6q-41 91 -81.5 180t-87.5 176q-48 -88 -89 -179t-83 -182zM638 996l60 -94l-270 -103
l-41 61z" />
    <glyph glyph-name="Acircumflex" unicode="&#xc2;" horiz-adv-x="860" 
d="M687 0q1 1 1 4q0 7 -5.5 23.5t-12 35t-13.5 35t-10 23.5q-106 4 -212.5 3t-212.5 -5q-3 -7 -10 -23.5t-13.5 -34.5t-12 -34t-5.5 -23q0 -3 1 -4h-187q6 7 14.5 22.5t17 33t16.5 34t12 25.5q11 22 35 71t53.5 111.5t61 131t57.5 129.5t42.5 107t16.5 63q0 2 -0.5 4.5
t-2.5 2.5h234q-2 0 -2.5 -2.5t-0.5 -4.5q0 -17 16.5 -63t42.5 -107t57.5 -129.5t61 -131t53 -111.5t34.5 -71q4 -9 12 -25.5t17 -34t17.5 -33t14.5 -22.5h-188zM305 213q149 0 299 6q-41 91 -81.5 180t-87.5 176q-48 -88 -89 -179t-83 -182zM525 803q-2 4 -14 17t-26.5 28.5
t-28 29t-17.5 18.5q-21 -21 -39 -44.5t-36 -48.5h-127q7 4 23.5 18.5t34 31t33 32.5t22.5 23q1 1 7 7.5t12.5 13t11.5 12.5t4 8h115q-1 -2 2 -5.5t3 -4.5q7 -8 27 -29t43 -44t43.5 -41.5t27.5 -21.5h-121z" />
    <glyph glyph-name="Atilde" unicode="&#xc3;" horiz-adv-x="860" 
d="M687 0q1 1 1 4q0 7 -5.5 23.5t-12 35t-13.5 35t-10 23.5q-106 4 -212.5 3t-212.5 -5q-3 -7 -10 -23.5t-13.5 -34.5t-12 -34t-5.5 -23q0 -3 1 -4h-187q6 7 14.5 22.5t17 33t16.5 34t12 25.5q11 22 35 71t53.5 111.5t61 131t57.5 129.5t42.5 107t16.5 63q0 2 -0.5 4.5
t-2.5 2.5h234q-2 0 -2.5 -2.5t-0.5 -4.5q0 -17 16.5 -63t42.5 -107t57.5 -129.5t61 -131t53 -111.5t34.5 -71q4 -9 12 -25.5t17 -34t17.5 -33t14.5 -22.5h-188zM305 213q149 0 299 6q-41 91 -81.5 180t-87.5 176q-48 -88 -89 -179t-83 -182zM613 931l-3 -90
q-22 -12 -49.5 -19t-50.5 -7q-26 0 -42 6t-29 13.5t-26 13.5t-32 6q-23 0 -48.5 -16.5t-40.5 -33.5l-2 90q19 16 45.5 25.5t50.5 9.5q23 0 41 -6t33 -13.5t27.5 -13.5t24.5 -6q24 0 52.5 13.5t48.5 27.5z" />
    <glyph glyph-name="Adieresis" unicode="&#xc4;" horiz-adv-x="860" 
d="M687 0q1 1 1 4q0 7 -5.5 23.5t-12 35t-13.5 35t-10 23.5q-106 4 -212.5 3t-212.5 -5q-3 -7 -10 -23.5t-13.5 -34.5t-12 -34t-5.5 -23q0 -3 1 -4h-187q6 7 14.5 22.5t17 33t16.5 34t12 25.5q11 22 35 71t53.5 111.5t61 131t57.5 129.5t42.5 107t16.5 63q0 2 -0.5 4.5
t-2.5 2.5h234q-2 0 -2.5 -2.5t-0.5 -4.5q0 -17 16.5 -63t42.5 -107t57.5 -129.5t61 -131t53 -111.5t34.5 -71q4 -9 12 -25.5t17 -34t17.5 -33t14.5 -22.5h-188zM305 213q149 0 299 6q-41 91 -81.5 180t-87.5 176q-48 -88 -89 -179t-83 -182zM402 866q0 -14 -9 -23.5
t-21.5 -15.5t-27 -9t-25.5 -3t-25.5 3t-27 9t-21.5 15.5t-9 23.5t9 23.5t21.5 15.5t27 9t25.5 3t25.5 -3t27 -9t21.5 -15.5t9 -23.5zM564 917q11 0 25.5 -3t27 -9t21.5 -15.5t9 -23.5t-9 -23.5t-21.5 -15.5t-27 -9t-25.5 -3t-25 3t-26.5 9t-21.5 15.5t-9 23.5t9 23.5
t21.5 15.5t26.5 9t25 3z" />
    <glyph glyph-name="Aring" unicode="&#xc5;" horiz-adv-x="860" 
d="M875 0h-188q1 1 1 4q0 7 -5.5 23.5t-12 35t-13.5 35t-10 23.5q-106 4 -212.5 3t-212.5 -5q-3 -7 -10 -23.5t-13.5 -34.5t-12 -34t-5.5 -23q0 -3 1 -4h-187q6 7 14.5 22.5t17 33t16.5 34t12 25.5q11 22 35 71t53.5 111.5t61 131t57.5 129.5t42.5 107t16.5 63q0 2 -0.5 4.5
t-2.5 2.5h67q-18 4 -34.5 10.5t-29.5 17t-21 25t-8 33.5q0 26 15 44t37 28.5t47.5 15t46.5 4.5t46 -5t47.5 -16t37.5 -29t15 -44q0 -18 -8.5 -32t-22.5 -24.5t-31.5 -17t-35.5 -10.5h66q-2 0 -2.5 -2.5t-0.5 -4.5q0 -17 16.5 -63t42.5 -107t57.5 -129.5t61 -131t53 -111.5
t34.5 -71q4 -9 12 -25.5t17 -34t17.5 -33t14.5 -22.5zM501 821q0 11 -6 19t-15.5 13.5t-20.5 8t-21 2.5t-21 -2t-20.5 -7.5t-15.5 -13.5t-6 -20t6 -20t15.5 -13t20.5 -7t21 -2q9 0 20 2t20.5 7t16 13t6.5 20zM604 219q-41 91 -81.5 180t-87.5 176q-48 -88 -89 -179t-83 -182
l42 -1q149 0 299 6z" />
    <glyph glyph-name="AE" unicode="&#xc6;" horiz-adv-x="1392" 
d="M641 0q5 6 8.5 23t5 36.5t2 37.5t0.5 26q-38 2 -75.5 2h-75.5q-73 0 -145.5 -0.5t-145.5 -4.5q-4 -4 -20 -21.5t-34 -37.5t-32 -37.5t-13 -21.5h-188q11 8 20 17l18 18q22 21 43.5 42t42.5 42l45.5 45.5l73.5 73.5t91 92.5t98.5 101.5t96.5 100.5t83.5 90t60 69.5
t27.5 40l-3 3h726l-11 -113q-5 2 -25 3t-47.5 2t-59.5 1.5t-60.5 0.5h-50.5h-30q-128 0 -257 -3q-5 -50 -6 -99.5t-2 -100.5l461 5l-1 -107q-7 3 -36.5 4t-65 1.5t-67 0.5h-41.5q-124 0 -250 -3q0 -45 -0.5 -89.5t-0.5 -89.5v-40q71 -3 141 -3h142h30h50.5t60 0.5t59 1
t47.5 1.5t25 3l11 -111zM305 216q14 -1 27.5 -1h27.5q150 0 299 6q1 54 1 106v106v41v49.5t-1 48.5q-91 -88 -179 -176.5t-175 -179.5z" />
    <glyph glyph-name="Ccedilla" unicode="&#xc7;" horiz-adv-x="963" 
d="M436 5q23 -2 44.5 -3t41.5 -1l3 14l-89 1v-11zM477 -222q-29 0 -54.5 5t-44.5 17t-31 32.5t-14 52.5l75 4q0 -3 -0.5 -5.5t-0.5 -5.5q0 -27 21 -38t44 -11q8 0 21 1.5t25 6t20.5 12t8.5 18.5q0 14 -11.5 21t-27.5 10t-31.5 3.5t-24.5 0.5q-3 1 -6.5 1h-6.5l-3 102
q-45 5 -92.5 14.5t-93 26t-86.5 39t-71.5 53t-48.5 70t-18 87.5q0 69 26.5 129.5t70.5 110t103 88t124 65t132.5 40t128.5 13.5q58 0 118.5 -9t110 -34.5t81 -70t31.5 -116.5q0 -26 -4 -52t-12 -51h-195q17 23 33.5 53.5t16.5 61.5q0 35 -23.5 57.5t-56.5 35.5t-69.5 18
t-63.5 5q-65 0 -131.5 -24t-120.5 -67t-88.5 -102t-34.5 -129q0 -42 15.5 -74t42 -55t60.5 -39t71.5 -25t75.5 -13t71 -4q82 0 163 14t161 36l39 -104q-43 -14 -90.5 -24t-96 -16.5t-97 -9t-93.5 -2.5h-3l-12 -53q18 -2 39 -5.5t39 -12t30 -23.5t12 -38q0 -27 -16 -45
t-39.5 -28t-50 -14t-47.5 -4z" />
    <glyph glyph-name="Egrave" unicode="&#xc8;" horiz-adv-x="798" 
d="M47 0q6 6 10 38.5t6.5 78.5t3 100t0.5 103t-0.5 86.5t-0.5 52.5v31t-0.5 49t-1.5 57.5t-3.5 56.5t-6.5 45.5t-10 26.5q-3 3 -6.5 6t-6.5 6l726 -2l-11 -111q-5 2 -24.5 3t-47.5 2t-60 1.5t-60.5 0.5h-50.5h-30q-128 0 -257 -3q-5 -50 -6 -99.5t-1 -100.5l460 5l-1 -107
q-4 1 -19.5 2.5t-36.5 2t-45.5 1t-46 0.5h-38.5h-23q-125 0 -251 -3q0 -45 -0.5 -89.5t-0.5 -89.5v-40q71 -3 141.5 -3h141.5h29h51t60.5 0.5t59.5 1t47.5 1.5t24.5 3l11 -111zM545 860l-40 -61l-271 103l61 94z" />
    <glyph glyph-name="Eacute" unicode="&#xc9;" horiz-adv-x="798" 
d="M47 0q6 6 10 38.5t6.5 78.5t3 100t0.5 103t-0.5 86.5t-0.5 52.5v31t-0.5 49t-1.5 57.5t-3.5 56.5t-6.5 45.5t-10 26.5q-3 3 -6.5 6t-6.5 6l726 -2l-11 -111q-5 2 -24.5 3t-47.5 2t-60 1.5t-60.5 0.5h-50.5h-30q-128 0 -257 -3q-5 -50 -6 -99.5t-1 -100.5l460 5l-1 -107
q-4 1 -19.5 2.5t-36.5 2t-45.5 1t-46 0.5h-38.5h-23q-125 0 -251 -3q0 -45 -0.5 -89.5t-0.5 -89.5v-40q71 -3 141.5 -3h141.5h29h51t60.5 0.5t59.5 1t47.5 1.5t24.5 3l11 -111zM566 996l60 -94l-270 -103l-41 61z" />
    <glyph glyph-name="Ecircumflex" unicode="&#xca;" horiz-adv-x="798" 
d="M47 0q6 6 10 38.5t6.5 78.5t3 100t0.5 103t-0.5 86.5t-0.5 52.5v31t-0.5 49t-1.5 57.5t-3.5 56.5t-6.5 45.5t-10 26.5q-3 3 -6.5 6t-6.5 6l726 -2l-11 -111q-5 2 -24.5 3t-47.5 2t-60 1.5t-60.5 0.5h-50.5h-30q-128 0 -257 -3q-5 -50 -6 -99.5t-1 -100.5l460 5l-1 -107
q-4 1 -19.5 2.5t-36.5 2t-45.5 1t-46 0.5h-38.5h-23q-125 0 -251 -3q0 -45 -0.5 -89.5t-0.5 -89.5v-40q71 -3 141.5 -3h141.5h29h51t60.5 0.5t59.5 1t47.5 1.5t24.5 3l11 -111zM494 814q-2 4 -14 17t-26.5 28.5t-28 29t-17.5 18.5q-21 -21 -39 -44.5t-36 -48.5h-127
q7 4 23.5 18.5t34 31t33 32.5t22.5 23q1 1 7 7.5t12.5 13t11.5 12.5t4 8h115q-1 -2 2 -5.5t3 -4.5q7 -8 27 -29t43 -44t43.5 -41.5t27.5 -21.5h-121z" />
    <glyph glyph-name="Edieresis" unicode="&#xcb;" horiz-adv-x="798" 
d="M47 0q6 6 10 38.5t6.5 78.5t3 100t0.5 103t-0.5 86.5t-0.5 52.5v31t-0.5 49t-1.5 57.5t-3.5 56.5t-6.5 45.5t-10 26.5q-3 3 -6.5 6t-6.5 6l726 -2l-11 -111q-5 2 -24.5 3t-47.5 2t-60 1.5t-60.5 0.5h-50.5h-30q-128 0 -257 -3q-5 -50 -6 -99.5t-1 -100.5l460 5l-1 -107
q-4 1 -19.5 2.5t-36.5 2t-45.5 1t-46 0.5h-38.5h-23q-125 0 -251 -3q0 -45 -0.5 -89.5t-0.5 -89.5v-40q71 -3 141.5 -3h141.5h29h51t60.5 0.5t59.5 1t47.5 1.5t24.5 3l11 -111zM381 866q0 -14 -9 -23.5t-21.5 -15.5t-27 -9t-25.5 -3t-25.5 3t-27 9t-21.5 15.5t-9 23.5
t9 23.5t21.5 15.5t27 9t25.5 3t25.5 -3t27 -9t21.5 -15.5t9 -23.5zM543 917q11 0 25.5 -3t27 -9t21.5 -15.5t9 -23.5t-9 -23.5t-21.5 -15.5t-27 -9t-25.5 -3t-25 3t-26.5 9t-21.5 15.5t-9 23.5t9 23.5t21.5 15.5t26.5 9t25 3z" />
    <glyph glyph-name="Igrave" unicode="&#xcc;" horiz-adv-x="285" 
d="M57 38.5q4 32.5 6.5 78.5t3 100t0.5 103t-0.5 86.5t-0.5 52.5q0 9 0.5 32t0 53t-2 63t-5.5 61t-11 47t-17 22h224q-13 0 -21.5 -23t-13.5 -58t-7.5 -77.5t-3.5 -81.5t-1 -69.5v-41.5q0 -59 -0.5 -117.5t-0.5 -118.5v-31t1 -47.5t4.5 -45.5t9.5 -26h-175q6 6 10 38.5z
M197 870l-40 -61l-271 103l61 94z" />
    <glyph glyph-name="Iacute" unicode="&#xcd;" horiz-adv-x="285" 
d="M57 38.5q4 32.5 6.5 78.5t3 100t0.5 103t-0.5 86.5t-0.5 52.5q0 9 0.5 32t0 53t-2 63t-5.5 61t-11 47t-17 22h224q-13 0 -21.5 -23t-13.5 -58t-7.5 -77.5t-3.5 -81.5t-1 -69.5v-41.5q0 -59 -0.5 -117.5t-0.5 -118.5v-31t1 -47.5t4.5 -45.5t9.5 -26h-175q6 6 10 38.5z
M342 1006l60 -94l-270 -103l-41 61z" />
    <glyph glyph-name="Icircumflex" unicode="&#xce;" horiz-adv-x="285" 
d="M57 38.5q4 32.5 6.5 78.5t3 100t0.5 103t-0.5 86.5t-0.5 52.5q0 9 0.5 32t0 53t-2 63t-5.5 61t-11 47t-17 22h224q-13 0 -21.5 -23t-13.5 -58t-7.5 -77.5t-3.5 -81.5t-1 -69.5v-41.5q0 -59 -0.5 -117.5t-0.5 -118.5v-31t1 -47.5t4.5 -45.5t9.5 -26h-175q6 6 10 38.5z
M228 814q-2 4 -14 17t-26.5 28.5t-28 29t-17.5 18.5q-21 -21 -39 -44.5t-36 -48.5h-127q7 4 23.5 18.5t34 31t33 32.5t22.5 23q1 1 7 7.5t12.5 13t11.5 12.5t4 8h115q-1 -2 2 -5.5t3 -4.5q7 -8 27 -29t43 -44t43.5 -41.5t27.5 -21.5h-121z" />
    <glyph glyph-name="Idieresis" unicode="&#xcf;" horiz-adv-x="285" 
d="M57 38.5q4 32.5 6.5 78.5t3 100t0.5 103t-0.5 86.5t-0.5 52.5q0 9 0.5 32t0 53t-2 63t-5.5 61t-11 47t-17 22h224q-13 0 -21.5 -23t-13.5 -58t-7.5 -77.5t-3.5 -81.5t-1 -69.5v-41.5q0 -59 -0.5 -117.5t-0.5 -118.5v-31t1 -47.5t4.5 -45.5t9.5 -26h-175q6 6 10 38.5z
M105 866q0 -14 -9 -23.5t-21.5 -15.5t-27 -9t-25.5 -3t-25.5 3t-27 9t-21.5 15.5t-9 23.5t9 23.5t21.5 15.5t27 9t25.5 3t25.5 -3t27 -9t21.5 -15.5t9 -23.5zM267 917q11 0 25.5 -3t27 -9t21.5 -15.5t9 -23.5t-9 -23.5t-21.5 -15.5t-27 -9t-25.5 -3t-25 3t-26.5 9
t-21.5 15.5t-9 23.5t9 23.5t21.5 15.5t26.5 9t25 3z" />
    <glyph glyph-name="Eth" unicode="&#xd0;" horiz-adv-x="919" 
d="M207 318q0 -58 0.5 -115t3.5 -114q13 0 26 -0.5t26 -0.5q38 0 88.5 3t104.5 12t106 25t93 43t66.5 65.5t25.5 91.5q0 58 -22.5 104t-60 81.5t-87 60t-103 40.5t-107.5 23t-101 7q-13 0 -26 -0.5t-26 -1.5q-3 -57 -4.5 -113.5t-2.5 -113.5q34 1 70.5 2t67.5 3t53.5 4
t29.5 5l-3 -122q-5 3 -31 5t-59.5 3.5t-68.5 2t-59 0.5zM-41 421q5 -2 16.5 -3.5t25.5 -2.5t29.5 -1.5t28.5 -0.5q0 44 -1.5 98.5t-4.5 103.5t-8.5 83.5t-13.5 39.5l195 -1q59 0 132 -8.5t147 -27t144 -49.5t124 -75.5t87 -104.5t33 -137q0 -84 -37.5 -141.5t-99 -94.5
t-139.5 -57.5t-159 -29.5t-157 -10.5t-134 -1.5h-120q3 5 5 26t3.5 50.5t2.5 64.5t1.5 68.5t0.5 62v45.5q-33 -1 -61 -2.5t-37 -5.5z" />
    <glyph glyph-name="Ntilde" unicode="&#xd1;" horiz-adv-x="848" 
d="M796 714q-8 -23 -13.5 -58t-8 -77.5t-3 -81.5t-0.5 -69.5v-41.5q0 -59 -1 -117.5t-1 -118.5v-30.5t1 -47.5t4.5 -46t9.5 -26h-176q-13 15 -24.5 31.5t-23.5 32.5l-76 102q-64 86 -129 171t-134 168q-4 -33 -5 -66.5t-2 -66.5q-2 -51 -3 -102t-1 -102v-33.5t1 -53.5
t3.5 -52t7.5 -29h-175q6 6 10 38.5t6 78.5t3 99.5t1 102.5t-0.5 87t-0.5 53q0 9 0.5 32t0 53t-2 63t-5.5 61t-11 47t-17 22h242q-3 -1 -3 -8q0 -17 22.5 -59t58 -96.5t78 -115.5t82 -116t71 -97.5t45.5 -60.5q2 69 1.5 137.5t-0.5 137.5q0 9 0.5 32t0 53t-2 63t-5.5 61
t-11 47t-17 22h224q-13 0 -21 -23zM582 921l-3 -90q-22 -12 -49.5 -19t-50.5 -7q-26 0 -42 6t-29 13.5t-26 13.5t-32 6q-23 0 -48.5 -16.5t-40.5 -33.5l-2 90q19 16 45.5 25.5t50.5 9.5q23 0 41 -6t33 -13.5t27.5 -13.5t24.5 -6q24 0 52.5 13.5t48.5 27.5z" />
    <glyph glyph-name="Ograve" unicode="&#xd2;" horiz-adv-x="916" 
d="M458 743q82 0 160 -27t138.5 -77.5t97 -122t36.5 -160.5q0 -88 -38.5 -156t-100.5 -114.5t-140 -70.5t-157 -24q-86 0 -163.5 23.5t-136 70t-93.5 116t-35 162.5q0 92 36.5 163t96.5 119t138 73t161 25zM194 364q0 -56 19.5 -106t54.5 -87.5t82.5 -59.5t104.5 -22
q53 0 101.5 22.5t85 60t58.5 86t22 101.5q0 73 -21 126.5t-57 89t-84 53t-102 17.5q-56 0 -104 -23.5t-83.5 -62.5t-56 -89.5t-20.5 -105.5zM607 860l-40 -61l-271 103l61 94z" />
    <glyph glyph-name="Oacute" unicode="&#xd3;" horiz-adv-x="916" 
d="M458 743q82 0 160 -27t138.5 -77.5t97 -122t36.5 -160.5q0 -88 -38.5 -156t-100.5 -114.5t-140 -70.5t-157 -24q-86 0 -163.5 23.5t-136 70t-93.5 116t-35 162.5q0 92 36.5 163t96.5 119t138 73t161 25zM194 364q0 -56 19.5 -106t54.5 -87.5t82.5 -59.5t104.5 -22
q53 0 101.5 22.5t85 60t58.5 86t22 101.5q0 73 -21 126.5t-57 89t-84 53t-102 17.5q-56 0 -104 -23.5t-83.5 -62.5t-56 -89.5t-20.5 -105.5zM587 996l60 -94l-270 -103l-41 61z" />
    <glyph glyph-name="Ocircumflex" unicode="&#xd4;" horiz-adv-x="916" 
d="M458 743q82 0 160 -27t138.5 -77.5t97 -122t36.5 -160.5q0 -88 -38.5 -156t-100.5 -114.5t-140 -70.5t-157 -24q-86 0 -163.5 23.5t-136 70t-93.5 116t-35 162.5q0 92 36.5 163t96.5 119t138 73t161 25zM194 364q0 -56 19.5 -106t54.5 -87.5t82.5 -59.5t104.5 -22
q53 0 101.5 22.5t85 60t58.5 86t22 101.5q0 73 -21 126.5t-57 89t-84 53t-102 17.5q-56 0 -104 -23.5t-83.5 -62.5t-56 -89.5t-20.5 -105.5zM544 803q-2 4 -14 17t-26.5 28.5t-28 29t-17.5 18.5q-21 -21 -39 -44.5t-36 -48.5h-127q7 4 23.5 18.5t34 31t33 32.5t22.5 23
q1 1 7 7.5t12.5 13t11.5 12.5t4 8h115q-1 -2 2 -5.5t3 -4.5q7 -8 27 -29t43 -44t43.5 -41.5t27.5 -21.5h-121z" />
    <glyph glyph-name="Otilde" unicode="&#xd5;" horiz-adv-x="916" 
d="M458 743q82 0 160 -27t138.5 -77.5t97 -122t36.5 -160.5q0 -88 -38.5 -156t-100.5 -114.5t-140 -70.5t-157 -24q-86 0 -163.5 23.5t-136 70t-93.5 116t-35 162.5q0 92 36.5 163t96.5 119t138 73t161 25zM194 364q0 -56 19.5 -106t54.5 -87.5t82.5 -59.5t104.5 -22
q53 0 101.5 22.5t85 60t58.5 86t22 101.5q0 73 -21 126.5t-57 89t-84 53t-102 17.5q-56 0 -104 -23.5t-83.5 -62.5t-56 -89.5t-20.5 -105.5zM632 931l-3 -90q-22 -12 -49.5 -19t-50.5 -7q-26 0 -42 6t-29 13.5t-26 13.5t-32 6q-23 0 -48.5 -16.5t-40.5 -33.5l-2 90
q19 16 45.5 25.5t50.5 9.5q23 0 41 -6t33 -13.5t27.5 -13.5t24.5 -6q24 0 52.5 13.5t48.5 27.5z" />
    <glyph glyph-name="Odieresis" unicode="&#xd6;" horiz-adv-x="916" 
d="M458 743q82 0 160 -27t138.5 -77.5t97 -122t36.5 -160.5q0 -88 -38.5 -156t-100.5 -114.5t-140 -70.5t-157 -24q-86 0 -163.5 23.5t-136 70t-93.5 116t-35 162.5q0 92 36.5 163t96.5 119t138 73t161 25zM194 364q0 -56 19.5 -106t54.5 -87.5t82.5 -59.5t104.5 -22
q53 0 101.5 22.5t85 60t58.5 86t22 101.5q0 73 -21 126.5t-57 89t-84 53t-102 17.5q-56 0 -104 -23.5t-83.5 -62.5t-56 -89.5t-20.5 -105.5zM441 866q0 -14 -9 -23.5t-21.5 -15.5t-27 -9t-25.5 -3t-25.5 3t-27 9t-21.5 15.5t-9 23.5t9 23.5t21.5 15.5t27 9t25.5 3t25.5 -3
t27 -9t21.5 -15.5t9 -23.5zM603 917q11 0 25.5 -3t27 -9t21.5 -15.5t9 -23.5t-9 -23.5t-21.5 -15.5t-27 -9t-25.5 -3t-25 3t-26.5 9t-21.5 15.5t-9 23.5t9 23.5t21.5 15.5t26.5 9t25 3z" />
    <glyph glyph-name="multiply" unicode="&#xd7;" horiz-adv-x="533" 
d="M482.5 419q-23.5 -17 -50 -37.5t-50 -39.5t-30.5 -25q9 -8 31.5 -26.5t47.5 -39t47.5 -37t31.5 -20.5l-90 -80q-4 9 -24 28.5t-45 40.5t-47.5 40t-31.5 26q-5 -5 -17.5 -15.5t-28 -24t-32.5 -28.5t-32 -28.5t-25.5 -24.5t-13.5 -16l-95 76q10 3 33 20.5t48.5 38.5
t48.5 40.5t32 27.5q-9 7 -33 26t-52 40t-52 38t-33 20l105 85q1 -4 11 -14.5t24.5 -25t32 -30t33.5 -29.5l28 -24.5t16 -14.5q7 7 29.5 27t46.5 42.5t44 43t23 27.5l100 -89q-7 -1 -30.5 -18z" />
    <glyph glyph-name="Oslash" unicode="&#xd8;" horiz-adv-x="932" 
d="M682 689q104 -50 164.5 -134.5t60.5 -202.5q0 -89 -39.5 -157t-103 -114t-143 -70t-159.5 -24q-69 0 -140 17q-3 -5 -8 -15.5t-10 -22t-8.5 -22t-3.5 -16.5q0 -3 1 -4h-146q8 6 19.5 21.5t23 33t21.5 34.5t15 26q-99 48 -149.5 129.5t-50.5 190.5q0 93 37.5 164t99 119
t140.5 72.5t163 24.5q27 0 54 -3.5t53 -9.5q3 7 7.5 17t8 21t6.5 21t3 18t-5 11h192q-11 -1 -26 -17.5t-30.5 -37.5t-28.5 -41.5t-18 -28.5zM197 360q0 -60 22 -114t69 -95q23 45 45 89.5t44 89.5q37 76 75 151l76 150q-15 5 -30.5 7.5t-31.5 2.5q-56 0 -105 -23t-85.5 -62
t-57.5 -90t-21 -106zM463 85q54 0 103 22t86.5 59.5t60 86.5t22.5 103q0 69 -29.5 127t-84.5 100q-34 -62 -65.5 -124t-62.5 -125q-29 -60 -59.5 -117t-61.5 -115q45 -17 91 -17z" />
    <glyph glyph-name="Ugrave" unicode="&#xd9;" horiz-adv-x="883" 
d="M439 97q37 0 79 9t77 29.5t58 52t23 76.5q0 72 2 143.5t2 143.5v39.5t-1 54.5t-3 53t-6 37h182q-9 -9 -13.5 -24.5t-6.5 -33t-2 -34v-28.5q0 -88 3 -173.5t3 -173.5q0 -50 -18 -89.5t-49 -69.5t-71.5 -51.5t-85 -35t-90 -19.5t-86.5 -6q-63 0 -131.5 14.5t-125.5 46.5
t-94.5 83.5t-37.5 126.5q0 88 3 173.5t3 172.5v29t-2 34.5t-6.5 33t-13.5 24.5h188q-4 -12 -6 -37t-3 -53t-1 -54.5v-39.5q0 -72 2 -143.5t2 -143.5q0 -45 21 -76.5t53.5 -51.5t72.5 -29.5t79 -9.5zM556 839l-40 -61l-271 103l61 94z" />
    <glyph glyph-name="Uacute" unicode="&#xda;" horiz-adv-x="883" 
d="M439 97q37 0 79 9t77 29.5t58 52t23 76.5q0 72 2 143.5t2 143.5v39.5t-1 54.5t-3 53t-6 37h182q-9 -9 -13.5 -24.5t-6.5 -33t-2 -34v-28.5q0 -88 3 -173.5t3 -173.5q0 -50 -18 -89.5t-49 -69.5t-71.5 -51.5t-85 -35t-90 -19.5t-86.5 -6q-63 0 -131.5 14.5t-125.5 46.5
t-94.5 83.5t-37.5 126.5q0 88 3 173.5t3 172.5v29t-2 34.5t-6.5 33t-13.5 24.5h188q-4 -12 -6 -37t-3 -53t-1 -54.5v-39.5q0 -72 2 -143.5t2 -143.5q0 -45 21 -76.5t53.5 -51.5t72.5 -29.5t79 -9.5zM576 965l60 -94l-270 -103l-41 61z" />
    <glyph glyph-name="Ucircumflex" unicode="&#xdb;" horiz-adv-x="883" 
d="M439 97q37 0 79 9t77 29.5t58 52t23 76.5q0 72 2 143.5t2 143.5v39.5t-1 54.5t-3 53t-6 37h182q-9 -9 -13.5 -24.5t-6.5 -33t-2 -34v-28.5q0 -88 3 -173.5t3 -173.5q0 -50 -18 -89.5t-49 -69.5t-71.5 -51.5t-85 -35t-90 -19.5t-86.5 -6q-63 0 -131.5 14.5t-125.5 46.5
t-94.5 83.5t-37.5 126.5q0 88 3 173.5t3 172.5v29t-2 34.5t-6.5 33t-13.5 24.5h188q-4 -12 -6 -37t-3 -53t-1 -54.5v-39.5q0 -72 2 -143.5t2 -143.5q0 -45 21 -76.5t53.5 -51.5t72.5 -29.5t79 -9.5zM525 793q-2 4 -14 17t-26.5 28.5t-28 29t-17.5 18.5q-21 -21 -39 -44.5
t-36 -48.5h-127q7 4 23.5 18.5t34 31t33 32.5t22.5 23q1 1 7 7.5t12.5 13t11.5 12.5t4 8h115q-1 -2 2 -5.5t3 -4.5q7 -8 27 -29t43 -44t43.5 -41.5t27.5 -21.5h-121z" />
    <glyph glyph-name="Udieresis" unicode="&#xdc;" horiz-adv-x="883" 
d="M439 97q37 0 79 9t77 29.5t58 52t23 76.5q0 72 2 143.5t2 143.5v39.5t-1 54.5t-3 53t-6 37h182q-9 -9 -13.5 -24.5t-6.5 -33t-2 -34v-28.5q0 -88 3 -173.5t3 -173.5q0 -50 -18 -89.5t-49 -69.5t-71.5 -51.5t-85 -35t-90 -19.5t-86.5 -6q-63 0 -131.5 14.5t-125.5 46.5
t-94.5 83.5t-37.5 126.5q0 88 3 173.5t3 172.5v29t-2 34.5t-6.5 33t-13.5 24.5h188q-4 -12 -6 -37t-3 -53t-1 -54.5v-39.5q0 -72 2 -143.5t2 -143.5q0 -45 21 -76.5t53.5 -51.5t72.5 -29.5t79 -9.5zM412 866q0 -14 -9 -23.5t-21.5 -15.5t-27 -9t-25.5 -3t-25.5 3t-27 9
t-21.5 15.5t-9 23.5t9 23.5t21.5 15.5t27 9t25.5 3t25.5 -3t27 -9t21.5 -15.5t9 -23.5zM574 917q11 0 25.5 -3t27 -9t21.5 -15.5t9 -23.5t-9 -23.5t-21.5 -15.5t-27 -9t-25.5 -3t-25 3t-26.5 9t-21.5 15.5t-9 23.5t9 23.5t21.5 15.5t26.5 9t25 3z" />
    <glyph glyph-name="Yacute" unicode="&#xdd;" horiz-adv-x="639" 
d="M833 737q-18 -10 -52 -44.5t-76 -82.5t-88 -104t-88 -108.5l-76 -95t-51 -64.5q-1 -21 -1 -42v-43v-32t1.5 -47.5t4.5 -46t10 -27.5h-183q5 5 8.5 23t5.5 42.5t2.5 52.5t1 53t0.5 44.5v27.5q-17 21 -51 63.5t-76.5 94t-88.5 107.5t-88 103.5t-76 82t-51 43.5
q60 0 118.5 -0.5t118.5 0.5q-4 -2 -4 -9q0 -15 17 -44t43 -65.5t58 -76.5t62 -76t55 -64t37 -41h5q12 13 36.5 41t55 64t62 76t58 76.5t43 65.5t16.5 44q0 6 -4 9q59 -1 117.5 -0.5t117.5 0.5zM516 955l60 -94l-270 -103l-41 61z" />
    <glyph glyph-name="Thorn" unicode="&#xde;" horiz-adv-x="778" 
d="M798 374q0 -56 -33 -94.5t-86 -64t-119 -40t-131.5 -21.5t-124.5 -9t-97 -2v-17v-28.5t1.5 -37.5t4.5 -36t9 -24h-175q5 6 8.5 29t6 54.5t3.5 67.5t1.5 69t0.5 58.5v36.5q0 36 -0.5 72t-0.5 72q0 10 0.5 33.5t0 53.5t-2 62t-5.5 59.5t-11 46.5t-17 23h224
q-12 -2 -20 -20.5t-12.5 -42.5t-6.5 -47t-2 -33q56 -1 111.5 -3t112.5 -7q32 -3 71 -7.5t79 -13.5t77.5 -24t67 -37t47.5 -53.5t18 -74.5zM208 242q38 1 77 2t78 4q30 2 73.5 6.5t83.5 17.5t68.5 37.5t28.5 66.5q0 28 -19 47t-49.5 31t-68 19t-74 10t-68 3.5t-49.5 0.5h-80
q-1 -62 -0.5 -122.5t-0.5 -122.5z" />
    <glyph glyph-name="germandbls" unicode="&#xdf;" horiz-adv-x="927" 
d="M493 354q0 -32 30.5 -52t76.5 -34.5t99.5 -27t99.5 -29t76.5 -40.5t30.5 -62q0 -39 -29 -65.5t-70 -42.5t-85 -23t-75 -7q-72 0 -139.5 12.5t-133.5 40.5q-6 3 -16.5 8t-21.5 10t-21 9t-15 4q1 2 13 13.5t26 26t25.5 27t11.5 15.5q52 -40 114.5 -59t127.5 -19q7 0 28 1.5
t42.5 5.5t38.5 12t17 20q0 16 -28.5 28.5t-71 24t-92.5 26t-92.5 35t-71 50t-28.5 72.5q0 35 10 62.5t30 55.5q15 21 41 47t51.5 53.5t44 56t18.5 55.5q0 52 -28.5 78.5t-80.5 26.5q-41 0 -75.5 -17t-59 -45t-38.5 -64.5t-14 -75.5q0 -72 -1 -144.5t-1 -145.5v-28.5v-50.5
t1 -61t2 -59t3.5 -46.5t5.5 -22.5h-164q4 3 6 24t3 45.5t1 46.5v28q0 43 -0.5 85.5t-1.5 85.5q-26 -1 -58 -0.5t-57 -4.5l-3 80q12 -3 27 -4.5t30.5 -1.5h31h27.5l-2 72t-1 71q0 34 8 66.5t22 62.5q24 51 61.5 84.5t83 54t96.5 29t104 8.5q43 0 84.5 -7.5t73.5 -26.5
t51.5 -51.5t19.5 -83.5q0 -39 -16 -73t-40.5 -63.5t-53 -55t-53 -47.5t-40.5 -41.5t-16 -37.5z" />
    <glyph glyph-name="agrave" unicode="&#xe0;" horiz-adv-x="639" 
d="M418 -12q17 5 21 22.5t5 31.5q-45 -14 -91 -21t-92 -7q-30 0 -71.5 5t-79 19t-64 39t-26.5 66q0 35 25.5 60t65.5 41.5t90 25.5t98 14t90 6t66 2q0 14 0.5 27t0.5 27q0 25 -9 43.5t-24.5 30.5t-36.5 17.5t-44 5.5q-22 0 -47.5 -6t-48.5 -18t-40 -30.5t-21 -42.5l-126 17
q18 46 50 78t72.5 52t86.5 29.5t92 9.5q44 0 85.5 -11t74 -33.5t52 -57.5t19.5 -83q0 -51 -1.5 -101.5t-1.5 -101.5v-32.5t1.5 -49t4.5 -47t9 -27.5h-185zM156 143q0 -15 16 -23t37.5 -12.5t42.5 -5.5t30 -1q42 0 85 6t83 19q1 18 1.5 36t0.5 35l-26 1q-9 0 -32.5 -0.5
t-53.5 -2t-62.5 -5t-59.5 -9.5t-44.5 -15.5t-17.5 -22.5zM504 655l-40 -61l-271 103l61 94z" />
    <glyph glyph-name="aacute" unicode="&#xe1;" horiz-adv-x="639" 
d="M418 -12q17 5 21 22.5t5 31.5q-45 -14 -91 -21t-92 -7q-30 0 -71.5 5t-79 19t-64 39t-26.5 66q0 35 25.5 60t65.5 41.5t90 25.5t98 14t90 6t66 2q0 14 0.5 27t0.5 27q0 25 -9 43.5t-24.5 30.5t-36.5 17.5t-44 5.5q-22 0 -47.5 -6t-48.5 -18t-40 -30.5t-21 -42.5l-126 17
q18 46 50 78t72.5 52t86.5 29.5t92 9.5q44 0 85.5 -11t74 -33.5t52 -57.5t19.5 -83q0 -51 -1.5 -101.5t-1.5 -101.5v-32.5t1.5 -49t4.5 -47t9 -27.5h-185zM156 143q0 -15 16 -23t37.5 -12.5t42.5 -5.5t30 -1q42 0 85 6t83 19q1 18 1.5 36t0.5 35l-26 1q-9 0 -32.5 -0.5
t-53.5 -2t-62.5 -5t-59.5 -9.5t-44.5 -15.5t-17.5 -22.5zM506 791l60 -94l-270 -103l-41 61z" />
    <glyph glyph-name="acircumflex" unicode="&#xe2;" horiz-adv-x="639" 
d="M418 -12q17 5 21 22.5t5 31.5q-45 -14 -91 -21t-92 -7q-30 0 -71.5 5t-79 19t-64 39t-26.5 66q0 35 25.5 60t65.5 41.5t90 25.5t98 14t90 6t66 2q0 14 0.5 27t0.5 27q0 25 -9 43.5t-24.5 30.5t-36.5 17.5t-44 5.5q-22 0 -47.5 -6t-48.5 -18t-40 -30.5t-21 -42.5l-126 17
q18 46 50 78t72.5 52t86.5 29.5t92 9.5q44 0 85.5 -11t74 -33.5t52 -57.5t19.5 -83q0 -51 -1.5 -101.5t-1.5 -101.5v-32.5t1.5 -49t4.5 -47t9 -27.5h-185zM156 143q0 -15 16 -23t37.5 -12.5t42.5 -5.5t30 -1q42 0 85 6t83 19q1 18 1.5 36t0.5 35l-26 1q-9 0 -32.5 -0.5
t-53.5 -2t-62.5 -5t-59.5 -9.5t-44.5 -15.5t-17.5 -22.5zM412 600q-2 4 -14 17t-26.5 28.5t-28 29t-17.5 18.5q-21 -21 -39 -44.5t-36 -48.5h-127q7 4 23.5 18.5t34 31t33 32.5t22.5 23q1 1 7 7.5t12.5 13t11.5 12.5t4 8h115q-1 -2 2 -5.5t3 -4.5q7 -8 27 -29t43 -44
t43.5 -41.5t27.5 -21.5h-121z" />
    <glyph glyph-name="atilde" unicode="&#xe3;" horiz-adv-x="639" 
d="M418 -12q17 5 21 22.5t5 31.5q-45 -14 -91 -21t-92 -7q-30 0 -71.5 5t-79 19t-64 39t-26.5 66q0 35 25.5 60t65.5 41.5t90 25.5t98 14t90 6t66 2q0 14 0.5 27t0.5 27q0 25 -9 43.5t-24.5 30.5t-36.5 17.5t-44 5.5q-22 0 -47.5 -6t-48.5 -18t-40 -30.5t-21 -42.5l-126 17
q18 46 50 78t72.5 52t86.5 29.5t92 9.5q44 0 85.5 -11t74 -33.5t52 -57.5t19.5 -83q0 -51 -1.5 -101.5t-1.5 -101.5v-32.5t1.5 -49t4.5 -47t9 -27.5h-185zM156 143q0 -15 16 -23t37.5 -12.5t42.5 -5.5t30 -1q42 0 85 6t83 19q1 18 1.5 36t0.5 35l-26 1q-9 0 -32.5 -0.5
t-53.5 -2t-62.5 -5t-59.5 -9.5t-44.5 -15.5t-17.5 -22.5zM510 717l-3 -90q-22 -12 -49.5 -19t-50.5 -7q-26 0 -42 6t-29 13.5t-26 13.5t-32 6q-23 0 -48.5 -16.5t-40.5 -33.5l-2 90q19 16 45.5 25.5t50.5 9.5q23 0 41 -6t33 -13.5t27.5 -13.5t24.5 -6q24 0 52.5 13.5
t48.5 27.5z" />
    <glyph glyph-name="adieresis" unicode="&#xe4;" horiz-adv-x="639" 
d="M418 -12q17 5 21 22.5t5 31.5q-45 -14 -91 -21t-92 -7q-30 0 -71.5 5t-79 19t-64 39t-26.5 66q0 35 25.5 60t65.5 41.5t90 25.5t98 14t90 6t66 2q0 14 0.5 27t0.5 27q0 25 -9 43.5t-24.5 30.5t-36.5 17.5t-44 5.5q-22 0 -47.5 -6t-48.5 -18t-40 -30.5t-21 -42.5l-126 17
q18 46 50 78t72.5 52t86.5 29.5t92 9.5q44 0 85.5 -11t74 -33.5t52 -57.5t19.5 -83q0 -51 -1.5 -101.5t-1.5 -101.5v-32.5t1.5 -49t4.5 -47t9 -27.5h-185zM156 143q0 -15 16 -23t37.5 -12.5t42.5 -5.5t30 -1q42 0 85 6t83 19q1 18 1.5 36t0.5 35l-26 1q-9 0 -32.5 -0.5
t-53.5 -2t-62.5 -5t-59.5 -9.5t-44.5 -15.5t-17.5 -22.5zM320 642q0 -14 -9 -23.5t-21.5 -15.5t-27 -9t-25.5 -3t-25.5 3t-27 9t-21.5 15.5t-9 23.5t9 23.5t21.5 15.5t27 9t25.5 3t25.5 -3t27 -9t21.5 -15.5t9 -23.5zM482 693q11 0 25.5 -3t27 -9t21.5 -15.5t9 -23.5
t-9 -23.5t-21.5 -15.5t-27 -9t-25.5 -3t-25 3t-26.5 9t-21.5 15.5t-9 23.5t9 23.5t21.5 15.5t26.5 9t25 3z" />
    <glyph glyph-name="aring" unicode="&#xe5;" horiz-adv-x="639" 
d="M156 143q0 -15 16 -23t37.5 -12.5t42.5 -5.5t30 -1q42 0 85 6t83 19q1 18 1.5 36t0.5 35l-26 1q-9 0 -32.5 -0.5t-53.5 -2t-62.5 -5t-59.5 -9.5t-44.5 -15.5t-17.5 -22.5zM360 710q21 0 46.5 -5t48 -16.5t37.5 -29.5t15 -44q0 -19 -9.5 -33.5t-25 -25t-34.5 -17t-38 -9.5
q38 -4 72.5 -17t61 -35.5t42 -55t15.5 -75.5q0 -51 -1.5 -101.5t-1.5 -101.5v-32.5t1.5 -49t4.5 -47t9 -27.5h-185q17 5 21 22.5t5 31.5q-45 -14 -91 -21t-92 -7q-30 0 -71.5 5t-79 19t-64 39t-26.5 66q0 35 25.5 60t65.5 41.5t90 25.5t98 14t90 6t66 2q0 14 0.5 27t0.5 27
q0 25 -9 43.5t-24.5 30.5t-36.5 17.5t-44 5.5q-22 0 -47.5 -6t-48.5 -18t-40 -30.5t-21 -42.5l-126 17q16 40 42.5 70t60.5 50t73 31.5t80 15.5q-18 3 -36.5 9.5t-32.5 17t-23 25.5t-9 35q0 26 15 44t37.5 29t47.5 15.5t46 4.5zM297 618q0 -12 6 -20t15.5 -13.5t20.5 -7.5
t21 -2q9 0 20 2.5t21 7.5t16.5 13t6.5 19q0 12 -6.5 20t-16 13.5t-20.5 8t-21 2.5t-21 -2.5t-20.5 -7.5t-15.5 -13t-6 -20z" />
    <glyph glyph-name="ae" unicode="&#xe6;" horiz-adv-x="1076" 
d="M1046 37q-68 -25 -129.5 -38.5t-134.5 -13.5q-49 0 -98.5 11.5t-92.5 34.5q0 -7 1 -21.5t6 -21.5h-162q3 3 5 10.5t3.5 16.5t2.5 17t1 12q-45 -15 -92.5 -22.5t-95.5 -7.5q-29 0 -70.5 5t-79 19t-64 39t-26.5 65q0 35 26 59.5t66.5 41t91 25.5t99 13.5t90 6t65.5 1.5
q1 14 1 28.5v29.5q0 26 -9.5 45t-25 31t-36.5 18t-45 6q-22 0 -48.5 -6t-50 -18t-41 -30t-21.5 -43l-122 16q18 45 50 76.5t72.5 51.5t86.5 29t91 9q31 0 62.5 -5t59.5 -16.5t51 -31.5t38 -50q51 43 113 61.5t127 18.5q54 0 96 -17.5t70 -49t42.5 -74.5t14.5 -95
q0 -49 -15 -94h-423q10 -32 32 -52t50 -31.5t59.5 -16t60.5 -4.5q16 0 45 2.5t59.5 8t57.5 14t39 19.5zM782 420q-32 0 -62 -12.5t-55 -33.5t-43.5 -48.5t-25.5 -57.5h294q1 8 1.5 16.5t0.5 16.5q0 59 -24.5 89t-85.5 30zM152 142q0 -16 16.5 -25t38 -13.5t43 -5.5t31.5 -1
q42 0 87 6t85 19l3 78h-30q-10 0 -34 -0.5t-54.5 -2t-63 -5t-60 -10t-45 -16.5t-17.5 -24z" />
    <glyph glyph-name="ccedilla" unicode="&#xe7;" horiz-adv-x="646" 
d="M272 19q23 -4 44.5 -5t41.5 -2l3 13l-89 1v-7zM313 -211q-29 0 -54 5t-44.5 17t-31.5 32.5t-14 52.5l75 3v-11q0 -26 20.5 -37.5t43.5 -11.5q8 0 21 1.5t25 6t20.5 12t8.5 19.5q0 13 -11.5 20t-27.5 10t-31.5 3.5t-24.5 1.5h-13l-3 106q-43 6 -86 18.5t-77.5 35t-56 56
t-21.5 80.5q0 73 35.5 128.5t91 93t123 56.5t132.5 19q36 0 72 -5.5t65 -20.5t47 -42t18 -70q0 -22 -4 -43t-10 -42h-155q13 14 26 33t13 38q0 18 -13 29.5t-31 17.5t-37.5 8.5t-32.5 2.5q-41 0 -77 -14.5t-63 -40t-42.5 -60.5t-15.5 -77q0 -39 16.5 -62t42 -34.5
t57.5 -14.5t64 -3q49 0 102 8t100 22l27 -89q-48 -18 -107 -26.5t-111 -8.5h-6l-12 -53q18 -2 39 -6t39 -12.5t30 -23t12 -38.5q0 -27 -16 -44.5t-39.5 -27.5t-50 -14t-47.5 -4z" />
    <glyph glyph-name="egrave" unicode="&#xe8;" horiz-adv-x="635" 
d="M339 -15q-49 0 -104 13t-101.5 40.5t-77 69.5t-30.5 100q0 71 28 127t75 94.5t109 59t130 20.5q54 0 96 -17.5t70 -49t42.5 -74.5t14.5 -95q0 -50 -15 -96h-417q10 -30 31.5 -49t49 -29.5t58 -14.5t57.5 -4q17 0 45.5 2.5t58.5 8t56.5 13.5t39.5 20l49 -86
q-66 -25 -130 -39t-135 -14zM339 415q-30 0 -59.5 -12t-53.5 -31.5t-42 -46t-26 -54.5h286q3 30 0.5 56.5t-13.5 46t-33 30.5t-59 11zM504 625l-40 -61l-271 103l61 94z" />
    <glyph glyph-name="eacute" unicode="&#xe9;" horiz-adv-x="635" 
d="M339 -15q-49 0 -104 13t-101.5 40.5t-77 69.5t-30.5 100q0 71 28 127t75 94.5t109 59t130 20.5q54 0 96 -17.5t70 -49t42.5 -74.5t14.5 -95q0 -50 -15 -96h-417q10 -30 31.5 -49t49 -29.5t58 -14.5t57.5 -4q17 0 45.5 2.5t58.5 8t56.5 13.5t39.5 20l49 -86
q-66 -25 -130 -39t-135 -14zM339 415q-30 0 -59.5 -12t-53.5 -31.5t-42 -46t-26 -54.5h286q3 30 0.5 56.5t-13.5 46t-33 30.5t-59 11zM496 772l60 -94l-270 -103l-41 61z" />
    <glyph glyph-name="ecircumflex" unicode="&#xea;" horiz-adv-x="635" 
d="M339 -15q-49 0 -104 13t-101.5 40.5t-77 69.5t-30.5 100q0 71 28 127t75 94.5t109 59t130 20.5q54 0 96 -17.5t70 -49t42.5 -74.5t14.5 -95q0 -50 -15 -96h-417q10 -30 31.5 -49t49 -29.5t58 -14.5t57.5 -4q17 0 45.5 2.5t58.5 8t56.5 13.5t39.5 20l49 -86
q-66 -25 -130 -39t-135 -14zM339 415q-30 0 -59.5 -12t-53.5 -31.5t-42 -46t-26 -54.5h286q3 30 0.5 56.5t-13.5 46t-33 30.5t-59 11zM443 579q-2 4 -14 17t-26.5 28.5t-28 29t-17.5 18.5q-21 -21 -39 -44.5t-36 -48.5h-127q7 4 23.5 18.5t34 31t33 32.5t22.5 23q1 1 7 7.5
t12.5 13t11.5 12.5t4 8h115q-1 -2 2 -5.5t3 -4.5q7 -8 27 -29t43 -44t43.5 -41.5t27.5 -21.5h-121z" />
    <glyph glyph-name="edieresis" unicode="&#xeb;" horiz-adv-x="635" 
d="M339 -15q-49 0 -104 13t-101.5 40.5t-77 69.5t-30.5 100q0 71 28 127t75 94.5t109 59t130 20.5q54 0 96 -17.5t70 -49t42.5 -74.5t14.5 -95q0 -50 -15 -96h-417q10 -30 31.5 -49t49 -29.5t58 -14.5t57.5 -4q17 0 45.5 2.5t58.5 8t56.5 13.5t39.5 20l49 -86
q-66 -25 -130 -39t-135 -14zM339 415q-30 0 -59.5 -12t-53.5 -31.5t-42 -46t-26 -54.5h286q3 30 0.5 56.5t-13.5 46t-33 30.5t-59 11zM330 632q0 -14 -9 -23.5t-21.5 -15.5t-27 -9t-25.5 -3t-25.5 3t-27 9t-21.5 15.5t-9 23.5t9 23.5t21.5 15.5t27 9t25.5 3t25.5 -3t27 -9
t21.5 -15.5t9 -23.5zM492 683q11 0 25.5 -3t27 -9t21.5 -15.5t9 -23.5t-9 -23.5t-21.5 -15.5t-27 -9t-25.5 -3t-25 3t-26.5 9t-21.5 15.5t-9 23.5t9 23.5t21.5 15.5t26.5 9t25 3z" />
    <glyph glyph-name="igrave" unicode="&#xec;" horiz-adv-x="285" 
d="M67 468l176 -1q-5 -1 -7.5 -8.5t-4.5 -11.5q-7 -25 -10.5 -60.5t-5 -74t-2 -74.5t-0.5 -63v-36.5t1.5 -58.5t4.5 -56.5t9 -31.5h-177q5 7 10 33t8.5 62t6.5 77.5t5.5 79t3.5 67t1 40.5v24t-2 37.5t-6 36t-11 19.5zM218 615l-40 -61l-271 103l61 94z" />
    <glyph glyph-name="iacute" unicode="&#xed;" horiz-adv-x="285" 
d="M67 468l176 -1q-5 -1 -7.5 -8.5t-4.5 -11.5q-7 -25 -10.5 -60.5t-5 -74t-2 -74.5t-0.5 -63v-36.5t1.5 -58.5t4.5 -56.5t9 -31.5h-177q5 7 10 33t8.5 62t6.5 77.5t5.5 79t3.5 67t1 40.5v24t-2 37.5t-6 36t-11 19.5zM332 761l60 -94l-270 -103l-41 61z" />
    <glyph glyph-name="icircumflex" unicode="&#xee;" horiz-adv-x="285" 
d="M67 468l176 -1q-5 -1 -7.5 -8.5t-4.5 -11.5q-7 -25 -10.5 -60.5t-5 -74t-2 -74.5t-0.5 -63v-36.5t1.5 -58.5t4.5 -56.5t9 -31.5h-177q5 7 10 33t8.5 62t6.5 77.5t5.5 79t3.5 67t1 40.5v24t-2 37.5t-6 36t-11 19.5zM248 569q-2 4 -14 17t-26.5 28.5t-28 29t-17.5 18.5
q-21 -21 -39 -44.5t-36 -48.5h-127q7 4 23.5 18.5t34 31t33 32.5t22.5 23q1 1 7 7.5t12.5 13t11.5 12.5t4 8h115q-1 -2 2 -5.5t3 -4.5q7 -8 27 -29t43 -44t43.5 -41.5t27.5 -21.5h-121z" />
    <glyph glyph-name="idieresis" unicode="&#xef;" horiz-adv-x="285" 
d="M67 468l176 -1q-5 -1 -7.5 -8.5t-4.5 -11.5q-7 -25 -10.5 -60.5t-5 -74t-2 -74.5t-0.5 -63v-36.5t1.5 -58.5t4.5 -56.5t9 -31.5h-177q5 7 10 33t8.5 62t6.5 77.5t5.5 79t3.5 67t1 40.5v24t-2 37.5t-6 36t-11 19.5zM125 621q0 -14 -9 -23.5t-21.5 -15.5t-27 -9t-25.5 -3
t-25.5 3t-27 9t-21.5 15.5t-9 23.5t9 23.5t21.5 15.5t27 9t25.5 3t25.5 -3t27 -9t21.5 -15.5t9 -23.5zM287 672q11 0 25.5 -3t27 -9t21.5 -15.5t9 -23.5t-9 -23.5t-21.5 -15.5t-27 -9t-25.5 -3t-25 3t-26.5 9t-21.5 15.5t-9 23.5t9 23.5t21.5 15.5t26.5 9t25 3z" />
    <glyph glyph-name="eth" unicode="&#xf0;" horiz-adv-x="758" 
d="M181 232q0 -39 17.5 -66t45 -44t61.5 -24.5t67 -7.5q31 0 65 8t63 25t48 43.5t19 63.5t-18 64.5t-46 46t-62.5 27.5t-66.5 9q-33 0 -67 -8.5t-62 -26t-46 -45t-18 -65.5zM215 620q7 0 22.5 5.5t33 12.5t33 14.5t22.5 10.5l16 8q-24 16 -51 31t-56 31v85q118 -33 215 -95
q25 13 49 25.5t44.5 23.5t34 19.5t17.5 12.5l44 -101q-4 0 -14.5 -3t-25.5 -9t-32.5 -13.5t-35.5 -15.5q87 -77 136.5 -181t49.5 -234q0 -45 -16 -82t-42.5 -66t-61.5 -50.5t-73.5 -35t-78.5 -20.5t-75 -7q-57 0 -117 13t-109.5 42t-81 75.5t-31.5 114.5q0 67 32.5 114.5
t82.5 78t110.5 44.5t117.5 14q38 0 79 -7.5t80 -21.5q-20 47 -48 85.5t-66 73.5q-17 -8 -41.5 -19.5t-49 -23.5t-43.5 -22.5t-25 -16.5z" />
    <glyph glyph-name="ntilde" unicode="&#xf1;" horiz-adv-x="696" 
d="M645 308q0 -69 -6.5 -137t-6.5 -137q0 -23 3 -45h-175q10 16 15 53.5t7.5 80t3 82t0.5 60.5q0 61 -30 95.5t-93 34.5q-21 0 -40.5 -7.5t-37 -19.5t-33 -27t-27.5 -30q-3 -87 -3 -174v-27.5t1 -43.5t3 -42.5t7 -23.5h-177q4 6 8 29.5t7 56t5 69.5t3.5 71t2 60t0.5 36
q0 8 -0.5 33.5t-2.5 53t-6.5 50.5t-13.5 26l175 -1l-3 -48q37 27 82.5 44.5t92.5 17.5q46 0 89.5 -9.5t76.5 -32t53 -58.5t20 -90zM521 686l-3 -90q-22 -12 -49.5 -19t-50.5 -7q-26 0 -42 6t-29 13.5t-26 13.5t-32 6q-23 0 -48.5 -16.5t-40.5 -33.5l-2 90q19 16 45.5 25.5
t50.5 9.5q23 0 41 -6t33 -13.5t27.5 -13.5t24.5 -6q24 0 52.5 13.5t48.5 27.5z" />
    <glyph glyph-name="ograve" unicode="&#xf2;" horiz-adv-x="748" 
d="M374 482q55 0 116 -15.5t111 -47t83 -79.5t33 -113q0 -43 -16 -77.5t-42.5 -61t-61.5 -46t-73.5 -32t-78.5 -18.5t-75 -6q-57 0 -117 13t-109.5 42t-81 75.5t-31.5 114.5q0 67 32.5 114.5t82.5 78t110.5 44.5t117.5 14zM181 232q0 -39 17.5 -66t45 -44t61.5 -24.5
t67 -7.5q31 0 65 8t63 25t48 43.5t19 63.5t-18 64.5t-46 46t-62.5 27.5t-66.5 9q-33 0 -67 -8.5t-62 -26t-46 -45t-18 -65.5zM515 605l-40 -61l-271 103l61 94z" />
    <glyph glyph-name="oacute" unicode="&#xf3;" horiz-adv-x="748" 
d="M374 482q55 0 116 -15.5t111 -47t83 -79.5t33 -113q0 -43 -16 -77.5t-42.5 -61t-61.5 -46t-73.5 -32t-78.5 -18.5t-75 -6q-57 0 -117 13t-109.5 42t-81 75.5t-31.5 114.5q0 67 32.5 114.5t82.5 78t110.5 44.5t117.5 14zM181 232q0 -39 17.5 -66t45 -44t61.5 -24.5
t67 -7.5q31 0 65 8t63 25t48 43.5t19 63.5t-18 64.5t-46 46t-62.5 27.5t-66.5 9q-33 0 -67 -8.5t-62 -26t-46 -45t-18 -65.5zM516 741l60 -94l-270 -103l-41 61z" />
    <glyph glyph-name="ocircumflex" unicode="&#xf4;" horiz-adv-x="748" 
d="M374 482q55 0 116 -15.5t111 -47t83 -79.5t33 -113q0 -43 -16 -77.5t-42.5 -61t-61.5 -46t-73.5 -32t-78.5 -18.5t-75 -6q-57 0 -117 13t-109.5 42t-81 75.5t-31.5 114.5q0 67 32.5 114.5t82.5 78t110.5 44.5t117.5 14zM181 232q0 -39 17.5 -66t45 -44t61.5 -24.5
t67 -7.5q31 0 65 8t63 25t48 43.5t19 63.5t-18 64.5t-46 46t-62.5 27.5t-66.5 9q-33 0 -67 -8.5t-62 -26t-46 -45t-18 -65.5zM453 548q-2 4 -14 17t-26.5 28.5t-28 29t-17.5 18.5q-21 -21 -39 -44.5t-36 -48.5h-127q7 4 23.5 18.5t34 31t33 32.5t22.5 23q1 1 7 7.5t12.5 13
t11.5 12.5t4 8h115q-1 -2 2 -5.5t3 -4.5q7 -8 27 -29t43 -44t43.5 -41.5t27.5 -21.5h-121z" />
    <glyph glyph-name="otilde" unicode="&#xf5;" horiz-adv-x="748" 
d="M374 482q55 0 116 -15.5t111 -47t83 -79.5t33 -113q0 -43 -16 -77.5t-42.5 -61t-61.5 -46t-73.5 -32t-78.5 -18.5t-75 -6q-57 0 -117 13t-109.5 42t-81 75.5t-31.5 114.5q0 67 32.5 114.5t82.5 78t110.5 44.5t117.5 14zM181 232q0 -39 17.5 -66t45 -44t61.5 -24.5
t67 -7.5q31 0 65 8t63 25t48 43.5t19 63.5t-18 64.5t-46 46t-62.5 27.5t-66.5 9q-33 0 -67 -8.5t-62 -26t-46 -45t-18 -65.5zM551 676l-3 -90q-22 -12 -49.5 -19t-50.5 -7q-26 0 -42 6t-29 13.5t-26 13.5t-32 6q-23 0 -48.5 -16.5t-40.5 -33.5l-2 90q19 16 45.5 25.5
t50.5 9.5q23 0 41 -6t33 -13.5t27.5 -13.5t24.5 -6q24 0 52.5 13.5t48.5 27.5z" />
    <glyph glyph-name="odieresis" unicode="&#xf6;" horiz-adv-x="748" 
d="M374 482q55 0 116 -15.5t111 -47t83 -79.5t33 -113q0 -43 -16 -77.5t-42.5 -61t-61.5 -46t-73.5 -32t-78.5 -18.5t-75 -6q-57 0 -117 13t-109.5 42t-81 75.5t-31.5 114.5q0 67 32.5 114.5t82.5 78t110.5 44.5t117.5 14zM181 232q0 -39 17.5 -66t45 -44t61.5 -24.5
t67 -7.5q31 0 65 8t63 25t48 43.5t19 63.5t-18 64.5t-46 46t-62.5 27.5t-66.5 9q-33 0 -67 -8.5t-62 -26t-46 -45t-18 -65.5zM340 621q0 -14 -9 -23.5t-21.5 -15.5t-27 -9t-25.5 -3t-25.5 3t-27 9t-21.5 15.5t-9 23.5t9 23.5t21.5 15.5t27 9t25.5 3t25.5 -3t27 -9
t21.5 -15.5t9 -23.5zM502 672q11 0 25.5 -3t27 -9t21.5 -15.5t9 -23.5t-9 -23.5t-21.5 -15.5t-27 -9t-25.5 -3t-25 3t-26.5 9t-21.5 15.5t-9 23.5t9 23.5t21.5 15.5t26.5 9t25 3z" />
    <glyph glyph-name="divide" unicode="&#xf7;" horiz-adv-x="532" 
d="M20 369q8 -3 27 -4.5t41 -2t41.5 -0.5h28.5q12 0 40.5 0.5t65.5 1t77.5 2t76 3t61 4t33.5 5.5l-3 -123q-5 3 -23.5 5t-44.5 3t-56 1.5t-57 1t-48 0.5h-29h-46.5t-70 -0.5t-69 -2.5t-42.5 -5zM267 214q11 0 25.5 -3t27 -9t21.5 -15.5t9 -23.5t-9 -23.5t-21.5 -15.5t-27 -9
t-25.5 -3t-25.5 3t-27 9t-21.5 15.5t-9 23.5t9 23.5t21.5 15.5t27 9t25.5 3zM267 518q11 0 25.5 -3t27 -9t21.5 -15.5t9 -23.5t-9 -23.5t-21.5 -15.5t-27 -9t-25.5 -3t-25.5 3t-27 9t-21.5 15.5t-9 23.5t9 23.5t21.5 15.5t27 9t25.5 3z" />
    <glyph glyph-name="oslash" unicode="&#xf8;" horiz-adv-x="734" 
d="M524 448q37 -14 69.5 -34.5t57 -48t39 -62t14.5 -76.5q0 -63 -33.5 -107.5t-84.5 -73t-110.5 -42t-111.5 -13.5h-23q-4 -10 -9 -28.5t-5 -29.5q0 -3 1 -5h-160q4 1 11.5 13t15 26.5t14 27.5l8.5 17q-39 12 -73 31.5t-59 46.5t-39.5 62t-14.5 79q0 66 31.5 112.5t81 76
t108.5 43.5t115 14q11 0 21 -0.5t20 -1.5q4 10 9 28t5 28q0 4 -1 5h158q-5 0 -13.5 -12.5t-17 -27.5t-15.5 -29.5t-9 -18.5zM170 232q0 -45 25.5 -75.5t66.5 -46.5q29 66 57 132.5t54 133.5h-6q-33 1 -67.5 -7t-63.5 -25.5t-47.5 -45t-18.5 -66.5zM375 91q30 1 63 10
t61.5 25.5t47 42t18.5 61.5q0 43 -24 73t-62 48q-28 -65 -54 -129.5t-50 -130.5z" />
    <glyph glyph-name="ugrave" unicode="&#xf9;" horiz-adv-x="686" 
d="M637.5 457q-3.5 -23 -6.5 -54.5t-5 -68.5t-3.5 -70.5t-2 -60t-0.5 -38.5v-35.5t2.5 -52.5t7 -49t13.5 -26l-176 1l4 48q-38 -27 -83 -44.5t-92 -17.5t-90.5 11.5t-76.5 35.5t-53 61.5t-20 90.5q0 67 6.5 133t6.5 133q0 11 -0.5 22t-2.5 22h169q-10 -17 -15 -54t-7.5 -79
t-3 -81.5t-0.5 -61.5q0 -38 6 -63t20.5 -40t39.5 -21t63 -6q21 0 40.5 7.5t37.5 19.5t33 27t27 30q2 44 3 87t1 87v29.5t-1 42.5t-3.5 40.5t-6.5 24.5h176q-4 -7 -7.5 -30zM504 615l-40 -61l-271 103l61 94z" />
    <glyph glyph-name="uacute" unicode="&#xfa;" horiz-adv-x="686" 
d="M637.5 457q-3.5 -23 -6.5 -54.5t-5 -68.5t-3.5 -70.5t-2 -60t-0.5 -38.5v-35.5t2.5 -52.5t7 -49t13.5 -26l-176 1l4 48q-38 -27 -83 -44.5t-92 -17.5t-90.5 11.5t-76.5 35.5t-53 61.5t-20 90.5q0 67 6.5 133t6.5 133q0 11 -0.5 22t-2.5 22h169q-10 -17 -15 -54t-7.5 -79
t-3 -81.5t-0.5 -61.5q0 -38 6 -63t20.5 -40t39.5 -21t63 -6q21 0 40.5 7.5t37.5 19.5t33 27t27 30q2 44 3 87t1 87v29.5t-1 42.5t-3.5 40.5t-6.5 24.5h176q-4 -7 -7.5 -30zM506 741l60 -94l-270 -103l-41 61z" />
    <glyph glyph-name="ucircumflex" unicode="&#xfb;" horiz-adv-x="686" 
d="M637.5 457q-3.5 -23 -6.5 -54.5t-5 -68.5t-3.5 -70.5t-2 -60t-0.5 -38.5v-35.5t2.5 -52.5t7 -49t13.5 -26l-176 1l4 48q-38 -27 -83 -44.5t-92 -17.5t-90.5 11.5t-76.5 35.5t-53 61.5t-20 90.5q0 67 6.5 133t6.5 133q0 11 -0.5 22t-2.5 22h169q-10 -17 -15 -54t-7.5 -79
t-3 -81.5t-0.5 -61.5q0 -38 6 -63t20.5 -40t39.5 -21t63 -6q21 0 40.5 7.5t37.5 19.5t33 27t27 30q2 44 3 87t1 87v29.5t-1 42.5t-3.5 40.5t-6.5 24.5h176q-4 -7 -7.5 -30zM443 579q-2 4 -14 17t-26.5 28.5t-28 29t-17.5 18.5q-21 -21 -39 -44.5t-36 -48.5h-127
q7 4 23.5 18.5t34 31t33 32.5t22.5 23q1 1 7 7.5t12.5 13t11.5 12.5t4 8h115q-1 -2 2 -5.5t3 -4.5q7 -8 27 -29t43 -44t43.5 -41.5t27.5 -21.5h-121z" />
    <glyph glyph-name="udieresis" unicode="&#xfc;" horiz-adv-x="686" 
d="M637.5 457q-3.5 -23 -6.5 -54.5t-5 -68.5t-3.5 -70.5t-2 -60t-0.5 -38.5v-35.5t2.5 -52.5t7 -49t13.5 -26l-176 1l4 48q-38 -27 -83 -44.5t-92 -17.5t-90.5 11.5t-76.5 35.5t-53 61.5t-20 90.5q0 67 6.5 133t6.5 133q0 11 -0.5 22t-2.5 22h169q-10 -17 -15 -54t-7.5 -79
t-3 -81.5t-0.5 -61.5q0 -38 6 -63t20.5 -40t39.5 -21t63 -6q21 0 40.5 7.5t37.5 19.5t33 27t27 30q2 44 3 87t1 87v29.5t-1 42.5t-3.5 40.5t-6.5 24.5h176q-4 -7 -7.5 -30zM330 642q0 -14 -9 -23.5t-21.5 -15.5t-27 -9t-25.5 -3t-25.5 3t-27 9t-21.5 15.5t-9 23.5t9 23.5
t21.5 15.5t27 9t25.5 3t25.5 -3t27 -9t21.5 -15.5t9 -23.5zM492 693q11 0 25.5 -3t27 -9t21.5 -15.5t9 -23.5t-9 -23.5t-21.5 -15.5t-27 -9t-25.5 -3t-25 3t-26.5 9t-21.5 15.5t-9 23.5t9 23.5t21.5 15.5t26.5 9t25 3z" />
    <glyph glyph-name="yacute" unicode="&#xfd;" horiz-adv-x="666" 
d="M614 474q-2 -22 -3 -47.5t-1 -49v-32.5q0 -82 1 -163.5t1 -162.5q0 -62 -27.5 -108.5t-71.5 -77t-99 -45.5t-110 -15q-61 0 -121.5 1t-120.5 2l10 116q15 -6 42.5 -11.5t57.5 -9t58 -5.5t46 -2q47 0 84 8t63 27.5t40 53.5t14 85q0 9 -0.5 18.5t-1.5 18.5q-40 -29 -88 -43
t-97 -14q-72 0 -119.5 22.5t-75.5 62t-39.5 94t-11.5 118.5q0 31 2 62t2 62q0 14 -1.5 30.5t-10.5 27.5l182 -1q-8 -13 -14.5 -38t-10.5 -53t-6 -54.5t-2 -42.5q0 -40 5.5 -74t21.5 -59.5t43.5 -40t71.5 -14.5q18 0 41 3t44 11.5t37 22.5t19 36q3 18 3 36.5v35.5
q0 15 -1.5 50.5t-4.5 73t-8.5 70t-13.5 41.5l177 2q-4 -6 -6 -28zM516 751l60 -94l-270 -103l-41 61z" />
    <glyph glyph-name="thorn" unicode="&#xfe;" horiz-adv-x="739" 
d="M415 442q36 0 75.5 -6t76.5 -19.5t68.5 -36.5t51.5 -56q26 -43 26 -91q0 -39 -20 -71.5t-50 -58t-66 -44t-68 -28.5q-68 -21 -138 -21q-44 0 -86.5 8.5t-80.5 28.5v-64v-42t1 -60t3 -57.5t7 -35.5h-179q6 13 10.5 64.5t8.5 123.5t7 155t5 159t3 135.5t1 84.5v25.5
t-0.5 39t-1.5 45t-3 43.5t-5.5 35t-8.5 19l193 -1q-6 -5 -10 -28t-7.5 -55.5t-6.5 -70t-4.5 -72.5t-3 -62t-1.5 -39q45 27 97.5 40t105.5 13zM369 99q25 0 51 4t50 13.5t44 24.5t34 37q18 29 18 59q0 34 -17.5 58t-43.5 38t-58 20.5t-60 6.5q-23 0 -47 -4t-46 -13t-41 -24
t-32 -36q-5 -8 -8.5 -17t-5.5 -18q-1 -6 -1 -12.5v-12.5v-18q0 -6 3 -16t6 -15q10 -23 27 -37.5t38 -23t44 -11.5t45 -3z" />
    <glyph glyph-name="ydieresis" unicode="&#xff;" horiz-adv-x="666" 
d="M614 474q-2 -22 -3 -47.5t-1 -49v-32.5q0 -82 1 -163.5t1 -162.5q0 -62 -27.5 -108.5t-71.5 -77t-99 -45.5t-110 -15q-61 0 -121.5 1t-120.5 2l10 116q15 -6 42.5 -11.5t57.5 -9t58 -5.5t46 -2q47 0 84 8t63 27.5t40 53.5t14 85q0 9 -0.5 18.5t-1.5 18.5q-40 -29 -88 -43
t-97 -14q-72 0 -119.5 22.5t-75.5 62t-39.5 94t-11.5 118.5q0 31 2 62t2 62q0 14 -1.5 30.5t-10.5 27.5l182 -1q-8 -13 -14.5 -38t-10.5 -53t-6 -54.5t-2 -42.5q0 -40 5.5 -74t21.5 -59.5t43.5 -40t71.5 -14.5q18 0 41 3t44 11.5t37 22.5t19 36q3 18 3 36.5v35.5
q0 15 -1.5 50.5t-4.5 73t-8.5 70t-13.5 41.5l177 2q-4 -6 -6 -28zM299 642q0 -14 -9 -23.5t-21.5 -15.5t-27 -9t-25.5 -3t-25.5 3t-27 9t-21.5 15.5t-9 23.5t9 23.5t21.5 15.5t27 9t25.5 3t25.5 -3t27 -9t21.5 -15.5t9 -23.5zM461 693q11 0 25.5 -3t27 -9t21.5 -15.5
t9 -23.5t-9 -23.5t-21.5 -15.5t-27 -9t-25.5 -3t-25 3t-26.5 9t-21.5 15.5t-9 23.5t9 23.5t21.5 15.5t26.5 9t25 3z" />
    <glyph glyph-name="dotlessi" unicode="&#x131;" horiz-adv-x="285" 
d="M67 468l176 -1q-5 -1 -7.5 -8.5t-4.5 -11.5q-7 -25 -10.5 -60.5t-5 -74t-2 -74.5t-0.5 -63v-36.5t1.5 -58.5t4.5 -56.5t9 -31.5h-177q5 7 10 33t8.5 62t6.5 77.5t5.5 79t3.5 67t1 40.5v24t-2 37.5t-6 36t-11 19.5z" />
    <glyph glyph-name="Lslash" unicode="&#x141;" horiz-adv-x="731" 
d="M-91 361q8 0 25.5 5.5t37 12t37.5 13.5t26 10l12.5 5t18.5 8v44q0 8 0.5 31.5t0 53.5t-2 63t-5.5 61t-11 47t-17 22h224q-14 0 -22.5 -26t-14 -65t-7.5 -85t-2 -86q24 10 46.5 20.5t40.5 19.5t30 15.5t16 10.5l42 -115q-5 1 -24 -4.5t-44.5 -14t-54 -19.5t-53.5 -20
q0 -65 -1 -129t0 -129q34 -2 63 -2.5t57 -0.5h57.5h63.5h28h48.5t58.5 0.5t57.5 1t45.5 1.5t24 3l11 -111l-674 -2q6 6 10 37.5t6.5 76.5t3 97.5t0.5 100.5q-18 -8 -37 -15.5t-34.5 -14.5t-27 -13t-15.5 -10z" />
    <glyph glyph-name="lslash" unicode="&#x142;" horiz-adv-x="304" 
d="M-79 361q7 0 25 5.5t37.5 12t37 13.5t25.5 10q6 2 18 7t29 12q2 47 2.5 80.5t0.5 46.5v36.5t-1.5 58.5t-5.5 56.5t-12 30.5l191 -2q-5 -1 -7.5 -12t-3.5 -15q-11 -50 -14 -101.5t-6 -102.5l-1 -15q44 20 77 36t40 23l43 -115q-5 1 -22.5 -4t-41 -13t-50.5 -18t-51 -19
q-2 -53 -3 -105t-1 -106v-33.5t1 -53.5t3 -52.5t7 -30.5h-177q5 7 9 38.5t7.5 77t6.5 101t5 109.5q-20 -8 -40 -16.5t-37 -16.5t-30 -14.5t-18 -10.5z" />
    <glyph glyph-name="OE" unicode="&#x152;" horiz-adv-x="1509" 
d="M757 0q4 5 7 16t4.5 23.5t2.5 24t1 17.5q-32 -23 -69 -40.5t-76.5 -29.5t-80 -18t-79.5 -6q-86 0 -165.5 23t-141 69t-98 116t-36.5 164t38 165t100.5 119t142.5 72t164 24q78 0 158 -26.5t143 -73.5q0 6 -1.5 18.5t-3.5 26t-5 25t-7 16.5q-6 6 -14 12l726 -2l-11 -111
q-5 2 -25 3.5t-47.5 2t-59 1t-60 0.5h-50.5h-30q-128 0 -257 -3q-5 -50 -6.5 -99.5t-1.5 -100.5l460 5v-107q-5 2 -20.5 3t-36.5 1.5t-45 1t-45.5 0.5h-38.5h-24q-126 0 -250 -3q0 -45 -1 -89.5t-1 -89.5v-40q71 -3 141.5 -3h141.5h30h50.5t60 0.5t59 1t47.5 1.5t25 3
l11 -111zM468 85q54 0 103.5 22t87.5 59t61 86.5t23 103.5t-21.5 105.5t-59 91t-87 64t-104.5 24.5q-56 0 -105.5 -23t-86.5 -61.5t-58.5 -89.5t-21.5 -107q0 -57 20.5 -107t56.5 -87.5t85 -59t107 -21.5z" />
    <glyph glyph-name="oe" unicode="&#x153;" horiz-adv-x="1189" 
d="M1158 37q-66 -25 -129.5 -38.5t-134.5 -13.5q-33 0 -69 6t-70 17.5t-65 29.5t-55 42q-26 -23 -59 -39.5t-68.5 -27.5t-72.5 -16.5t-71 -5.5q-56 0 -115 12.5t-107.5 41t-79.5 74.5t-31 112t31.5 112.5t81 76t108.5 43.5t115 14q34 0 71 -6t73 -18.5t68 -30.5t58 -42
q25 34 57.5 58.5t69.5 40t77.5 23t82.5 7.5q54 0 95.5 -17.5t69.5 -48.5t42.5 -74.5t14.5 -95.5q0 -24 -3 -47.5t-11 -46.5h-423q9 -32 31 -52t50.5 -31.5t60 -16t60.5 -4.5q18 0 46.5 2.5t58 8t56 13.5t40.5 20zM894 420q-32 0 -62 -12.5t-55 -33.5t-43.5 -48.5
t-25.5 -57.5h295q1 8 1 16.5v16.5q0 59 -24.5 89t-85.5 30zM365 91q31 0 66 8t65 24.5t49.5 43t19.5 63.5t-19 64.5t-48 45.5t-64 27t-67 9t-67 -8t-64 -25.5t-47.5 -44.5t-18.5 -66t18 -65.5t46.5 -43.5t63 -24.5t67.5 -7.5z" />
    <glyph glyph-name="Scaron" unicode="&#x160;" horiz-adv-x="908" 
d="M698 444.5q4 21.5 4 44.5q0 45 -16 74.5t-43.5 47t-63 24t-74.5 6.5q-24 0 -55 -3.5t-63.5 -11t-64.5 -19.5t-56.5 -30t-40 -42.5t-15.5 -55.5q0 -27 19.5 -46.5t50 -33.5t68.5 -23t75 -15.5t69 -10t51 -6.5q24 -4 58.5 -9.5t71.5 -14.5t73.5 -22t65.5 -31.5t47 -43
t18 -56.5q0 -34 -18.5 -60t-49 -45.5t-68 -32t-76 -20.5t-73.5 -11t-59 -3q-106 0 -210 17.5t-203 56.5q-10 4 -23 9.5t-27 11.5t-27 10t-23 5q6 6 18.5 17t25 24t23 24.5t12.5 17.5q88 -54 192.5 -80t207.5 -26q17 0 53.5 2.5t73 10.5t64 22.5t27.5 38.5q0 32 -28.5 51
t-75.5 31.5t-107 20t-122.5 16.5t-122.5 21.5t-107 34t-75.5 54.5t-28.5 83q0 53 21.5 94t58 72t83 52t97 34t100.5 19t92 6q70 0 133 -11t109.5 -40t74 -81t27.5 -134q0 -20 -1.5 -39t-3.5 -39h-152q5 22 9 43.5zM378 949q1 -3 13 -16.5t26.5 -29t28 -29.5t17.5 -18
q22 22 40 45.5t36 47.5h126q-7 -4 -23 -18t-33.5 -31t-33.5 -33l-23 -23q-2 -2 -7.5 -8t-11.5 -12.5t-11 -13t-4 -7.5h-115q1 2 -2 5.5t-4 4.5q-6 8 -26 29.5t-43 44t-44 41t-28 21.5h122z" />
    <glyph glyph-name="scaron" unicode="&#x161;" horiz-adv-x="640" 
d="M462 330.5q4 18.5 4 37.5q0 42 -22.5 62.5t-64.5 20.5q-24 0 -56.5 -5.5t-61.5 -18.5t-49.5 -34t-20.5 -52q0 -23 22.5 -38.5t52.5 -25t60.5 -14.5t46.5 -8q25 -5 63.5 -12.5t74.5 -22t62 -36t26 -54.5q0 -37 -29 -62t-69.5 -40t-84.5 -21.5t-73 -6.5q-60 0 -119 8.5
t-116 28.5q-7 3 -23 9.5t-33.5 14t-32.5 13.5t-19 6q2 1 14 12t25.5 24.5t24.5 25.5t12 15q51 -38 113.5 -56t125.5 -18q7 0 27 1.5t41.5 5.5t38.5 11t17 18q0 16 -28 26t-70.5 19t-91.5 20t-91.5 28.5t-70.5 43.5t-28 67q0 60 32.5 102.5t81.5 69t106 38.5t107 12
q41 0 79 -6.5t67 -23.5t46.5 -47t17.5 -78q0 -24 -3.5 -48t-8.5 -47h-132q6 17 10 35.5zM256 746q1 -3 13 -16.5t26.5 -29t28 -29.5t17.5 -18q22 22 40 45.5t36 47.5h126q-7 -4 -23 -18t-33.5 -31t-33.5 -33l-23 -23q-2 -2 -7.5 -8t-11.5 -12.5t-11 -13t-4 -7.5h-115
q1 2 -2 5.5t-4 4.5q-6 8 -26 29.5t-43 44t-44 41t-28 21.5h122z" />
    <glyph glyph-name="Ydieresis" unicode="&#x178;" horiz-adv-x="639" 
d="M833 737q-18 -10 -52 -44.5t-76 -82.5t-88 -104t-88 -108.5l-76 -95t-51 -64.5q-1 -21 -1 -42v-43v-32t1.5 -47.5t4.5 -46t10 -27.5h-183q5 5 8.5 23t5.5 42.5t2.5 52.5t1 53t0.5 44.5v27.5q-17 21 -51 63.5t-76.5 94t-88.5 107.5t-88 103.5t-76 82t-51 43.5
q60 0 118.5 -0.5t118.5 0.5q-4 -2 -4 -9q0 -15 17 -44t43 -65.5t58 -76.5t62 -76t55 -64t37 -41h5q12 13 36.5 41t55 64t62 76t58 76.5t43 65.5t16.5 44q0 6 -4 9q59 -1 117.5 -0.5t117.5 0.5zM289 856q0 -14 -9 -23.5t-21.5 -15.5t-27 -9t-25.5 -3t-25.5 3t-27 9
t-21.5 15.5t-9 23.5t9 23.5t21.5 15.5t27 9t25.5 3t25.5 -3t27 -9t21.5 -15.5t9 -23.5zM451 907q11 0 25.5 -3t27 -9t21.5 -15.5t9 -23.5t-9 -23.5t-21.5 -15.5t-27 -9t-25.5 -3t-25 3t-26.5 9t-21.5 15.5t-9 23.5t9 23.5t21.5 15.5t26.5 9t25 3z" />
    <glyph glyph-name="Zcaron" unicode="&#x17d;" horiz-adv-x="808" 
d="M231 98h90q103 -1 203.5 0.5t203.5 3.5q14 0 28.5 0.5t28.5 2.5l3 -103l-756 -5v106q20 14 36.5 30t33.5 32q125 118 244.5 238t242.5 238l-72 1h-104q-94 0 -186.5 -1.5t-186.5 -3.5h-29t-29 -3l-2 103l818 6v-101zM328 949q1 -3 13 -16.5t26.5 -29t28 -29.5t17.5 -18
q22 22 40 45.5t36 47.5h126q-7 -4 -23 -18t-33.5 -31t-33.5 -33l-23 -23q-2 -2 -7.5 -8t-11.5 -12.5t-11 -13t-4 -7.5h-115q1 2 -2 5.5t-4 4.5q-6 8 -26 29.5t-43 44t-44 41t-28 21.5h122z" />
    <glyph glyph-name="zcaron" unicode="&#x17e;" horiz-adv-x="625" 
d="M607 386q-20 -8 -50.5 -29t-66 -49.5t-73.5 -61.5t-72.5 -64.5t-63 -59t-44.5 -44.5q123 -3 245 -3h29.5t36 0.5t35 2t27.5 4.5l-4 -91q-22 5 -44.5 4.5t-45.5 0.5q-44 1 -87 1h-86h-36h-56t-65 -0.5t-63.5 -1.5t-51 -3t-27.5 -4l-3 101l6 -1l-2 1q11 4 38 24t61.5 49
t74 63.5t75 66.5t63.5 58.5t41 40.5h-90q-44 0 -87 -0.5t-86 -1.5h-46t-45 -5l-3 91q10 -3 27 -4t35.5 -1.5t36 -0.5h28.5q89 0 177 1.5t176 5.5q22 1 45 1t44 5zM256 715q1 -3 13 -16.5t26.5 -29t28 -29.5t17.5 -18q22 22 40 45.5t36 47.5h126q-7 -4 -23 -18t-33.5 -31
t-33.5 -33l-23 -23q-2 -2 -7.5 -8t-11.5 -12.5t-11 -13t-4 -7.5h-115q1 2 -2 5.5t-4 4.5q-6 8 -26 29.5t-43 44t-44 41t-28 21.5h122z" />
    <glyph glyph-name="circumflex" unicode="&#x2c6;" 
d="M544 619q-2 4 -14 17t-26.5 28.5t-28 29t-17.5 18.5q-21 -21 -39 -44.5t-36 -48.5h-127q7 4 23.5 18.5t34 31t33 32.5t22.5 23q1 1 7 7.5t12.5 13t11.5 12.5t4 8h115q-1 -2 2 -5.5t3 -4.5q7 -8 27 -29t43 -44t43.5 -41.5t27.5 -21.5h-121z" />
    <glyph glyph-name="caron" unicode="&#x2c7;" 
d="M378 765q1 -3 13 -16.5t26.5 -29t28 -29.5t17.5 -18q22 22 40 45.5t36 47.5h126q-7 -4 -23 -18t-33.5 -31t-33.5 -33l-23 -23q-2 -2 -7.5 -8t-11.5 -12.5t-11 -13t-4 -7.5h-115q1 2 -2 5.5t-4 4.5q-6 8 -26 29.5t-43 44t-44 41t-28 21.5h122z" />
    <glyph glyph-name="breve" unicode="&#x2d8;" 
d="M637 749q-6 -11 -8 -15q-29 -49 -68.5 -80t-99.5 -31q-50 0 -83 20.5t-54 46t-32 47.5t-17 25h110q3 -12 10.5 -25t18 -24t23 -18t26.5 -7q24 0 38 16t22 36q2 5 4 11t5 11h115q-4 -2 -10 -13z" />
    <glyph glyph-name="dotaccent" unicode="&#x2d9;" 
d="M543 692q0 -14 -8.5 -23.5t-21.5 -15.5t-27 -9t-25 -3t-25.5 3t-27 9t-21.5 15.5t-9 23.5t9 23.5t21.5 15.5t27 9t25.5 3t25 -3t27 -9t21.5 -15.5t8.5 -23.5z" />
    <glyph glyph-name="ring" unicode="&#x2da;" 
d="M461 787q21 0 46 -5t47.5 -16.5t37.5 -29.5t15 -44q0 -25 -15.5 -42t-38.5 -27.5t-48.5 -15t-45.5 -4.5q-21 0 -46 4t-47 14.5t-36.5 28t-14.5 44.5q0 26 15 44t37 29t47.5 15.5t46.5 4.5zM398 694q0 -12 6 -20t15 -13t20 -7t21 -2q9 0 20 2t21 7t16.5 13t6.5 20t-6.5 20
t-16 13t-20.5 7.5t-20 2.5q-10 0 -21 -2t-20.5 -7.5t-15.5 -13.5t-6 -20z" />
    <glyph glyph-name="ogonek" unicode="&#x2db;" 
d="M380 -65q0 23 7 40.5t19 34.5h77q-12 -14 -19 -30.5t-7 -36.5q0 -21 9 -33.5t23 -18.5t31 -7.5t34 -1.5q26 0 55 4t54 12l15 -50q-26 -10 -58 -14.5t-60 -4.5q-25 0 -56 4.5t-58.5 16t-46.5 32t-19 53.5z" />
    <glyph glyph-name="tilde" unicode="&#x2dc;" 
d="M622 757l-3 -90q-22 -12 -49.5 -19t-50.5 -7q-26 0 -42 6t-29 13.5t-26 13.5t-32 6q-23 0 -48.5 -16.5t-40.5 -33.5l-2 90q19 16 45.5 25.5t50.5 9.5q23 0 41 -6t33 -13.5t27.5 -13.5t24.5 -6q24 0 52.5 13.5t48.5 27.5z" />
    <glyph glyph-name="hungarumlaut" unicode="&#x2dd;" 
d="M419 802l74 -83l-250 -144l-50 54zM654 802l75 -83l-251 -144l-50 54z" />
    <glyph glyph-name="endash" unicode="&#x2013;" horiz-adv-x="510" 
d="M20 369q7 -3 25.5 -4.5t39.5 -2t39.5 -0.5h27.5q11 0 38.5 0.5t62.5 1t73.5 2t72.5 3t58.5 4t31.5 5.5l-3 -123q-4 3 -22 5t-42.5 3t-53.5 1.5t-54.5 1t-45.5 0.5h-27h-45t-67 -0.5t-65.5 -2.5t-40.5 -5z" />
    <glyph glyph-name="emdash" unicode="&#x2014;" horiz-adv-x="919" 
d="M20 373q11 -4 44.5 -5.5t72 -2t73.5 -0.5h48q130 0 258 1.5t258 6.5q7 0 25 1t38 1.5t38 2t24 3.5l-3 -123q-6 3 -39.5 5t-81.5 3t-104 2t-106 1.5t-87.5 0.5h-49.5q-152 0 -303 -3q-9 0 -23 -0.5t-28.5 -1t-28 -1.5t-22.5 -3z" />
    <glyph glyph-name="quoteleft" unicode="&#x2018;" horiz-adv-x="284" 
d="M253 522l-85 -11q-4 7 -15 27.5t-25.5 47t-31 55.5t-31.5 55t-27 45t-18 24l144 26q1 -9 4.5 -20.5t8 -24t8.5 -24t7 -20.5l30 -90t31 -90z" />
    <glyph glyph-name="quoteright" unicode="&#x2019;" horiz-adv-x="274" 
d="M51.5 612q15.5 45 30.5 90q3 9 7 20.5t8.5 24t7.5 24t5 20.5l143 -26q-6 -5 -17.5 -24t-27 -45t-32 -55t-31 -55.5t-25 -47t-14.5 -27.5l-86 11q16 45 31.5 90z" />
    <glyph glyph-name="quotesinglbase" unicode="&#x201a;" horiz-adv-x="274" 
d="M51.5 -58q15.5 45 30.5 90q3 9 7 20.5t8.5 24t7.5 24t5 20.5l143 -26q-6 -5 -17.5 -24t-27 -44.5t-32 -55t-31 -56t-25 -46.5t-14.5 -27l-86 10q16 45 31.5 90z" />
    <glyph glyph-name="quotedblleft" unicode="&#x201c;" horiz-adv-x="466" 
d="M253 522l-85 -11q-4 7 -15 27.5t-25.5 47t-31 55.5t-31.5 55t-27 45t-18 24l144 26q1 -9 4.5 -20.5t8 -24t8.5 -24t7 -20.5l30 -90t31 -90zM346 791q1 -9 4.5 -20.5t7.5 -24t8.5 -24t7.5 -20.5l30 -90t31 -90l-85 -11q-4 7 -15 27.5t-25.5 47t-31 55.5t-31.5 55t-27 45
t-18 24z" />
    <glyph glyph-name="quotedblright" unicode="&#x201d;" horiz-adv-x="456" 
d="M292 791l143 -26q-6 -5 -18 -24t-27 -45t-31.5 -55t-31 -55.5t-25 -47t-14.5 -27.5l-86 11q16 45 31.5 90t30.5 90q3 9 7 20.5t8 24t7.5 24t5.5 20.5zM20 522q16 45 31.5 90t30.5 90q3 9 7 20.5t8.5 24t7.5 24t5 20.5l143 -26q-6 -5 -17.5 -24t-27 -45t-32 -55t-31 -55.5
t-25 -47t-14.5 -27.5z" />
    <glyph glyph-name="quotedblbase" unicode="&#x201e;" horiz-adv-x="456" 
d="M292 121l143 -26q-6 -5 -18 -24t-27 -44.5t-31.5 -55t-31 -56t-25 -46.5t-14.5 -27l-86 10q16 45 31.5 90t30.5 90q3 9 7 20.5t8 24t7.5 24t5.5 20.5zM20 -148q16 45 31.5 90t30.5 90q3 9 7 20.5t8.5 24t7.5 24t5 20.5l143 -26q-6 -5 -17.5 -24t-27 -44.5t-32 -55
t-31 -56t-25 -46.5t-14.5 -27z" />
    <glyph glyph-name="bullet" unicode="&#x2022;" horiz-adv-x="372" 
d="M341 343q0 -26 -16.5 -44t-40.5 -29.5t-51 -16.5t-47 -5t-47 5t-51 16.5t-40.5 29.5t-16.5 44t16.5 44t40.5 29.5t51 16.5t47 5t47 -5t51 -16.5t40.5 -29.5t16.5 -44z" />
    <glyph glyph-name="ellipsis" unicode="&#x2026;" horiz-adv-x="636" 
d="M103 101q11 0 25.5 -3t27 -9t21.5 -15.5t9 -23.5t-9 -23.5t-21.5 -15.5t-27 -9t-25.5 -3t-25.5 3t-27 9t-21.5 15.5t-9 23.5t9 23.5t21.5 15.5t27 9t25.5 3zM318 101q11 0 25.5 -3t27 -9t21.5 -15.5t9 -23.5t-9 -23.5t-21.5 -15.5t-27 -9t-25.5 -3t-25.5 3t-27 9
t-21.5 15.5t-9 23.5t9 23.5t21.5 15.5t27 9t25.5 3zM533 101q11 0 25.5 -3t27 -9t21.5 -15.5t9 -23.5t-9 -23.5t-21.5 -15.5t-27 -9t-25.5 -3t-25.5 3t-27 9t-21.5 15.5t-9 23.5t9 23.5t21.5 15.5t27 9t25.5 3z" />
    <glyph glyph-name="perthousand" unicode="&#x2030;" horiz-adv-x="1423" 
d="M266 737q32 0 72 -8t75 -26t59 -46.5t24 -68.5q0 -39 -24.5 -66t-60.5 -43.5t-76.5 -23.5t-71.5 -7q-33 0 -73 6.5t-74.5 23t-57.5 44t-23 69.5t23.5 70t58.5 45t75.5 24t73.5 7zM145 592q0 -23 12 -38t29.5 -24t38.5 -12.5t39 -3.5q17 0 38 4t40 13t31.5 23.5t12.5 35.5
q0 22 -12 37t-30 25t-39 14.5t-39 4.5t-39 -4t-39.5 -13.5t-30.5 -24.5t-12 -37zM675 289q33 0 73 -8t75 -26t59 -46.5t24 -68.5q0 -39 -25 -66t-61 -43.5t-76 -23.5t-71 -7q-33 0 -73 6.5t-74.5 23t-57.5 44t-23 69.5t23.5 70t58.5 45t75 24t73 7zM555 144q0 -23 12 -38
t29.5 -24t38.5 -12.5t39 -3.5q17 0 38 4t39.5 13t31 23.5t12.5 35.5q0 22 -12 37t-30 25t-39 14.5t-39 4.5t-39 -4t-39 -13.5t-30 -24.5t-12 -37zM15 0q17 9 45.5 33t62 56.5t70 69.5t69.5 71.5t59 62.5t40 43q33 35 66.5 71t66.5 71q6 7 25 26.5t44 45t52 54.5t49.5 55
t37 46t14.5 27q0 5 -3 5h212q-15 -1 -49 -26.5t-77 -64.5t-90.5 -86t-90 -91t-75.5 -79t-47 -50q-22 -24 -44 -47t-45 -46q-6 -6 -25 -25.5t-45 -45.5t-54 -55t-51.5 -54.5t-38.5 -44t-14 -22.5h-164zM1177 289q33 0 73 -8t75 -26t59 -46.5t24 -68.5q0 -39 -25 -66
t-61 -43.5t-76 -23.5t-71 -7q-33 0 -73 6.5t-74.5 23t-58 44t-23.5 69.5t23.5 70t59 45t75.5 24t73 7zM1057 144q0 -23 12 -38t29.5 -24t38.5 -12.5t39 -3.5q17 0 38 4t39.5 13t31 23.5t12.5 35.5q0 22 -12 37t-30 25t-39 14.5t-39 4.5t-39 -4t-39 -13.5t-30 -24.5t-12 -37z
" />
    <glyph glyph-name="guilsinglleft" unicode="&#x2039;" horiz-adv-x="254" 
d="M224 287q-6 -2 -25 -16.5t-41.5 -32t-42.5 -33.5t-27 -22q32 -27 66.5 -48.5t69.5 -43.5v-119q-4 5 -20 20t-38 33.5t-47.5 39t-47.5 38t-38.5 28.5t-19.5 11h-3v90q3 -2 8.5 1.5t7.5 4.5q7 5 24 17t38 28t44 34t42.5 34.5t33 29.5t16.5 19v-113z" />
    <glyph glyph-name="guilsinglright" unicode="&#x203a;" horiz-adv-x="254" 
d="M31 400q3 -6 16.5 -19t33 -29.5t42 -34.5t43.5 -34t38 -28t24 -17q2 -1 8 -4.5t8 -1.5v-90h-2q-4 0 -20 -11t-38.5 -28.5t-47.5 -38t-47.5 -39t-38.5 -33.5t-19 -20v119q35 22 69.5 43.5t66.5 48.5q-7 6 -27 22t-42.5 33.5t-42 32t-24.5 16.5v113z" />
    <glyph glyph-name="fraction" unicode="&#x2044;" horiz-adv-x="598" 
d="M389 724q0 10 -8 13h186q-15 -1 -36.5 -26.5t-46 -64.5t-49.5 -85.5t-47 -90.5t-39 -79t-24 -51q-23 -48 -45 -93q-5 -10 -15.5 -29.5t-23 -44t-26 -51t-24.5 -50t-18 -42t-7 -25.5q0 -3 2 -5h-137q12 8 28.5 31.5t34.5 55.5t37 69t36 71.5t30.5 63.5t20.5 45
q16 33 31 66t31 66q6 12 16 32.5t22.5 45.5t25 52t22.5 51.5t16.5 44t6.5 30.5z" />
    <glyph glyph-name="Euro" unicode="&#x20ac;" horiz-adv-x="855" 
d="M673 401q14 19 26 42t12 46q0 27 -17.5 44t-43 27t-53.5 14t-48 4q-69 0 -131.5 -29.5t-104.5 -84.5q51 1 101.5 2t101.5 3q19 1 47 1t46 5l-38 -88q-4 2 -25.5 3.5t-52 2.5t-65.5 1t-67 0.5t-55.5 0.5h-31.5q-11 -30 -11 -59q51 1 100 2t100 3q10 0 22.5 0.5t25.5 1
t25.5 1.5t21.5 3l-38 -88q-4 2 -21.5 3t-42 2t-53 1.5t-54 0.5t-44.5 0.5t-26 0.5q16 -28 44.5 -46.5t62.5 -29t69 -15t64 -4.5q63 0 125 10.5t122 27.5l30 -79q-32 -11 -68 -18.5t-73.5 -12t-75 -7t-71.5 -2.5q-46 0 -104 8t-112.5 28.5t-97.5 54t-59 84.5h-28t-33 -0.5
t-33 -1.5t-27 -3l-4 80q10 -3 26 -4.5t32.5 -1.5h32.5h27q2 15 5 30t8 29h-29t-35 -0.5t-35 -1.5t-28 -3l-4 80q10 -3 33.5 -4.5t49 -1.5h49h35.5q33 47 78 83t97 60.5t109 37t113 12.5q45 0 91 -7t84 -26.5t62 -53.5t24 -89q0 -20 -3.5 -39.5t-9.5 -39.5h-149z" />
    <glyph glyph-name="summation" unicode="&#x2211;" horiz-adv-x="725" 
d="M715 166l-105 -56q-23 18 -46.5 36t-47.5 36q-70 -31 -145.5 -51.5t-153.5 -20.5q-23 0 -58 3t-68 13.5t-57 30t-24 52.5q0 34 25 62.5t60 52.5t72.5 43t62.5 33q-14 12 -28.5 28t-26.5 33.5t-20 37t-8 39.5q0 34 21.5 55t52.5 32.5t65 15.5t59 4q21 0 50.5 -3.5
t56.5 -13t46 -28t19 -48.5q0 -25 -13.5 -48t-33 -43.5t-42 -37t-41.5 -27.5q35 -27 71.5 -52t73.5 -51q25 15 50 31t46 36l87 -67q-23 -17 -47.5 -31.5t-49.5 -28.5zM339 569q-9 0 -21.5 -1t-24 -4.5t-20 -11t-8.5 -19.5q0 -10 5.5 -21t13.5 -21.5t17 -20t16 -16.5
q8 6 22 16t27.5 22.5t23.5 25.5t10 24q0 9 -7 14.5t-17 8.5t-20.5 3.5t-16.5 0.5zM240 190q48 0 100.5 17t95.5 37q-35 26 -68.5 51t-68.5 51q-10 -6 -34 -19.5t-48.5 -29.5t-43 -33.5t-18.5 -30.5q0 -12 10 -20.5t23.5 -13.5t28 -7t23.5 -2z" />
    <glyph glyph-name="minus" unicode="&#x2212;" horiz-adv-x="510" 
d="M20 369q7 -3 25.5 -4.5t39.5 -2t39.5 -0.5h27.5q11 0 38.5 0.5t62.5 1t73.5 2t72.5 3t58.5 4t31.5 5.5l-3 -123q-4 3 -22 5t-42.5 3t-53.5 1.5t-54.5 1t-45.5 0.5h-27h-45t-67 -0.5t-65.5 -2.5t-40.5 -5z" />
    <glyph glyph-name="fi" unicode="&#xfb01;" horiz-adv-x="744" 
d="M692 446q-5 -7 -8 -25t-5 -42t-3.5 -51.5t-2.5 -53t-1 -45.5v-29v-23.5t0.5 -38.5t2 -46t3.5 -45t5 -36t7 -19h-181q5 7 9.5 30.5t8 55.5t6.5 69t5 70.5t3 59t1 36.5v17.5t-1 16.5q-57 1 -113 1.5t-113 0.5h-61v-67v-29v-51t1 -61.5t2 -60t3 -47.5t5 -23h-161q4 3 6 24.5
t3 47.5t1 49.5v29.5q0 47 -1 93t-2 93h-25.5t-31.5 -0.5t-31 -1.5t-25 -3l-3 91q7 -2 23 -3t33.5 -1.5t34 -1t24.5 -0.5l-2 34t-1 34q0 75 29 147q23 54 58 92t79 61.5t95.5 34.5t108.5 11q49 0 90.5 -10t71.5 -32.5t47 -59t17 -88.5q0 -18 -3 -38.5t-7 -40t-6.5 -36.5
t-2.5 -29l-158 30q6 8 10 21.5t6.5 28.5t4 29t1.5 24q0 53 -25.5 86t-82.5 33q-44 0 -78 -21t-57.5 -54t-36 -74t-12.5 -80q0 -26 -0.5 -51.5t-0.5 -51.5q109 1 218.5 6.5t218.5 12.5z" />
    <glyph glyph-name="fl" unicode="&#xfb02;" horiz-adv-x="779" 
d="M477 841q60 0 101.5 -19t68 -51.5t41 -75.5t21 -90t7.5 -96t1 -93q0 -63 -3 -124.5t-8 -124.5q-2 -37 -5.5 -74t-3.5 -74q0 -5 0.5 -14t4.5 -14h-169q5 7 9.5 40.5t8.5 81.5t7 105.5t5.5 111t3.5 97.5t1 67q0 37 -0.5 83t-11 86.5t-37.5 68t-79 27.5q-44 0 -78 -21
t-57.5 -54t-36 -74t-12.5 -80q0 -20 -0.5 -40.5t-0.5 -40.5q13 0 42.5 1t62.5 2.5t61.5 3.5t38.5 5l-3 -101q-6 3 -35 5t-63 2.5t-64.5 1t-40.5 0.5v-67v-30.5v-55t1 -66.5t2 -65t3 -51t5 -24h-161q4 3 6 26.5t3 52t1 54.5v32q0 96 -3 194h-26t-31 -0.5t-31 -1.5t-25 -4
l-3 91q8 -3 23.5 -4t33 -1.5t33.5 -0.5h25q-1 11 -2 23t-1 24q0 75 29 147q23 54 58 92t79 61.5t95.5 34.5t108.5 11z" />
    </font>
</defs>
</svg>
